<?xml version="1.0" standalone="no"?>
 <!DOCTYPE svg PUBLIC "-//W3C//DTD SVG 1.1//EN" 
 "http://www.w3.org/Graphics/SVG/1.1/DTD/svg11.dtd"> 
<svg
  xmlns:svg="http://www.w3.org/2000/svg"
  xmlns="http://www.w3.org/2000/svg"
  xmlns:xlink="http://www.w3.org/1999/xlink"
  version="1.1"
  width="184.4802mm" height="59.4868mm" viewBox="0.0000 0.0000 184.4802 59.4868">
<title>SVG Image created as scoreboard-F_Cu.svg date 2024/07/03 19:59:12 </title>
  <desc>Image generated by PCBNEW </desc>
<g style="fill:#000000; fill-opacity:1.0000;stroke:#000000; stroke-opacity:1.0000;
stroke-linecap:round; stroke-linejoin:round;"
 transform="translate(0 0) scale(1 1)">
<path style="fill:#000000; fill-opacity:1.0000; stroke:none;fill-rule:evenodd;"
d="M 59.3369,52.8500
61.0369,52.8500
61.0369,51.1500
59.3369,51.1500
Z" /> 
</g>
<g style="fill:#000000; fill-opacity:1.0000; stroke:none;">
<circle cx="57.6469" cy="52.0000" r="0.8500" /> 
<circle cx="55.1069" cy="52.0000" r="0.8500" /> 
<circle cx="52.5669" cy="52.0000" r="0.8500" /> 
<circle cx="143.7402" cy="6.5000" r="0.8500" /> 
<circle cx="146.2802" cy="6.5000" r="0.8500" /> 
<circle cx="148.8202" cy="6.5000" r="0.8500" /> 
<circle cx="151.3602" cy="6.5000" r="0.8500" /> 
<circle cx="153.9002" cy="6.5000" r="0.8500" /> 
<circle cx="156.4402" cy="6.5000" r="0.8500" /> 
<path style="fill:#000000; fill-opacity:1.0000; stroke:none;fill-rule:evenodd;"
d="M 158.1302,7.3500
159.8302,7.3500
159.8302,5.6500
158.1302,5.6500
Z" /> 
<path style="fill:#000000; fill-opacity:1.0000; stroke:none;fill-rule:evenodd;"
d="M 23.9602,33.8000
25.5602,33.8000
25.5602,32.2000
23.9602,32.2000
Z" /> 
<circle cx="22.2202" cy="33.0000" r="0.8000" /> 
<circle cx="19.6802" cy="33.0000" r="0.8000" /> 
<circle cx="17.1402" cy="33.0000" r="0.8000" /> 
<circle cx="14.6002" cy="33.0000" r="0.8000" /> 
<circle cx="12.0602" cy="33.0000" r="0.8000" /> 
<circle cx="9.5202" cy="33.0000" r="0.8000" /> 
<circle cx="6.9802" cy="33.0000" r="0.8000" /> 
<circle cx="6.9802" cy="25.3800" r="0.8000" /> 
<circle cx="9.5202" cy="25.3800" r="0.8000" /> 
<circle cx="12.0602" cy="25.3800" r="0.8000" /> 
<circle cx="14.6002" cy="25.3800" r="0.8000" /> 
<circle cx="17.1402" cy="25.3800" r="0.8000" /> 
<circle cx="19.6802" cy="25.3800" r="0.8000" /> 
<circle cx="22.2202" cy="25.3800" r="0.8000" /> 
<circle cx="24.7602" cy="25.3800" r="0.8000" /> 
<path style="fill:#000000; fill-opacity:1.0000; stroke:none;fill-rule:evenodd;"
d="M 13.7502,52.8500
15.4502,52.8500
15.4502,51.1500
13.7502,51.1500
Z" /> 
<circle cx="12.0602" cy="52.0000" r="0.8500" /> 
<circle cx="9.5202" cy="52.0000" r="0.8500" /> 
<circle cx="6.9802" cy="52.0000" r="0.8500" /> 
<path style="fill:#000000; fill-opacity:1.0000; stroke:none;fill-rule:evenodd;"
d="M 150.5102,52.8500
152.2102,52.8500
152.2102,51.1500
150.5102,51.1500
Z" /> 
<circle cx="148.8202" cy="52.0000" r="0.8500" /> 
<circle cx="146.2802" cy="52.0000" r="0.8500" /> 
<circle cx="143.7402" cy="52.0000" r="0.8500" /> 
<circle cx="161.5202" cy="25.4300" r="0.8000" /> 
<circle cx="158.9802" cy="25.4300" r="0.8000" /> 
<circle cx="156.4402" cy="25.4300" r="0.8000" /> 
<circle cx="153.9002" cy="25.4300" r="0.8000" /> 
<circle cx="151.3602" cy="25.4300" r="0.8000" /> 
<circle cx="148.8202" cy="25.4300" r="0.8000" /> 
<circle cx="146.2802" cy="25.4300" r="0.8000" /> 
<circle cx="143.7402" cy="25.4300" r="0.8000" /> 
<circle cx="143.7402" cy="33.0500" r="0.8000" /> 
<circle cx="146.2802" cy="33.0500" r="0.8000" /> 
<circle cx="148.8202" cy="33.0500" r="0.8000" /> 
<circle cx="151.3602" cy="33.0500" r="0.8000" /> 
<circle cx="153.9002" cy="33.0500" r="0.8000" /> 
<circle cx="156.4402" cy="33.0500" r="0.8000" /> 
<circle cx="158.9802" cy="33.0500" r="0.8000" /> 
<path style="fill:#000000; fill-opacity:1.0000; stroke:none;fill-rule:evenodd;"
d="M 160.7202,33.8500
162.3202,33.8500
162.3202,32.2500
160.7202,32.2500
Z" /> 
<path style="fill:#000000; fill-opacity:1.0000; stroke:none;fill-rule:evenodd;"
d="M 104.9235,52.8500
106.6235,52.8500
106.6235,51.1500
104.9235,51.1500
Z" /> 
<circle cx="103.2335" cy="52.0000" r="0.8500" /> 
<circle cx="100.6935" cy="52.0000" r="0.8500" /> 
<circle cx="98.1535" cy="52.0000" r="0.8500" /> 
<path style="fill:#000000; fill-opacity:1.0000; stroke:none;fill-rule:evenodd;"
d="M 180.3302,28.8500
180.3302,27.1500
178.6302,27.1500
178.6302,28.8500
Z" /> 
<circle cx="179.4802" cy="30.5400" r="0.8500" /> 
<circle cx="70.3469" cy="25.3800" r="0.8000" /> 
<circle cx="67.8069" cy="25.3800" r="0.8000" /> 
<circle cx="65.2669" cy="25.3800" r="0.8000" /> 
<circle cx="62.7269" cy="25.3800" r="0.8000" /> 
<circle cx="60.1869" cy="25.3800" r="0.8000" /> 
<circle cx="57.6469" cy="25.3800" r="0.8000" /> 
<circle cx="55.1069" cy="25.3800" r="0.8000" /> 
<circle cx="52.5669" cy="25.3800" r="0.8000" /> 
<circle cx="52.5669" cy="33.0000" r="0.8000" /> 
<circle cx="55.1069" cy="33.0000" r="0.8000" /> 
<circle cx="57.6469" cy="33.0000" r="0.8000" /> 
<circle cx="60.1869" cy="33.0000" r="0.8000" /> 
<circle cx="62.7269" cy="33.0000" r="0.8000" /> 
<circle cx="65.2669" cy="33.0000" r="0.8000" /> 
<circle cx="67.8069" cy="33.0000" r="0.8000" /> 
<path style="fill:#000000; fill-opacity:1.0000; stroke:none;fill-rule:evenodd;"
d="M 69.5469,33.8000
71.1469,33.8000
71.1469,32.2000
69.5469,32.2000
Z" /> 
<circle cx="115.9335" cy="25.3800" r="0.8000" /> 
<circle cx="113.3935" cy="25.3800" r="0.8000" /> 
<circle cx="110.8535" cy="25.3800" r="0.8000" /> 
<circle cx="108.3135" cy="25.3800" r="0.8000" /> 
<circle cx="105.7735" cy="25.3800" r="0.8000" /> 
<circle cx="103.2335" cy="25.3800" r="0.8000" /> 
<circle cx="100.6935" cy="25.3800" r="0.8000" /> 
<circle cx="98.1535" cy="25.3800" r="0.8000" /> 
<circle cx="98.1535" cy="33.0000" r="0.8000" /> 
<circle cx="100.6935" cy="33.0000" r="0.8000" /> 
<circle cx="103.2335" cy="33.0000" r="0.8000" /> 
<circle cx="105.7735" cy="33.0000" r="0.8000" /> 
<circle cx="108.3135" cy="33.0000" r="0.8000" /> 
<circle cx="110.8535" cy="33.0000" r="0.8000" /> 
<circle cx="113.3935" cy="33.0000" r="0.8000" /> 
<path style="fill:#000000; fill-opacity:1.0000; stroke:none;fill-rule:evenodd;"
d="M 115.1335,33.8000
116.7335,33.8000
116.7335,32.2000
115.1335,32.2000
Z" /> 
<circle cx="6.9802" cy="6.5000" r="0.8500" /> 
<circle cx="9.5202" cy="6.5000" r="0.8500" /> 
<circle cx="12.0602" cy="6.5000" r="0.8500" /> 
<circle cx="14.6002" cy="6.5000" r="0.8500" /> 
<circle cx="17.1402" cy="6.5000" r="0.8500" /> 
<circle cx="19.6802" cy="6.5000" r="0.8500" /> 
<path style="fill:#000000; fill-opacity:1.0000; stroke:none;fill-rule:evenodd;"
d="M 21.3702,7.3500
23.0702,7.3500
23.0702,5.6500
21.3702,5.6500
Z" /> 
<path style="fill:#000000; fill-opacity:1.0000; stroke:none;fill-rule:evenodd;"
d="M 66.9569,7.3500
68.6569,7.3500
68.6569,5.6500
66.9569,5.6500
Z" /> 
<circle cx="65.2669" cy="6.5000" r="0.8500" /> 
<circle cx="62.7269" cy="6.5000" r="0.8500" /> 
<circle cx="60.1869" cy="6.5000" r="0.8500" /> 
<circle cx="57.6469" cy="6.5000" r="0.8500" /> 
<circle cx="55.1069" cy="6.5000" r="0.8500" /> 
<circle cx="52.5669" cy="6.5000" r="0.8500" /> 
<path style="fill:#000000; fill-opacity:1.0000; stroke:none;fill-rule:evenodd;"
d="M 112.5435,7.3500
114.2435,7.3500
114.2435,5.6500
112.5435,5.6500
Z" /> 
<circle cx="110.8535" cy="6.5000" r="0.8500" /> 
<circle cx="108.3135" cy="6.5000" r="0.8500" /> 
<circle cx="105.7735" cy="6.5000" r="0.8500" /> 
<circle cx="103.2335" cy="6.5000" r="0.8500" /> 
<circle cx="100.6935" cy="6.5000" r="0.8500" /> 
<circle cx="98.1535" cy="6.5000" r="0.8500" /> 
</g>
<g style="fill:none; 
stroke:#000000; stroke-width:1.2000; stroke-opacity:1; 
stroke-linecap:round; stroke-linejoin:round;">
<path d="M19.6802 33.0000
L17.1402 33.0000
" />
<path d="M24.7602 25.3800
L24.7602 26.5114
" />
<path d="M24.7602 26.5114
L19.6802 31.5914
" />
<path d="M19.6802 31.5914
L19.6802 33.0000
" />
<path d="M62.7269 33.0000
L62.7269 31.8686
" />
<path d="M62.7269 31.8686
L60.0582 29.2000
" />
<path d="M60.0582 29.2000
L28.5802 29.2000
" />
<path d="M28.5802 29.2000
L24.7602 25.3800
" />
<path d="M65.2669 33.0000
L62.7269 33.0000
" />
<path d="M70.3469 25.3800
L70.3469 27.7730
" />
<path d="M70.3469 27.7730
L65.2669 32.8530
" />
<path d="M65.2669 32.8530
L65.2669 33.0000
" />
<path d="M108.3135 33.0000
L108.3135 31.8686
" />
<path d="M108.3135 31.8686
L105.4449 29.0000
" />
<path d="M105.4449 29.0000
L73.9669 29.0000
" />
<path d="M73.9669 29.0000
L70.3469 25.3800
" />
<path d="M110.8535 33.0000
L108.3135 33.0000
" />
<path d="M115.9335 25.3800
L115.9335 27.7730
" />
<path d="M115.9335 27.7730
L110.8535 32.8530
" />
<path d="M110.8535 32.8530
L110.8535 33.0000
" />
<path d="M153.9002 33.0500
L153.9002 31.9186
" />
<path d="M153.9002 31.9186
L151.9816 30.0000
" />
<path d="M151.9816 30.0000
L120.5535 30.0000
" />
<path d="M120.5535 30.0000
L115.9335 25.3800
" />
<path d="M156.4402 33.0500
L153.9002 33.0500
" />
<path d="M161.5202 25.4300
L161.5202 26.5614
" />
<path d="M161.5202 26.5614
L156.4402 31.6414
" />
<path d="M156.4402 31.6414
L156.4402 33.0500
" />
<path d="M179.4802 28.0000
L164.0902 28.0000
" />
<path d="M164.0902 28.0000
L161.5202 25.4300
" />
<path d="M9.5202 52.0000
L9.5202 53.2242
" />
<path d="M9.5202 53.2242
L11.9460 55.6500
" />
<path d="M11.9460 55.6500
L17.2544 55.6500
" />
<path d="M17.2544 55.6500
L24.7602 48.1442
" />
<path d="M24.7602 48.1442
L24.7602 33.0000
" />
<path d="M12.0602 52.0000
L12.0602 53.3600
" />
<path d="M12.0602 53.3600
L12.6502 53.9500
" />
<path d="M22.2202 48.2800
L22.2202 33.0000
" />
<path d="M12.6502 53.9500
L16.5502 53.9500
" />
<path d="M16.5502 53.9500
L22.2202 48.2800
" />
<path d="M9.5202 33.0000
L9.5202 49.2423
" />
<path d="M9.5202 49.2423
L6.9802 51.7823
" />
<path d="M6.9802 51.7823
L6.9802 52.0000
" />
<path d="M12.0602 33.0000
L12.0602 49.2423
" />
<path d="M12.0602 49.2423
L14.6002 51.7823
" />
<path d="M14.6002 51.7823
L14.6002 52.0000
" />
<path d="M55.1069 52.0000
L55.1069 53.2242
" />
<path d="M55.1069 53.2242
L57.5327 55.6500
" />
<path d="M57.5327 55.6500
L62.8410 55.6500
" />
<path d="M62.8410 55.6500
L70.3469 48.1442
" />
<path d="M70.3469 48.1442
L70.3469 33.0000
" />
<path d="M57.6469 52.0000
L57.9802 52.0000
" />
<path d="M57.9802 52.0000
L58.2302 52.2500
" />
<path d="M67.8069 48.2800
L67.8069 33.0000
" />
<path d="M58.2302 52.2500
L58.2302 53.9433
" />
<path d="M58.2302 53.9433
L58.2369 53.9500
" />
<path d="M58.2369 53.9500
L62.1369 53.9500
" />
<path d="M62.1369 53.9500
L67.8069 48.2800
" />
<path d="M55.1069 33.0000
L55.1069 49.2423
" />
<path d="M55.1069 49.2423
L52.5669 51.7823
" />
<path d="M52.5669 51.7823
L52.5669 52.0000
" />
<path d="M57.6469 33.0000
L57.6469 49.2423
" />
<path d="M60.1869 51.7823
L60.1869 52.0000
" />
<path d="M57.6469 49.2423
L60.1869 51.7823
" />
<path d="M100.6935 52.0000
L100.6935 53.2242
" />
<path d="M100.6935 53.2242
L103.1194 55.6500
" />
<path d="M103.1194 55.6500
L109.8302 55.6500
" />
<path d="M109.8302 55.6500
L115.9335 49.5467
" />
<path d="M115.9335 49.5467
L115.9335 33.0000
" />
<path d="M103.2335 52.0000
L103.2335 53.3600
" />
<path d="M103.2335 53.3600
L103.8235 53.9500
" />
<path d="M103.8235 53.9500
L107.7235 53.9500
" />
<path d="M107.7235 53.9500
L113.3935 48.2800
" />
<path d="M113.3935 48.2800
L113.3935 33.0000
" />
<path d="M100.6935 33.0000
L100.6935 49.2423
" />
<path d="M100.6935 49.2423
L98.1535 51.7823
" />
<path d="M98.1535 51.7823
L98.1535 52.0000
" />
<path d="M103.2335 33.0000
L103.2335 49.2423
" />
<path d="M103.2335 49.2423
L105.7735 51.7823
" />
<path d="M105.7735 51.7823
L105.7735 52.0000
" />
<path d="M146.2802 52.0000
L146.2802 53.2242
" />
<path d="M146.2802 53.2242
L148.7060 55.6500
" />
<path d="M148.7060 55.6500
L153.8302 55.6500
" />
<path d="M153.8302 55.6500
L161.5202 47.9600
" />
<path d="M161.5202 47.9600
L161.5202 33.0500
" />
<path d="M148.8202 52.0000
L148.8202 53.3600
" />
<path d="M148.8202 53.3600
L149.4102 53.9500
" />
<path d="M149.4102 53.9500
L153.0302 53.9500
" />
<path d="M153.0302 53.9500
L158.9802 48.0000
" />
<path d="M158.9802 48.0000
L158.9802 33.0500
" />
<path d="M148.8202 33.0500
L148.8202 49.2423
" />
<path d="M148.8202 49.2423
L151.3602 51.7823
" />
<path d="M151.3602 51.7823
L151.3602 52.0000
" />
<path d="M146.2802 33.0500
L146.2802 49.2423
" />
<path d="M146.2802 49.2423
L143.7402 51.7823
" />
<path d="M143.7402 51.7823
L143.7402 52.0000
" />
<path d="M22.2202 25.3800
L22.2202 22.5572
" />
<path d="M22.2202 22.5572
L24.1702 20.6072
" />
<path d="M24.1702 20.6072
L24.1702 4.5500
" />
<path d="M9.5202 5.9100
L9.5202 6.5000
" />
<path d="M24.1702 4.5500
L10.8802 4.5500
" />
<path d="M10.8802 4.5500
L9.5202 5.9100
" />
<path d="M19.6802 25.3800
L19.6802 26.5114
" />
<path d="M19.6802 26.5114
L18.6916 27.5000
" />
<path d="M18.6916 27.5000
L5.9802 27.5000
" />
<path d="M5.9802 27.5000
L5.0802 26.6000
" />
<path d="M5.0802 26.6000
L5.0802 8.4000
" />
<path d="M5.0802 8.4000
L6.9802 6.5000
" />
<path d="M12.0602 6.5000
L12.0602 20.1530
" />
<path d="M12.0602 20.1530
L6.9802 25.2330
" />
<path d="M6.9802 25.2330
L6.9802 25.3800
" />
<path d="M14.6002 6.5000
L14.6002 20.1530
" />
<path d="M14.6002 20.1530
L9.5202 25.2330
" />
<path d="M9.5202 25.2330
L9.5202 25.3800
" />
<path d="M17.1402 6.5000
L17.1402 20.1530
" />
<path d="M12.0602 25.2330
L12.0602 25.3800
" />
<path d="M17.1402 20.1530
L12.0602 25.2330
" />
<path d="M19.6802 6.5000
L19.6802 20.1530
" />
<path d="M19.6802 20.1530
L14.6002 25.2330
" />
<path d="M14.6002 25.2330
L14.6002 25.3800
" />
<path d="M22.2202 6.5000
L22.2202 20.1530
" />
<path d="M22.2202 20.1530
L17.1402 25.2330
" />
<path d="M17.1402 25.2330
L17.1402 25.3800
" />
<path d="M67.8069 25.3800
L67.8069 22.5572
" />
<path d="M67.8069 22.5572
L69.7569 20.6072
" />
<path d="M55.1069 5.4100
L55.1069 6.5000
" />
<path d="M69.7569 20.6072
L69.7569 4.5500
" />
<path d="M69.7569 4.5500
L55.9669 4.5500
" />
<path d="M55.9669 4.5500
L55.1069 5.4100
" />
<path d="M65.2669 25.3800
L65.2669 26.5114
" />
<path d="M65.2669 26.5114
L64.2782 27.5000
" />
<path d="M64.2782 27.5000
L51.9999 27.5000
" />
<path d="M51.9999 27.5000
L50.6669 26.1670
" />
<path d="M50.6669 26.1670
L50.6669 8.4000
" />
<path d="M50.6669 8.4000
L52.5669 6.5000
" />
<path d="M57.6469 6.5000
L57.6469 19.9292
" />
<path d="M57.6469 19.9292
L52.5669 25.0092
" />
<path d="M52.5669 25.0092
L52.5669 25.3800
" />
<path d="M60.1869 6.5000
L60.1869 19.7933
" />
<path d="M60.1869 19.7933
L55.1069 24.8733
" />
<path d="M55.1069 24.8733
L55.1069 25.3800
" />
<path d="M62.7269 6.5000
L62.7269 19.7533
" />
<path d="M62.7269 19.7533
L57.6469 24.8333
" />
<path d="M57.6469 24.8333
L57.6469 25.3800
" />
<path d="M65.2669 6.5000
L65.2669 20.1530
" />
<path d="M65.2669 20.1530
L60.1869 25.2330
" />
<path d="M60.1869 25.2330
L60.1869 25.3800
" />
<path d="M67.8069 6.5000
L67.8069 20.1530
" />
<path d="M67.8069 20.1530
L62.7269 25.2330
" />
<path d="M62.7269 25.2330
L62.7269 25.3800
" />
<path d="M113.3935 25.3800
L113.3935 22.5572
" />
<path d="M113.3935 22.5572
L115.3435 20.6072
" />
<path d="M115.3435 20.6072
L115.3435 4.5500
" />
<path d="M115.3435 4.5500
L102.0535 4.5500
" />
<path d="M102.0535 4.5500
L100.6935 5.9100
" />
<path d="M100.6935 5.9100
L100.6935 6.5000
" />
<path d="M110.8535 25.3800
L110.8535 26.5114
" />
<path d="M110.8535 26.5114
L110.0849 27.2800
" />
<path d="M110.0849 27.2800
L97.2602 27.2800
" />
<path d="M97.2602 27.2800
L96.2535 26.2733
" />
<path d="M96.2535 26.2733
L96.2535 8.4000
" />
<path d="M96.2535 8.4000
L98.1535 6.5000
" />
<path d="M103.2335 6.5000
L103.2335 20.1530
" />
<path d="M103.2335 20.1530
L98.1535 25.2330
" />
<path d="M98.1535 25.2330
L98.1535 25.3800
" />
<path d="M105.7735 6.5000
L105.7735 20.1530
" />
<path d="M105.7735 20.1530
L100.6935 25.2330
" />
<path d="M100.6935 25.2330
L100.6935 25.3800
" />
<path d="M108.3135 6.5000
L108.3135 20.1530
" />
<path d="M108.3135 20.1530
L103.2335 25.2330
" />
<path d="M103.2335 25.2330
L103.2335 25.3800
" />
<path d="M110.8535 6.5000
L110.8535 20.1530
" />
<path d="M110.8535 20.1530
L105.7735 25.2330
" />
<path d="M105.7735 25.2330
L105.7735 25.3800
" />
<path d="M113.3935 6.5000
L113.3935 20.1530
" />
<path d="M113.3935 20.1530
L108.3135 25.2330
" />
<path d="M108.3135 25.2330
L108.3135 25.3800
" />
<path d="M158.9802 25.4300
L158.9802 22.6072
" />
<path d="M158.9802 22.6072
L160.9302 20.6572
" />
<path d="M160.9302 4.5500
L160.8802 4.5000
" />
<path d="M160.9302 20.6572
L160.9302 4.5500
" />
<path d="M160.8802 4.5000
L147.0781 4.5000
" />
<path d="M147.0781 4.5000
L146.2802 5.2979
" />
<path d="M146.2802 5.2979
L146.2802 6.5000
" />
<path d="M156.4402 25.4300
L156.4402 26.5614
" />
<path d="M156.4402 26.5614
L155.0016 28.0000
" />
<path d="M155.0016 28.0000
L141.9802 28.0000
" />
<path d="M141.9802 28.0000
L139.9802 26.0000
" />
<path d="M139.9802 26.0000
L139.9802 10.2600
" />
<path d="M139.9802 10.2600
L143.7402 6.5000
" />
<path d="M148.8202 6.5000
L148.8202 20.2030
" />
<path d="M148.8202 20.2030
L143.7402 25.2830
" />
<path d="M143.7402 25.2830
L143.7402 25.4300
" />
<path d="M151.3602 6.5000
L151.3602 20.2030
" />
<path d="M151.3602 20.2030
L146.2802 25.2830
" />
<path d="M146.2802 25.2830
L146.2802 25.4300
" />
<path d="M153.9002 6.5000
L153.9002 20.2030
" />
<path d="M153.9002 20.2030
L148.8202 25.2830
" />
<path d="M148.8202 25.2830
L148.8202 25.4300
" />
<path d="M156.4402 6.5000
L156.4402 20.2030
" />
<path d="M156.4402 20.2030
L151.3602 25.2830
" />
<path d="M151.3602 25.2830
L151.3602 25.4300
" />
<path d="M158.9802 6.5000
L158.9802 20.2030
" />
<path d="M158.9802 20.2030
L153.9002 25.2830
" />
<path d="M153.9002 25.2830
L153.9002 25.4300
" />
<path style="fill:#000000; fill-opacity:1.0000; stroke:none;fill-rule:evenodd;"
d="M 105.5235,34.2789
105.3272,34.2263
105.3272,34.2263
105.1211,34.1301
104.9347,33.9997
104.7739,33.8388
104.6434,33.6525
104.6434,33.6525
104.6162,33.5941
104.5700,33.5417
104.5028,33.5225
104.4359,33.5428
104.3914,33.5941
104.3641,33.6527
104.3565,33.6636
104.3341,33.7299
104.3340,33.7348
104.3340,48.7351
104.3537,48.8021
104.3704,48.8228
106.1608,50.6132
106.2221,50.6467
106.2485,50.6495
106.6714,50.6495
106.6714,50.6495
106.7310,50.6559
106.8659,50.7062
106.8659,50.7062
106.9811,50.7925
106.9811,50.7925
107.0673,50.9077
107.0673,50.9077
107.1176,51.0425
107.1240,51.1021
107.1240,51.1021
107.1240,52.6938
107.1437,52.7608
107.1965,52.8066
107.2657,52.8165
107.3292,52.7875
107.3357,52.7815
112.2567,47.8605
112.2902,47.7992
112.2930,47.7728
112.2930,33.7348
112.2733,33.6677
112.2706,33.6636
112.2630,33.6527
112.2359,33.5947
112.1897,33.5423
112.1226,33.5231
112.0557,33.5433
112.0112,33.5947
111.9841,33.6527
111.9841,33.6527
111.8536,33.8391
111.6927,34.0000
111.6927,34.0000
111.5063,34.1306
111.3000,34.2267
111.0802,34.2856
110.9183,34.2998
110.8535,34.3055
110.8535,34.3055
110.8535,34.3055
110.7969,34.3005
110.6268,34.2856
110.4070,34.2267
110.2008,34.1306
110.1899,34.1229
110.1237,34.1006
110.1188,34.1005
109.0483,34.1005
108.9813,34.1202
108.9772,34.1229
108.9663,34.1306
108.7600,34.2267
108.5402,34.2856
108.3783,34.2998
108.3135,34.3055
108.3135,34.3055
108.3135,34.3055
108.2569,34.3005
108.0868,34.2856
107.8670,34.2267
107.6608,34.1306
107.4744,34.0000
107.3135,33.8391
107.1830,33.6527
107.1556,33.5941
107.1095,33.5417
107.0423,33.5225
106.9754,33.5428
106.9309,33.5941
106.9037,33.6525
106.7732,33.8388
106.6124,33.9997
106.4260,34.1301
106.2199,34.2263
106.2199,34.2263
106.0235,34.2789
106.0235,34.2789
106.0235,33.3157
106.0191,33.3201
105.9279,33.3727
105.8262,33.4000
105.7209,33.4000
105.6191,33.3727
105.5279,33.3201
105.5235,33.3157
Z" /> 
<path style="fill:#000000; fill-opacity:1.0000; stroke:none;fill-rule:evenodd;"
d="M 59.9369,34.2789
59.7406,34.2263
59.7405,34.2263
59.5344,34.1301
59.3480,33.9997
59.1872,33.8388
59.0567,33.6525
59.0567,33.6525
59.0295,33.5941
58.9834,33.5417
58.9162,33.5225
58.8493,33.5428
58.8048,33.5941
58.7774,33.6527
58.7698,33.6636
58.7475,33.7299
58.7474,33.7348
58.7474,48.7351
58.7671,48.8021
58.7837,48.8228
60.5741,50.6132
60.6354,50.6467
60.6618,50.6495
61.0847,50.6495
61.0847,50.6495
61.1444,50.6559
61.2792,50.7062
61.2792,50.7062
61.3944,50.7925
61.3944,50.7925
61.4807,50.9077
61.4807,50.9077
61.5310,51.0425
61.5374,51.1021
61.5374,51.1021
61.5374,52.6938
61.5571,52.7608
61.6099,52.8066
61.6790,52.8165
61.7426,52.7875
61.7490,52.7815
66.6700,47.8605
66.7035,47.7992
66.7064,47.7728
66.7064,33.7348
66.6867,33.6677
66.6839,33.6636
66.6763,33.6527
66.6492,33.5947
66.6031,33.5423
66.5359,33.5231
66.4690,33.5433
66.4245,33.5947
66.3974,33.6527
66.3974,33.6527
66.2669,33.8391
66.1060,34.0000
66.1060,34.0000
65.9196,34.1306
65.7134,34.2267
65.4936,34.2856
65.3316,34.2998
65.2669,34.3055
65.2669,34.3055
65.2669,34.3055
65.2102,34.3005
65.0402,34.2856
64.8204,34.2267
64.6141,34.1306
64.6032,34.1229
64.5370,34.1006
64.5321,34.1005
63.4616,34.1005
63.3946,34.1202
63.3905,34.1229
63.3796,34.1306
63.1734,34.2267
62.9536,34.2856
62.7916,34.2998
62.7269,34.3055
62.7269,34.3055
62.7269,34.3055
62.6702,34.3005
62.5002,34.2856
62.2804,34.2267
62.0741,34.1306
61.8877,34.0000
61.7268,33.8391
61.5963,33.6527
61.5690,33.5941
61.5228,33.5417
61.4556,33.5225
61.3887,33.5428
61.3442,33.5941
61.3170,33.6525
61.1865,33.8388
61.0257,33.9997
60.8394,34.1301
60.6332,34.2263
60.6332,34.2263
60.4369,34.2789
60.4369,34.2789
60.4369,33.3157
60.4325,33.3201
60.3413,33.3727
60.2395,33.4000
60.1342,33.4000
60.0325,33.3727
59.9413,33.3201
59.9369,33.3157
Z" /> 
<path style="fill:#000000; fill-opacity:1.0000; stroke:none;fill-rule:evenodd;"
d="M 14.3502,34.2789
14.1539,34.2263
14.1539,34.2263
13.9477,34.1301
13.7614,33.9997
13.6005,33.8388
13.4701,33.6525
13.4701,33.6525
13.4429,33.5941
13.3967,33.5417
13.3295,33.5225
13.2626,33.5428
13.2181,33.5941
13.1908,33.6527
13.1831,33.6636
13.1608,33.7299
13.1607,33.7348
13.1607,48.7351
13.1804,48.8021
13.1970,48.8228
14.9874,50.6132
15.0488,50.6467
15.0751,50.6495
15.4981,50.6495
15.4981,50.6495
15.5577,50.6559
15.6925,50.7062
15.6925,50.7062
15.8077,50.7925
15.8077,50.7925
15.8940,50.9077
15.8940,50.9077
15.9443,51.0425
15.9507,51.1021
15.9507,51.1021
15.9507,52.6938
15.9704,52.7608
16.0232,52.8066
16.0923,52.8165
16.1559,52.7875
16.1624,52.7815
21.0834,47.8605
21.1169,47.7992
21.1197,47.7728
21.1197,33.7348
21.1000,33.6677
21.0973,33.6636
21.0896,33.6527
21.0626,33.5947
21.0164,33.5423
20.9492,33.5231
20.8823,33.5433
20.8378,33.5947
20.8108,33.6527
20.8108,33.6527
20.6802,33.8391
20.5193,34.0000
20.5193,34.0000
20.3329,34.1306
20.1267,34.2267
19.9069,34.2856
19.7450,34.2998
19.6802,34.3055
19.6802,34.3055
19.6802,34.3055
19.6235,34.3005
19.4535,34.2856
19.2337,34.2267
19.0275,34.1306
19.0166,34.1229
18.9503,34.1006
18.9454,34.1005
17.8750,34.1005
17.8079,34.1202
17.8039,34.1229
17.7929,34.1306
17.5867,34.2267
17.3669,34.2856
17.2050,34.2998
17.1402,34.3055
17.1402,34.3055
17.1402,34.3055
17.0835,34.3005
16.9135,34.2856
16.6937,34.2267
16.4875,34.1306
16.3011,34.0000
16.1402,33.8391
16.0096,33.6527
15.9823,33.5941
15.9361,33.5417
15.8689,33.5225
15.8021,33.5428
15.7575,33.5941
15.7303,33.6525
15.5999,33.8388
15.4390,33.9997
15.2527,34.1301
15.0465,34.2263
15.0465,34.2263
14.8502,34.2789
14.8502,34.2789
14.8502,33.3157
14.8458,33.3201
14.7546,33.3727
14.6529,33.4000
14.5475,33.4000
14.4458,33.3727
14.3546,33.3201
14.3502,33.3157
Z" /> 
<path style="fill:#000000; fill-opacity:1.0000; stroke:none;fill-rule:evenodd;"
d="M 151.1102,34.3289
150.9139,34.2763
150.9139,34.2763
150.7077,34.1801
150.5214,34.0497
150.3605,33.8888
150.2301,33.7025
150.2301,33.7025
150.2029,33.6441
150.1567,33.5917
150.0895,33.5725
150.0226,33.5928
149.9781,33.6441
149.9508,33.7027
149.9431,33.7136
149.9208,33.7799
149.9207,33.7848
149.9207,48.7351
149.9404,48.8021
149.9570,48.8228
151.7474,50.6132
151.8088,50.6467
151.8351,50.6495
152.2581,50.6495
152.2581,50.6495
152.3177,50.6559
152.4525,50.7062
152.4525,50.7062
152.5677,50.7925
152.5677,50.7925
152.6540,50.9077
152.6540,50.9077
152.7043,51.0425
152.7107,51.1021
152.7107,51.1021
152.7107,52.4138
152.7304,52.4808
152.7832,52.5266
152.8523,52.5365
152.9159,52.5075
152.9224,52.5015
157.8434,47.5805
157.8769,47.5192
157.8797,47.4928
157.8797,33.7848
157.8600,33.7177
157.8573,33.7136
157.8496,33.7027
157.8263,33.6527
157.8226,33.6447
157.7764,33.5923
157.7092,33.5731
157.6423,33.5933
157.5978,33.6447
157.5890,33.6636
157.5708,33.7027
157.5708,33.7027
157.4402,33.8891
157.2793,34.0500
157.2793,34.0500
157.0929,34.1806
156.8867,34.2767
156.8867,34.2767
156.8867,34.2767
156.8535,34.2856
156.6669,34.3356
156.5050,34.3498
156.4402,34.3555
156.4402,34.3555
156.4402,34.3555
156.3835,34.3505
156.2135,34.3356
155.9937,34.2767
155.7875,34.1806
155.7766,34.1729
155.7103,34.1506
155.7054,34.1505
154.6350,34.1505
154.5679,34.1702
154.5639,34.1729
154.5529,34.1806
154.3467,34.2767
154.3467,34.2767
154.3467,34.2767
154.3135,34.2856
154.1269,34.3356
153.9650,34.3498
153.9002,34.3555
153.9002,34.3555
153.9002,34.3555
153.8435,34.3505
153.6735,34.3356
153.4537,34.2767
153.2475,34.1806
153.0611,34.0500
152.9002,33.8891
152.7696,33.7027
152.7423,33.6441
152.6961,33.5917
152.6289,33.5725
152.5621,33.5928
152.5175,33.6441
152.4903,33.7025
152.3599,33.8888
152.1990,34.0497
152.0127,34.1801
151.8065,34.2763
151.8065,34.2763
151.6102,34.3289
151.6102,34.3289
151.6102,33.3657
151.6058,33.3701
151.5146,33.4227
151.4129,33.4500
151.3075,33.4500
151.2058,33.4227
151.1146,33.3701
151.1102,33.3657
Z" /> 
<path style="fill:#000000; fill-opacity:1.0000; stroke:none;fill-rule:evenodd;"
d="M 0.0372,0.0197
-0.0086,0.0725
-0.0198,0.1240
-0.0198,59.3760
-0.0001,59.4430
0.0527,59.4888
0.1042,59.5000
184.3562,59.5000
184.4232,59.4803
184.4690,59.4275
184.4802,59.3760
184.4802,27.1021
180.8307,27.1021
180.8307,28.8979
180.8307,28.8979
180.8243,28.9575
180.7740,29.0923
180.7740,29.0923
180.6877,29.2075
180.6877,29.2075
180.5725,29.2938
180.5725,29.2938
180.5725,29.2938
180.4406,29.3430
180.3847,29.3849
180.3603,29.4503
180.3751,29.5186
180.3963,29.5469
180.5183,29.6689
180.6538,29.8624
180.6538,29.8624
180.7536,30.0765
180.7536,30.0765
180.8108,30.2900
180.8108,30.2900
179.9132,30.2900
179.9461,30.3470
179.9802,30.4742
179.9802,30.6058
179.9461,30.7330
179.9132,30.7900
180.8108,30.7900
180.7536,31.0035
180.7536,31.0035
180.6538,31.2176
180.5183,31.4111
180.3513,31.5781
180.1578,31.7136
179.9437,31.8134
179.9437,31.8134
179.7302,31.8706
179.7302,30.9730
179.6732,31.0059
179.5460,31.0400
179.4144,31.0400
179.2872,31.0059
179.2302,30.9730
179.2302,31.8706
179.0167,31.8134
179.0167,31.8134
178.8026,31.7136
178.6091,31.5781
178.4421,31.4111
178.3066,31.2176
178.2068,31.0035
178.2068,31.0035
178.1496,30.7900
179.0472,30.7900
179.0143,30.7330
178.9802,30.6058
178.9802,30.4742
179.0143,30.3470
179.0472,30.2900
178.1496,30.2900
178.1496,30.2900
178.2068,30.0765
178.2068,30.0765
178.3066,29.8624
178.3066,29.8624
178.4421,29.6689
178.4421,29.6689
178.5641,29.5469
178.5976,29.4855
178.5926,29.4158
178.5508,29.3599
178.5198,29.3430
178.3879,29.2938
178.2727,29.2075
178.2460,29.1719
178.2297,29.1502
178.1738,29.1083
178.1304,29.1005
164.0036,29.1005
164.0036,29.1005
163.8325,29.0734
163.6678,29.0199
163.5134,28.9412
163.3733,28.8394
162.1736,27.6397
162.1122,27.6062
162.0426,27.6112
161.9982,27.6397
157.5770,32.0609
157.5435,32.1222
157.5407,32.1486
157.5407,32.3152
157.5604,32.3823
157.5631,32.3863
157.5708,32.3973
157.5708,32.3973
157.5978,32.4553
157.6440,32.5077
157.7112,32.5269
157.7781,32.5067
157.8226,32.4553
157.8496,32.3973
157.9802,32.2109
157.9802,32.2109
158.1411,32.0500
158.3275,31.9194
158.3275,31.9194
158.5337,31.8233
158.5337,31.8233
158.7535,31.7644
158.7535,31.7644
158.7535,31.7644
158.7535,31.7644
158.7535,31.7644
158.9802,31.7445
158.9802,31.7445
159.2069,31.7644
159.2069,31.7644
159.4267,31.8233
159.4267,31.8233
159.6329,31.9194
159.6329,31.9194
159.8193,32.0500
159.9802,32.2109
159.9975,32.2355
160.0521,32.2791
160.1216,32.2863
160.1839,32.2548
160.2193,32.1945
160.2223,32.1776
160.2241,32.1609
160.2261,32.1425
160.2337,32.1222
160.2764,32.0077
160.2764,32.0077
160.3627,31.8925
160.3627,31.8925
160.4779,31.8062
160.4779,31.8062
160.6127,31.7559
160.6127,31.7559
160.6723,31.7495
160.6723,31.7495
160.6723,31.7495
160.6723,31.7495
162.3681,31.7495
162.3681,31.7495
162.4277,31.7559
162.5625,31.8062
162.5625,31.8062
162.6777,31.8925
162.6777,31.8925
162.7640,32.0077
162.7640,32.0077
162.8143,32.1425
162.8207,32.2021
162.8207,32.2021
162.8207,33.8979
162.8207,33.8979
162.8143,33.9575
162.7640,34.0923
162.7640,34.0923
162.7640,34.0923
162.6979,34.1806
162.6777,34.2075
162.6704,34.2131
162.6285,34.2690
162.6207,34.3123
162.6207,47.8734
162.6207,48.0466
162.5936,48.2177
162.5401,48.3824
162.4614,48.5368
162.3596,48.6769
154.5471,56.4894
154.4070,56.5912
154.3341,56.6284
154.2527,56.6699
154.2526,56.6699
154.2526,56.6699
154.0879,56.7234
153.9168,56.7505
153.9168,56.7505
148.6194,56.7505
148.6194,56.7505
148.4483,56.7234
148.2836,56.6699
148.1292,56.5912
147.9891,56.4894
145.4408,53.9411
145.3390,53.8010
145.2603,53.6466
145.2068,53.4819
145.1797,53.3108
145.1797,53.1376
145.1797,52.8219
145.1600,52.7549
145.1573,52.7508
145.1118,52.6858
145.0572,52.6422
144.9877,52.6350
144.9253,52.6665
144.9086,52.6858
144.8895,52.7132
144.7787,52.8714
144.6116,53.0385
144.5148,53.1063
144.4180,53.1740
144.4180,53.1740
144.4180,53.1740
144.2039,53.2739
143.9756,53.3351
143.7873,53.3515
143.7402,53.3557
143.7402,53.3557
143.7402,53.3557
143.7010,53.3522
143.5048,53.3351
143.2765,53.2739
143.0624,53.1740
142.8688,53.0385
142.7017,52.8714
142.5662,52.6778
142.4663,52.4637
142.4051,52.2354
142.3845,52.0000
142.4051,51.7646
142.4663,51.5363
142.5662,51.3222
142.5718,51.3142
142.7017,51.1286
142.8688,50.9615
142.8688,50.9615
143.0624,50.8260
143.0624,50.8260
143.1883,50.7672
143.2236,50.7425
145.1434,48.8228
145.1769,48.7614
145.1797,48.7351
145.1797,33.7848
145.1600,33.7177
145.1573,33.7136
145.1496,33.7027
145.1223,33.6441
145.0761,33.5917
145.0089,33.5725
144.9421,33.5928
144.8975,33.6441
144.8703,33.7025
144.7399,33.8888
144.5790,34.0497
144.3927,34.1801
144.1865,34.2763
144.1865,34.2763
143.9902,34.3289
143.9902,34.3289
143.9902,33.3657
143.9858,33.3701
143.8946,33.4227
143.7929,33.4500
143.6875,33.4500
143.5858,33.4227
143.4946,33.3701
143.4902,33.3657
143.4902,34.3289
143.2939,34.2763
143.2939,34.2763
143.0877,34.1801
142.9014,34.0497
142.7405,33.8888
142.6101,33.7025
142.5139,33.4963
142.5139,33.4963
142.4613,33.3000
143.4245,33.3000
143.4201,33.2956
143.3675,33.2044
143.3402,33.1027
143.3402,32.9973
143.3675,32.8956
143.4201,32.8044
143.4245,32.8000
142.4613,32.8000
142.4613,32.8000
142.5139,32.6037
142.5139,32.6037
142.6101,32.3975
142.7405,32.2112
142.9014,32.0503
143.0877,31.9199
143.2939,31.8237
143.4902,31.7711
143.4902,32.7343
143.4946,32.7299
143.5858,32.6773
143.6875,32.6500
143.7929,32.6500
143.8946,32.6773
143.9858,32.7299
143.9902,32.7343
143.9902,31.7711
144.1865,31.8237
144.3927,31.9199
144.5790,32.0503
144.7399,32.2112
144.8703,32.3975
144.8975,32.4559
144.9437,32.5083
145.0109,32.5275
145.0778,32.5072
145.1223,32.4559
145.1456,32.4059
145.1496,32.3973
145.2802,32.2109
145.2802,32.2109
145.4411,32.0500
145.6275,31.9194
145.6275,31.9194
145.8337,31.8233
145.8337,31.8233
146.0535,31.7644
146.0535,31.7644
146.0535,31.7644
146.0535,31.7644
146.0535,31.7644
146.2802,31.7445
146.2802,31.7445
146.5069,31.7644
146.5069,31.7644
146.7267,31.8233
146.7267,31.8233
146.9329,31.9194
146.9329,31.9194
147.1193,32.0500
147.2802,32.2109
147.4108,32.3973
147.4108,32.3973
147.4378,32.4553
147.4840,32.5077
147.5512,32.5269
147.6181,32.5067
147.6626,32.4553
147.6896,32.3973
147.8202,32.2109
147.8202,32.2109
147.9811,32.0500
148.1675,31.9194
148.1675,31.9194
148.3737,31.8233
148.3737,31.8233
148.5935,31.7644
148.5935,31.7644
148.5935,31.7644
148.5935,31.7644
148.5935,31.7644
148.8202,31.7445
148.8202,31.7445
149.0469,31.7644
149.0469,31.7644
149.2667,31.8233
149.2667,31.8233
149.4729,31.9194
149.4729,31.9194
149.6593,32.0500
149.8202,32.2109
149.9403,32.3823
149.9508,32.3973
149.9509,32.3975
149.9781,32.4559
150.0243,32.5083
150.0915,32.5275
150.1583,32.5072
150.2029,32.4559
150.2301,32.3975
150.2301,32.3975
150.3605,32.2112
150.5214,32.0503
150.7077,31.9199
150.9139,31.8237
151.1102,31.7711
151.1102,32.7343
151.1146,32.7299
151.2058,32.6773
151.3075,32.6500
151.4129,32.6500
151.5146,32.6773
151.6058,32.7299
151.6102,32.7343
151.6102,31.7711
151.8065,31.8237
151.9982,31.9131
152.0673,31.9236
152.1310,31.8951
152.1693,31.8366
152.1698,31.7667
152.1383,31.7130
151.5620,31.1368
151.5007,31.1033
151.4744,31.1005
120.4669,31.1005
120.4669,31.1005
120.2958,31.0734
120.1311,31.0199
119.9767,30.9412
119.8366,30.8394
117.1547,28.1575
117.0934,28.1240
117.0237,28.1290
116.9678,28.1709
116.9561,28.1913
116.9556,28.1911
116.9403,28.2212
116.8748,28.3498
116.7729,28.4899
116.7729,28.4899
113.7155,31.5473
113.6820,31.6087
113.6870,31.6784
113.7289,31.7343
113.7711,31.7548
113.8400,31.7733
113.8400,31.7733
114.0463,31.8694
114.0463,31.8694
114.2327,32.0000
114.3936,32.1609
114.4108,32.1855
114.4654,32.2291
114.5349,32.2363
114.5972,32.2048
114.6327,32.1445
114.6357,32.1276
114.6363,32.1222
114.6394,32.0925
114.6470,32.0722
114.6897,31.9577
114.6897,31.9577
114.7760,31.8425
114.7760,31.8425
114.8912,31.7562
114.8912,31.7562
115.0261,31.7059
115.0261,31.7059
115.0857,31.6995
115.0857,31.6995
115.0857,31.6995
115.0857,31.6995
116.7814,31.6995
116.7814,31.6995
116.8410,31.7059
116.9759,31.7562
116.9759,31.7562
117.0911,31.8425
117.0911,31.8425
117.1773,31.9577
117.1773,31.9577
117.2276,32.0925
117.2340,32.1521
117.2340,32.1521
117.2340,33.8479
117.2340,33.8479
117.2276,33.9075
117.1773,34.0423
117.1773,34.0423
117.1773,34.0423
117.1113,34.1306
117.0911,34.1575
117.0837,34.1631
117.0419,34.2190
117.0340,34.2623
117.0340,49.4601
117.0340,49.6333
117.0069,49.8044
116.9534,49.9691
116.8748,50.1235
116.7729,50.2636
110.6696,56.3669
110.5471,56.4894
110.4070,56.5912
110.2526,56.6699
110.0879,56.7234
109.9168,56.7505
109.9168,56.7505
103.0328,56.7505
103.0328,56.7505
102.8617,56.7234
102.6969,56.6699
102.5426,56.5912
102.4024,56.4894
99.8541,53.9411
99.7523,53.8010
99.6737,53.6466
99.6201,53.4819
99.5930,53.3108
99.5930,53.1376
99.5930,52.8219
99.5733,52.7549
99.5706,52.7508
99.5251,52.6858
99.4705,52.6422
99.4010,52.6350
99.3387,52.6665
99.3220,52.6858
99.3028,52.7132
99.1920,52.8714
99.0249,53.0385
98.9282,53.1063
98.8314,53.1740
98.8314,53.1740
98.8314,53.1740
98.6172,53.2739
98.3889,53.3351
98.2006,53.3515
98.1535,53.3557
98.1535,53.3557
98.1535,53.3557
98.1143,53.3522
97.9181,53.3351
97.6899,53.2739
97.4757,53.1740
97.2821,53.0385
97.1150,52.8714
96.9795,52.6778
96.8796,52.4637
96.8185,52.2354
96.7979,52.0000
96.8185,51.7646
96.8796,51.5363
96.9795,51.3222
96.9851,51.3142
97.1150,51.1286
97.2821,50.9615
97.2821,50.9615
97.4757,50.8260
97.4757,50.8260
97.6017,50.7672
97.6370,50.7425
99.5567,48.8228
99.5902,48.7614
99.5930,48.7351
99.5930,33.7348
99.5733,33.6677
99.5706,33.6636
99.5630,33.6527
99.5356,33.5941
99.4895,33.5417
99.4223,33.5225
99.3554,33.5428
99.3109,33.5941
99.2837,33.6525
99.1532,33.8388
98.9924,33.9997
98.8060,34.1301
98.5999,34.2263
98.5999,34.2263
98.4035,34.2789
98.4035,34.2789
98.4035,33.3157
98.3991,33.3201
98.3079,33.3727
98.2062,33.4000
98.1009,33.4000
97.9991,33.3727
97.9079,33.3201
97.9035,33.3157
97.9035,34.2789
97.7072,34.2263
97.7072,34.2263
97.5011,34.1301
97.3147,33.9997
97.1539,33.8388
97.0234,33.6525
96.9273,33.4463
96.9273,33.4463
96.8747,33.2500
97.8378,33.2500
97.8335,33.2456
97.7808,33.1544
97.7535,33.0527
97.7535,32.9473
97.7808,32.8456
97.8335,32.7544
97.8378,32.7500
96.8747,32.7500
96.8747,32.7500
96.9273,32.5537
96.9273,32.5537
97.0234,32.3475
97.1539,32.1612
97.3147,32.0003
97.5011,31.8699
97.7072,31.7737
97.9035,31.7211
97.9035,32.6843
97.9079,32.6799
97.9991,32.6273
98.1009,32.6000
98.2062,32.6000
98.3079,32.6273
98.3991,32.6799
98.4035,32.6843
98.4035,31.7211
98.5999,31.7737
98.8060,31.8699
98.9924,32.0003
99.1532,32.1612
99.2837,32.3475
99.3109,32.4059
99.3571,32.4583
99.4242,32.4775
99.4911,32.4572
99.5356,32.4059
99.5395,32.3975
99.5630,32.3473
99.6935,32.1609
99.6935,32.1609
99.8544,32.0000
100.0408,31.8694
100.0408,31.8694
100.2470,31.7733
100.2470,31.7733
100.4668,31.7144
100.4668,31.7144
100.4668,31.7144
100.4668,31.7144
100.4668,31.7144
100.6935,31.6945
100.6935,31.6945
100.9202,31.7144
100.9202,31.7144
101.1400,31.7733
101.1400,31.7733
101.3463,31.8694
101.3463,31.8694
101.5327,32.0000
101.6936,32.1609
101.8241,32.3473
101.8241,32.3473
101.8329,32.3662
101.8475,32.3975
101.8512,32.4053
101.8973,32.4577
101.9645,32.4769
102.0314,32.4566
102.0759,32.4053
102.0795,32.3975
102.1030,32.3473
102.2335,32.1609
102.2335,32.1609
102.3944,32.0000
102.5808,31.8694
102.5808,31.8694
102.7870,31.7733
102.7870,31.7733
103.0068,31.7144
103.0068,31.7144
103.0068,31.7144
103.0068,31.7144
103.0068,31.7144
103.2335,31.6945
103.2335,31.6945
103.4602,31.7144
103.4602,31.7144
103.6800,31.7733
103.6800,31.7733
103.8863,31.8694
103.8863,31.8694
104.0727,32.0000
104.2336,32.1609
104.3536,32.3323
104.3641,32.3473
104.3875,32.3975
104.3914,32.4059
104.4376,32.4583
104.5048,32.4775
104.5717,32.4572
104.6162,32.4059
104.6434,32.3475
104.6434,32.3475
104.7739,32.1612
104.9347,32.0003
105.1211,31.8699
105.3272,31.7737
105.5235,31.7211
105.5235,32.6843
105.5279,32.6799
105.6191,32.6273
105.7209,32.6000
105.8262,32.6000
105.9279,32.6273
106.0191,32.6799
106.0235,32.6843
106.0235,31.7211
106.2199,31.7737
106.4115,31.8631
106.4806,31.8736
106.5444,31.8451
106.5826,31.7866
106.5832,31.7167
106.5516,31.6630
106.0903,31.2017
105.0254,30.1368
104.9641,30.1033
104.9377,30.1005
73.8803,30.1005
73.8803,30.1005
73.7092,30.0734
73.5444,30.0199
73.3901,29.9412
73.2499,29.8394
71.5680,28.1575
71.5067,28.1240
71.4370,28.1290
71.3811,28.1709
71.3694,28.1913
71.3690,28.1911
71.3536,28.2212
71.2881,28.3498
71.1863,28.4899
71.1863,28.4899
68.1289,31.5473
68.0954,31.6087
68.1004,31.6784
68.1422,31.7343
68.1845,31.7548
68.2534,31.7733
68.2534,31.7733
68.4596,31.8694
68.4596,31.8694
68.6460,32.0000
68.8069,32.1609
68.8241,32.1855
68.8787,32.2291
68.9482,32.2363
69.0106,32.2048
69.0460,32.1445
69.0490,32.1276
69.0496,32.1222
69.0528,32.0925
69.0603,32.0722
69.1031,31.9577
69.1031,31.9577
69.1893,31.8425
69.1893,31.8425
69.3045,31.7562
69.3045,31.7562
69.4394,31.7059
69.4394,31.7059
69.4990,31.6995
69.4990,31.6995
69.4990,31.6995
69.4990,31.6995
71.1947,31.6995
71.1947,31.6995
71.2544,31.7059
71.3892,31.7562
71.3892,31.7562
71.5044,31.8425
71.5044,31.8425
71.5907,31.9577
71.5907,31.9577
71.6410,32.0925
71.6474,32.1521
71.6474,32.1521
71.6474,33.8479
71.6474,33.8479
71.6410,33.9075
71.5907,34.0423
71.5907,34.0423
71.5907,34.0423
71.5246,34.1306
71.5044,34.1575
71.4971,34.1631
71.4552,34.2190
71.4474,34.2623
71.4474,48.0576
71.4474,48.2308
71.4203,48.4019
71.3667,48.5666
71.2881,48.7210
71.1863,48.8611
63.5580,56.4894
63.4178,56.5912
63.2635,56.6699
63.0987,56.7234
62.9276,56.7505
62.9276,56.7505
57.4461,56.7505
57.4461,56.7505
57.2750,56.7234
57.1103,56.6699
56.9559,56.5912
56.8158,56.4894
54.2675,53.9411
54.1656,53.8010
54.0870,53.6466
54.0335,53.4819
54.0064,53.3108
54.0064,53.1376
54.0064,52.8219
53.9867,52.7549
53.9839,52.7508
53.9384,52.6858
53.8839,52.6422
53.8144,52.6350
53.7520,52.6665
53.7353,52.6858
53.7162,52.7132
53.6054,52.8714
53.4383,53.0385
53.3415,53.1063
53.2447,53.1740
53.2447,53.1740
53.2447,53.1740
53.0305,53.2739
52.8023,53.3351
52.6139,53.3515
52.5669,53.3557
52.5669,53.3557
52.5669,53.3557
52.5276,53.3522
52.3315,53.3351
52.1032,53.2739
51.8890,53.1740
51.6955,53.0385
51.5284,52.8714
51.3928,52.6778
51.2930,52.4637
51.2318,52.2354
51.2112,52.0000
51.2318,51.7646
51.2930,51.5363
51.3928,51.3222
51.3984,51.3142
51.5284,51.1286
51.6955,50.9615
51.6955,50.9615
51.8890,50.8260
51.8890,50.8260
52.0150,50.7672
52.0503,50.7425
53.9700,48.8228
54.0035,48.7614
54.0064,48.7351
54.0064,33.7348
53.9867,33.6677
53.9839,33.6636
53.9763,33.6527
53.9490,33.5941
53.9028,33.5417
53.8356,33.5225
53.7687,33.5428
53.7242,33.5941
53.6970,33.6525
53.5665,33.8388
53.4057,33.9997
53.2194,34.1301
53.0132,34.2263
53.0132,34.2263
52.8169,34.2789
52.8169,34.2789
52.8169,33.3157
52.8125,33.3201
52.7213,33.3727
52.6195,33.4000
52.5142,33.4000
52.4125,33.3727
52.3213,33.3201
52.3169,33.3157
52.3169,34.2789
52.1206,34.2263
52.1205,34.2263
51.9144,34.1301
51.7280,33.9997
51.5672,33.8388
51.4367,33.6525
51.3406,33.4463
51.3406,33.4463
51.2880,33.2500
52.2512,33.2500
52.2468,33.2456
52.1941,33.1544
52.1669,33.0527
52.1669,32.9473
52.1941,32.8456
52.2468,32.7544
52.2512,32.7500
51.2880,32.7500
51.2880,32.7500
51.3406,32.5537
51.3406,32.5537
51.4367,32.3475
51.5672,32.1612
51.7280,32.0003
51.9144,31.8699
52.1205,31.7737
52.3169,31.7211
52.3169,32.6843
52.3213,32.6799
52.4125,32.6273
52.5142,32.6000
52.6195,32.6000
52.7213,32.6273
52.8125,32.6799
52.8169,32.6843
52.8169,31.7211
53.0132,31.7737
53.2194,31.8699
53.4057,32.0003
53.5665,32.1612
53.6970,32.3475
53.7242,32.4059
53.7704,32.4583
53.8376,32.4775
53.9045,32.4572
53.9490,32.4059
53.9529,32.3975
53.9763,32.3473
54.1068,32.1609
54.1068,32.1609
54.2677,32.0000
54.4541,31.8694
54.4541,31.8694
54.6604,31.7733
54.6604,31.7733
54.8802,31.7144
54.8802,31.7144
54.8802,31.7144
54.8802,31.7144
54.8802,31.7144
55.1069,31.6945
55.1069,31.6945
55.3336,31.7144
55.3336,31.7144
55.5534,31.7733
55.5534,31.7733
55.7596,31.8694
55.7596,31.8694
55.9460,32.0000
56.1069,32.1609
56.2374,32.3473
56.2374,32.3473
56.2463,32.3662
56.2609,32.3975
56.2645,32.4053
56.3107,32.4577
56.3779,32.4769
56.4447,32.4566
56.4892,32.4053
56.4929,32.3975
56.5163,32.3473
56.6468,32.1609
56.6468,32.1609
56.8077,32.0000
56.9941,31.8694
56.9941,31.8694
57.2004,31.7733
57.2004,31.7733
57.4202,31.7144
57.4202,31.7144
57.4202,31.7144
57.4202,31.7144
57.4202,31.7144
57.6469,31.6945
57.6469,31.6945
57.8736,31.7144
57.8736,31.7144
58.0934,31.7733
58.0934,31.7733
58.2996,31.8694
58.2996,31.8694
58.4860,32.0000
58.6469,32.1609
58.7669,32.3323
58.7774,32.3473
58.8009,32.3975
58.8048,32.4059
58.8509,32.4583
58.9181,32.4775
58.9850,32.4572
59.0295,32.4059
59.0567,32.3475
59.0567,32.3475
59.1872,32.1612
59.3480,32.0003
59.5344,31.8699
59.7405,31.7737
59.9369,31.7211
59.9369,32.6843
59.9413,32.6799
60.0325,32.6273
60.1342,32.6000
60.2395,32.6000
60.3413,32.6273
60.4325,32.6799
60.4369,32.6843
60.4369,31.7211
60.6332,31.7737
60.8249,31.8631
60.8939,31.8736
60.9577,31.8451
60.9960,31.7866
60.9965,31.7167
60.9649,31.6630
60.5937,31.2918
59.6387,30.3368
59.5774,30.3033
59.5510,30.3005
28.4936,30.3005
28.4936,30.3005
28.3225,30.2734
28.1578,30.2199
28.0034,30.1412
27.8633,30.0394
25.4136,27.5897
25.3522,27.5562
25.2826,27.5612
25.2382,27.5897
20.8170,32.0109
20.7835,32.0722
20.7807,32.0986
20.7807,32.2652
20.8004,32.3323
20.8031,32.3363
20.8108,32.3473
20.8108,32.3473
20.8196,32.3662
20.8342,32.3975
20.8378,32.4053
20.8840,32.4577
20.9512,32.4769
21.0181,32.4566
21.0626,32.4053
21.0662,32.3975
21.0896,32.3473
21.2202,32.1609
21.2202,32.1609
21.3811,32.0000
21.5675,31.8694
21.5675,31.8694
21.7737,31.7733
21.7737,31.7733
21.9935,31.7144
21.9935,31.7144
21.9935,31.7144
21.9935,31.7144
21.9935,31.7144
22.2202,31.6945
22.2202,31.6945
22.4469,31.7144
22.4469,31.7144
22.6667,31.7733
22.6667,31.7733
22.8729,31.8694
22.8729,31.8694
23.0593,32.0000
23.2202,32.1609
23.2375,32.1855
23.2921,32.2291
23.3616,32.2363
23.4239,32.2048
23.4593,32.1445
23.4623,32.1276
23.4629,32.1222
23.4661,32.0925
23.4737,32.0722
23.5164,31.9577
23.5164,31.9577
23.6027,31.8425
23.6027,31.8425
23.7179,31.7562
23.7179,31.7562
23.8527,31.7059
23.8527,31.7059
23.9123,31.6995
23.9123,31.6995
23.9123,31.6995
23.9123,31.6995
25.6081,31.6995
25.6081,31.6995
25.6677,31.7059
25.8025,31.7562
25.8025,31.7562
25.9177,31.8425
25.9177,31.8425
26.0040,31.9577
26.0040,31.9577
26.0543,32.0925
26.0607,32.1521
26.0607,32.1521
26.0607,33.8479
26.0607,33.8479
26.0543,33.9075
26.0040,34.0423
26.0040,34.0423
26.0040,34.0423
25.9379,34.1306
25.9177,34.1575
25.9104,34.1631
25.8685,34.2190
25.8607,34.2623
25.8607,48.0576
25.8607,48.2308
25.8336,48.4019
25.7801,48.5666
25.7014,48.7210
25.5996,48.8611
17.9713,56.4894
17.8312,56.5912
17.6768,56.6699
17.5121,56.7234
17.3410,56.7505
17.3410,56.7505
11.8594,56.7505
11.8594,56.7505
11.6883,56.7234
11.5236,56.6699
11.3692,56.5912
11.2291,56.4894
8.6808,53.9411
8.5790,53.8010
8.5003,53.6466
8.4468,53.4819
8.4197,53.3108
8.4197,53.1376
8.4197,52.8219
8.4000,52.7549
8.3973,52.7508
8.3518,52.6858
8.2972,52.6422
8.2277,52.6350
8.1653,52.6665
8.1486,52.6858
8.1295,52.7132
8.0187,52.8714
7.8516,53.0385
7.7548,53.1063
7.6580,53.1740
7.6580,53.1740
7.6580,53.1740
7.4439,53.2739
7.2156,53.3351
7.0273,53.3515
6.9802,53.3557
6.9802,53.3557
6.9802,53.3557
6.9410,53.3522
6.7448,53.3351
6.5165,53.2739
6.3024,53.1740
6.1088,53.0385
5.9417,52.8714
5.8062,52.6778
5.7063,52.4637
5.6451,52.2354
5.6245,52.0000
5.6451,51.7646
5.7063,51.5363
5.8062,51.3222
5.8118,51.3142
5.9417,51.1286
6.1088,50.9615
6.1088,50.9615
6.3024,50.8260
6.3024,50.8260
6.4283,50.7672
6.4636,50.7425
8.3834,48.8228
8.4169,48.7614
8.4197,48.7351
8.4197,33.7348
8.4000,33.6677
8.3973,33.6636
8.3896,33.6527
8.3623,33.5941
8.3161,33.5417
8.2489,33.5225
8.1821,33.5428
8.1375,33.5941
8.1103,33.6525
7.9799,33.8388
7.8190,33.9997
7.6327,34.1301
7.4265,34.2263
7.4265,34.2263
7.2302,34.2789
7.2302,34.2789
7.2302,33.3157
7.2258,33.3201
7.1346,33.3727
7.0329,33.4000
6.9275,33.4000
6.8258,33.3727
6.7346,33.3201
6.7302,33.3157
6.7302,34.2789
6.5339,34.2263
6.5339,34.2263
6.3277,34.1301
6.1414,33.9997
5.9805,33.8388
5.8501,33.6525
5.7539,33.4463
5.7539,33.4463
5.7013,33.2500
6.6645,33.2500
6.6601,33.2456
6.6075,33.1544
6.5802,33.0527
6.5802,32.9473
6.6075,32.8456
6.6601,32.7544
6.6645,32.7500
5.7013,32.7500
5.7013,32.7500
5.7539,32.5537
5.7539,32.5537
5.8501,32.3475
5.9805,32.1612
6.1414,32.0003
6.3277,31.8699
6.5339,31.7737
6.7302,31.7211
6.7302,32.6843
6.7346,32.6799
6.8258,32.6273
6.9275,32.6000
7.0329,32.6000
7.1346,32.6273
7.2258,32.6799
7.2302,32.6843
7.2302,31.7211
7.4265,31.7737
7.6327,31.8699
7.8190,32.0003
7.9799,32.1612
8.1103,32.3475
8.1375,32.4059
8.1837,32.4583
8.2509,32.4775
8.3178,32.4572
8.3623,32.4059
8.3662,32.3975
8.3896,32.3473
8.5202,32.1609
8.5202,32.1609
8.6811,32.0000
8.8675,31.8694
8.8675,31.8694
9.0737,31.7733
9.0737,31.7733
9.2935,31.7144
9.2935,31.7144
9.2935,31.7144
9.2935,31.7144
9.2935,31.7144
9.5202,31.6945
9.5202,31.6945
9.7469,31.7144
9.7469,31.7144
9.9667,31.7733
9.9667,31.7733
10.1729,31.8694
10.1729,31.8694
10.3593,32.0000
10.5202,32.1609
10.6508,32.3473
10.6508,32.3473
10.6596,32.3662
10.6742,32.3975
10.6778,32.4053
10.7240,32.4577
10.7912,32.4769
10.8581,32.4566
10.9026,32.4053
10.9062,32.3975
10.9296,32.3473
11.0602,32.1609
11.0602,32.1609
11.2211,32.0000
11.4075,31.8694
11.4075,31.8694
11.6137,31.7733
11.6137,31.7733
11.8335,31.7144
11.8335,31.7144
11.8335,31.7144
11.8335,31.7144
11.8335,31.7144
12.0602,31.6945
12.0602,31.6945
12.2869,31.7144
12.2869,31.7144
12.5067,31.7733
12.5067,31.7733
12.7129,31.8694
12.7129,31.8694
12.8993,32.0000
13.0602,32.1609
13.1803,32.3323
13.1908,32.3473
13.2142,32.3975
13.2181,32.4059
13.2643,32.4583
13.3315,32.4775
13.3983,32.4572
13.4429,32.4059
13.4701,32.3475
13.4701,32.3475
13.6005,32.1612
13.7614,32.0003
13.9477,31.8699
14.1539,31.7737
14.3502,31.7211
14.3502,32.6843
14.3546,32.6799
14.4458,32.6273
14.5475,32.6000
14.6529,32.6000
14.7546,32.6273
14.8458,32.6799
14.8502,32.6843
14.8502,31.7211
15.0465,31.7737
15.2527,31.8699
15.4390,32.0003
15.5999,32.1612
15.7303,32.3475
15.7575,32.4059
15.8037,32.4583
15.8709,32.4775
15.9378,32.4572
15.9823,32.4059
15.9862,32.3975
16.0096,32.3473
16.1402,32.1609
16.1402,32.1609
16.3011,32.0000
16.4875,31.8694
16.4875,31.8694
16.6937,31.7733
16.6937,31.7733
16.9135,31.7144
16.9135,31.7144
16.9135,31.7144
16.9135,31.7144
16.9135,31.7144
17.1402,31.6945
17.1402,31.6945
17.3669,31.7144
17.3669,31.7144
17.5867,31.7733
17.5867,31.7733
17.7929,31.8694
17.7929,31.8694
17.8038,31.8771
17.8701,31.8994
17.8750,31.8995
18.4557,31.8995
18.5227,31.8798
18.5685,31.8270
18.5797,31.7755
18.5797,31.5048
18.5945,31.4111
18.6068,31.3337
18.6603,31.1689
18.7390,31.0146
18.8408,30.8744
18.9633,30.7520
22.9972,26.7180
23.0307,26.6567
23.0257,26.5870
22.9839,26.5310
22.9184,26.5066
22.8572,26.5179
22.6667,26.6067
22.4469,26.6656
22.2850,26.6798
22.2202,26.6855
22.2202,26.6855
22.2202,26.6855
22.1635,26.6805
21.9935,26.6656
21.7737,26.6067
21.5675,26.5106
21.3811,26.3800
21.2202,26.2191
21.0896,26.0327
21.0626,25.9747
21.0164,25.9223
20.9492,25.9031
20.8823,25.9233
20.8378,25.9747
20.8108,26.0327
20.8031,26.0436
20.7808,26.1099
20.7807,26.1148
20.7807,26.4248
20.7807,26.5980
20.7745,26.6370
20.7538,26.7680
20.7536,26.7691
20.7001,26.9338
20.6214,27.0882
20.5196,27.2283
19.5310,28.2169
19.4085,28.3394
19.2684,28.4412
19.1140,28.5199
18.9493,28.5734
18.7782,28.6005
18.7782,28.6005
5.8936,28.6005
5.8936,28.6005
5.7225,28.5734
5.5578,28.5199
5.4034,28.4412
5.2633,28.3394
4.2408,27.3169
4.1390,27.1768
4.0603,27.0224
4.0068,26.8577
3.9797,26.6866
3.9797,26.5134
3.9797,8.3134
4.0068,8.1423
4.0603,7.9776
4.1390,7.8232
4.2408,7.6831
4.3633,7.5606
5.6165,6.3074
5.6486,6.2518
5.7063,6.0363
5.8062,5.8222
5.8118,5.8142
5.9417,5.6286
6.1088,5.4615
6.1088,5.4615
6.3024,5.3260
6.3024,5.3260
6.3079,5.3234
6.5165,5.2261
6.5165,5.2261
6.5165,5.2261
6.7448,5.1649
6.7448,5.1649
6.9802,5.1443
6.9802,5.1443
7.2156,5.1649
7.2156,5.1649
7.4439,5.2261
7.4439,5.2261
7.6580,5.3260
7.6580,5.3260
7.8516,5.4615
8.0187,5.6286
8.1486,5.8142
8.2032,5.8578
8.2727,5.8650
8.3351,5.8335
8.3518,5.8142
8.3518,5.8142
8.3973,5.7492
8.4250,5.7095
8.4459,5.6578
8.4468,5.6523
8.4468,5.6523
8.4562,5.6234
8.5003,5.4876
8.5003,5.4876
8.5003,5.4875
8.5790,5.3332
8.5842,5.3260
8.6808,5.1931
10.1633,3.7106
10.3034,3.6088
10.4578,3.5301
10.6225,3.4766
10.6225,3.4766
10.6225,3.4766
10.7539,3.4558
10.7936,3.4495
24.0836,3.4495
24.2568,3.4495
24.2965,3.4558
24.4279,3.4766
24.5926,3.5301
24.7470,3.6088
24.8183,3.6606
24.8871,3.7106
24.8871,3.7106
24.8871,3.7106
25.0096,3.8331
25.0096,3.8331
25.0096,3.8331
25.0533,3.8933
25.1114,3.9732
25.1901,4.1276
25.2436,4.2923
25.2699,4.4585
25.2707,4.4634
25.2707,20.5205
25.2707,20.6938
25.2436,20.8649
25.1901,21.0296
25.1114,21.1839
25.0096,21.3241
25.0096,21.3241
23.3570,22.9767
23.3235,23.0380
23.3207,23.0644
23.3207,24.6452
23.3404,24.7123
23.3431,24.7163
23.3508,24.7273
23.3508,24.7273
23.3671,24.7623
23.3741,24.7773
23.3778,24.7853
23.4240,24.8377
23.4912,24.8569
23.5581,24.8366
23.6026,24.7853
23.6063,24.7773
23.6296,24.7273
23.7602,24.5409
23.7602,24.5409
23.9211,24.3800
24.1075,24.2494
24.1075,24.2494
24.3137,24.1533
24.3137,24.1533
24.5335,24.0944
24.5335,24.0944
24.5335,24.0944
24.5335,24.0944
24.5335,24.0944
24.7602,24.0745
24.7602,24.0745
24.9869,24.0944
24.9869,24.0944
25.2067,24.1533
25.2067,24.1533
25.4129,24.2494
25.4129,24.2494
25.5993,24.3800
25.7602,24.5409
25.8908,24.7273
25.8908,24.7273
25.9869,24.9335
26.0211,25.0611
26.0532,25.1167
28.9997,28.0632
29.0610,28.0967
29.0874,28.0995
50.7437,28.0995
50.8107,28.0798
50.8565,28.0270
50.8664,27.9579
50.8374,27.8943
50.8313,27.8878
50.4455,27.5020
49.8275,26.8839
49.7256,26.7438
49.6470,26.5895
49.5935,26.4247
49.5664,26.2536
49.5664,26.0804
49.5664,8.3134
49.5935,8.1423
49.6470,7.9776
49.7256,7.8232
49.8275,7.6831
49.9499,7.5606
51.2031,6.3074
51.2352,6.2518
51.2930,6.0363
51.3928,5.8222
51.3984,5.8142
51.5284,5.6286
51.6955,5.4615
51.6955,5.4615
51.8890,5.3260
51.8890,5.3260
51.8946,5.3234
52.1032,5.2261
52.1032,5.2261
52.1032,5.2261
52.3315,5.1649
52.3315,5.1649
52.5669,5.1443
52.5669,5.1443
52.8023,5.1649
52.8023,5.1649
53.0305,5.2261
53.0305,5.2261
53.2447,5.3260
53.2447,5.3260
53.4383,5.4615
53.6054,5.6286
53.7353,5.8142
53.7899,5.8578
53.8594,5.8650
53.9217,5.8335
53.9384,5.8142
53.9579,5.7863
53.9839,5.7492
54.0063,5.6830
54.0064,5.6781
54.0064,5.3234
54.0335,5.1523
54.0870,4.9876
54.1656,4.8332
54.2675,4.6931
54.3899,4.5706
55.2499,3.7106
55.3901,3.6088
55.5444,3.5301
55.7092,3.4766
55.7092,3.4766
55.7092,3.4766
55.8406,3.4558
55.8803,3.4495
69.6703,3.4495
69.8435,3.4495
69.8831,3.4558
70.0146,3.4766
70.1793,3.5301
70.3337,3.6088
70.4050,3.6606
70.4738,3.7106
70.4738,3.7106
70.4738,3.7106
70.5963,3.8331
70.5963,3.8331
70.5963,3.8331
70.6400,3.8933
70.6981,3.9732
70.7767,4.1276
70.8303,4.2923
70.8566,4.4585
70.8574,4.4634
70.8574,20.5205
70.8574,20.6938
70.8303,20.8649
70.7767,21.0296
70.6981,21.1839
70.5963,21.3241
70.5963,21.3241
68.9437,22.9767
68.9102,23.0380
68.9074,23.0644
68.9074,24.6452
68.9271,24.7123
68.9298,24.7163
68.9374,24.7273
68.9374,24.7273
68.9538,24.7623
68.9608,24.7773
68.9645,24.7853
69.0107,24.8377
69.0779,24.8569
69.1447,24.8366
69.1893,24.7853
69.1930,24.7773
69.2163,24.7273
69.3468,24.5409
69.3468,24.5409
69.5077,24.3800
69.6941,24.2494
69.6941,24.2494
69.9004,24.1533
69.9004,24.1533
70.1202,24.0944
70.1202,24.0944
70.1202,24.0944
70.1202,24.0944
70.1202,24.0944
70.3469,24.0745
70.3469,24.0745
70.5736,24.0944
70.5736,24.0944
70.7934,24.1533
70.7934,24.1533
70.9996,24.2494
70.9996,24.2494
71.1860,24.3800
71.3469,24.5409
71.4774,24.7273
71.4774,24.7273
71.5736,24.9335
71.6078,25.0611
71.6399,25.1167
74.3864,27.8632
74.4477,27.8967
74.4741,27.8995
96.0240,27.8995
96.0910,27.8798
96.1368,27.8270
96.1467,27.7579
96.1177,27.6943
96.1117,27.6878
95.7773,27.3535
95.4141,26.9903
95.3123,26.8501
95.2337,26.6958
95.1801,26.5310
95.1641,26.4300
95.1530,26.3599
95.1530,8.3134
95.1801,8.1423
95.1801,8.1423
95.2337,7.9776
95.3123,7.8232
95.4141,7.6831
95.5366,7.5606
96.7898,6.3074
96.8219,6.2518
96.8796,6.0363
96.9795,5.8222
96.9851,5.8142
97.1150,5.6286
97.2821,5.4615
97.2821,5.4615
97.4757,5.3260
97.4757,5.3260
97.4812,5.3234
97.6899,5.2261
97.6899,5.2261
97.6899,5.2261
97.9181,5.1649
97.9181,5.1649
98.1535,5.1443
98.1535,5.1443
98.3889,5.1649
98.3889,5.1649
98.6172,5.2261
98.6172,5.2261
98.8314,5.3260
98.8314,5.3260
99.0249,5.4615
99.1920,5.6286
99.3220,5.8142
99.3765,5.8578
99.4460,5.8650
99.5084,5.8335
99.5251,5.8142
99.5251,5.8142
99.5706,5.7492
99.5984,5.7095
99.6193,5.6578
99.6201,5.6523
99.6201,5.6523
99.6295,5.6234
99.6737,5.4876
99.6737,5.4876
99.6737,5.4875
99.7523,5.3332
99.7576,5.3260
99.8541,5.1931
101.3366,3.7106
101.4767,3.6088
101.6311,3.5301
101.7958,3.4766
101.7958,3.4766
101.7958,3.4766
101.9273,3.4558
101.9669,3.4495
115.2569,3.4495
115.4301,3.4495
115.4698,3.4558
115.6012,3.4766
115.7660,3.5301
115.9203,3.6088
115.9916,3.6606
116.0605,3.7106
116.0605,3.7106
116.0605,3.7106
116.1829,3.8331
116.1829,3.8331
116.1829,3.8331
116.2267,3.8933
116.2848,3.9732
116.3634,4.1276
116.4169,4.2923
116.4433,4.4585
116.4440,4.4634
116.4440,20.5205
116.4440,20.6938
116.4169,20.8649
116.3634,21.0296
116.2848,21.1839
116.1829,21.3241
116.1829,21.3241
114.5304,22.9767
114.4969,23.0380
114.4940,23.0644
114.4940,24.6452
114.5137,24.7123
114.5164,24.7163
114.5241,24.7273
114.5241,24.7273
114.5404,24.7623
114.5474,24.7773
114.5512,24.7853
114.5973,24.8377
114.6645,24.8569
114.7314,24.8366
114.7759,24.7853
114.7796,24.7773
114.8030,24.7273
114.9335,24.5409
114.9335,24.5409
115.0944,24.3800
115.2808,24.2494
115.2808,24.2494
115.4870,24.1533
115.4870,24.1533
115.7068,24.0944
115.7068,24.0944
115.7068,24.0944
115.7068,24.0944
115.7068,24.0944
115.9335,24.0745
115.9335,24.0745
116.1602,24.0944
116.1602,24.0944
116.3800,24.1533
116.3800,24.1533
116.5863,24.2494
116.5863,24.2494
116.7727,24.3800
116.9336,24.5409
117.0641,24.7273
117.0641,24.7273
117.1603,24.9335
117.1945,25.0611
117.2266,25.1167
120.9731,28.8632
121.0344,28.8967
121.0607,28.8995
141.0240,28.8995
141.0910,28.8798
141.1368,28.8270
141.1467,28.7579
141.1177,28.6943
141.1117,28.6878
140.1817,27.7579
139.1408,26.7169
139.0390,26.5768
138.9603,26.4224
138.9068,26.2577
138.8797,26.0866
138.8797,25.9134
138.8797,10.1734
138.9068,10.0023
138.9603,9.8376
139.0390,9.6832
139.1408,9.5431
139.2633,9.4206
142.3765,6.3074
142.4086,6.2518
142.4663,6.0363
142.5662,5.8222
142.5718,5.8142
142.7017,5.6286
142.8688,5.4615
142.8688,5.4615
143.0624,5.3260
143.0624,5.3260
143.0679,5.3234
143.2765,5.2261
143.2765,5.2261
143.2765,5.2261
143.5048,5.1649
143.5048,5.1649
143.7402,5.1443
143.7402,5.1443
143.9756,5.1649
143.9756,5.1649
144.2039,5.2261
144.2039,5.2261
144.4180,5.3260
144.4180,5.3260
144.6116,5.4615
144.7787,5.6286
144.9086,5.8142
144.9632,5.8578
145.0327,5.8650
145.0951,5.8335
145.1118,5.8142
145.1313,5.7863
145.1573,5.7492
145.1796,5.6830
145.1797,5.6781
145.1797,5.2113
145.1870,5.1649
145.2068,5.0402
145.2603,4.8755
145.3390,4.7211
145.4408,4.5810
145.5633,4.4585
146.3612,3.6606
146.5013,3.5588
146.6557,3.4801
146.8204,3.4266
146.8204,3.4266
146.8204,3.4266
146.9518,3.4058
146.9915,3.3995
160.9668,3.3995
161.0065,3.4058
161.1379,3.4266
161.3026,3.4801
161.4570,3.5588
161.5258,3.6088
161.5971,3.6606
161.5971,3.6606
161.5971,3.6606
161.7696,3.8331
161.7696,3.8331
161.7696,3.8331
161.8133,3.8933
161.8714,3.9732
161.9501,4.1276
162.0036,4.2923
162.0299,4.4585
162.0307,4.4634
162.0307,20.5705
162.0307,20.7438
162.0036,20.9149
161.9501,21.0796
161.8714,21.2339
161.7696,21.3741
161.7696,21.3741
160.1170,23.0267
160.0835,23.0880
160.0807,23.1144
160.0807,24.6952
160.1004,24.7623
160.1031,24.7663
160.1108,24.7773
160.1108,24.7773
160.1378,24.8353
160.1840,24.8877
160.2512,24.9069
160.3181,24.8866
160.3626,24.8353
160.3896,24.7773
160.5202,24.5909
160.5202,24.5909
160.6811,24.4300
160.8675,24.2994
160.8675,24.2994
161.0737,24.2033
161.0737,24.2033
161.2935,24.1444
161.2935,24.1444
161.2935,24.1444
161.2935,24.1444
161.2935,24.1444
161.5202,24.1245
161.5202,24.1245
161.7469,24.1444
161.7469,24.1444
161.9667,24.2033
161.9667,24.2033
162.1729,24.2994
162.1729,24.2994
162.3593,24.4300
162.5202,24.5909
162.6508,24.7773
162.6508,24.7773
162.7469,24.9835
162.7811,25.1111
162.8132,25.1667
164.5097,26.8632
164.5710,26.8967
164.5974,26.8995
178.1304,26.8995
178.1975,26.8798
178.2297,26.8498
178.2727,26.7925
178.2727,26.7925
178.3039,26.7691
178.3879,26.7062
178.3879,26.7062
178.5227,26.6559
178.5227,26.6559
178.5823,26.6495
178.5823,26.6495
178.5823,26.6495
178.5823,26.6495
180.3781,26.6495
180.3781,26.6495
180.4377,26.6559
180.5725,26.7062
180.5725,26.7062
180.6877,26.7925
180.6877,26.7925
180.7740,26.9077
180.7740,26.9077
180.8243,27.0425
180.8307,27.1021
180.8307,27.1021
184.4802,27.1021
184.4802,0.1240
184.4605,0.0570
184.4077,0.0112
184.3562,0.0000
0.1042,0.0000
Z" /> 
</g>
<g style="fill:#FFFFFF; fill-opacity:1.0000; stroke:none;">
<circle cx="60.1869" cy="52.0000" r="0.5000" /> 
</g>
<g style="fill:#FFFFFF; fill-opacity:1.0000; stroke:none;">
<circle cx="57.6469" cy="52.0000" r="0.5000" /> 
</g>
<g style="fill:#FFFFFF; fill-opacity:1.0000; stroke:none;">
<circle cx="55.1069" cy="52.0000" r="0.5000" /> 
</g>
<g style="fill:#FFFFFF; fill-opacity:1.0000; stroke:none;">
<circle cx="52.5669" cy="52.0000" r="0.5000" /> 
</g>
<g style="fill:#FFFFFF; fill-opacity:1.0000; stroke:none;">
<circle cx="143.7402" cy="6.5000" r="0.5000" /> 
</g>
<g style="fill:#FFFFFF; fill-opacity:1.0000; stroke:none;">
<circle cx="146.2802" cy="6.5000" r="0.5000" /> 
</g>
<g style="fill:#FFFFFF; fill-opacity:1.0000; stroke:none;">
<circle cx="148.8202" cy="6.5000" r="0.5000" /> 
</g>
<g style="fill:#FFFFFF; fill-opacity:1.0000; stroke:none;">
<circle cx="151.3602" cy="6.5000" r="0.5000" /> 
</g>
<g style="fill:#FFFFFF; fill-opacity:1.0000; stroke:none;">
<circle cx="153.9002" cy="6.5000" r="0.5000" /> 
</g>
<g style="fill:#FFFFFF; fill-opacity:1.0000; stroke:none;">
<circle cx="156.4402" cy="6.5000" r="0.5000" /> 
</g>
<g style="fill:#FFFFFF; fill-opacity:1.0000; stroke:none;">
<circle cx="158.9802" cy="6.5000" r="0.5000" /> 
</g>
<g style="fill:#FFFFFF; fill-opacity:1.0000; stroke:none;">
<circle cx="24.7602" cy="33.0000" r="0.4000" /> 
</g>
<g style="fill:#FFFFFF; fill-opacity:1.0000; stroke:none;">
<circle cx="22.2202" cy="33.0000" r="0.4000" /> 
</g>
<g style="fill:#FFFFFF; fill-opacity:1.0000; stroke:none;">
<circle cx="19.6802" cy="33.0000" r="0.4000" /> 
</g>
<g style="fill:#FFFFFF; fill-opacity:1.0000; stroke:none;">
<circle cx="17.1402" cy="33.0000" r="0.4000" /> 
</g>
<g style="fill:#FFFFFF; fill-opacity:1.0000; stroke:none;">
<circle cx="14.6002" cy="33.0000" r="0.4000" /> 
</g>
<g style="fill:#FFFFFF; fill-opacity:1.0000; stroke:none;">
<circle cx="12.0602" cy="33.0000" r="0.4000" /> 
</g>
<g style="fill:#FFFFFF; fill-opacity:1.0000; stroke:none;">
<circle cx="9.5202" cy="33.0000" r="0.4000" /> 
</g>
<g style="fill:#FFFFFF; fill-opacity:1.0000; stroke:none;">
<circle cx="6.9802" cy="33.0000" r="0.4000" /> 
</g>
<g style="fill:#FFFFFF; fill-opacity:1.0000; stroke:none;">
<circle cx="6.9802" cy="25.3800" r="0.4000" /> 
</g>
<g style="fill:#FFFFFF; fill-opacity:1.0000; stroke:none;">
<circle cx="9.5202" cy="25.3800" r="0.4000" /> 
</g>
<g style="fill:#FFFFFF; fill-opacity:1.0000; stroke:none;">
<circle cx="12.0602" cy="25.3800" r="0.4000" /> 
</g>
<g style="fill:#FFFFFF; fill-opacity:1.0000; stroke:none;">
<circle cx="14.6002" cy="25.3800" r="0.4000" /> 
</g>
<g style="fill:#FFFFFF; fill-opacity:1.0000; stroke:none;">
<circle cx="17.1402" cy="25.3800" r="0.4000" /> 
</g>
<g style="fill:#FFFFFF; fill-opacity:1.0000; stroke:none;">
<circle cx="19.6802" cy="25.3800" r="0.4000" /> 
</g>
<g style="fill:#FFFFFF; fill-opacity:1.0000; stroke:none;">
<circle cx="22.2202" cy="25.3800" r="0.4000" /> 
</g>
<g style="fill:#FFFFFF; fill-opacity:1.0000; stroke:none;">
<circle cx="24.7602" cy="25.3800" r="0.4000" /> 
</g>
<g style="fill:#FFFFFF; fill-opacity:1.0000; stroke:none;">
<circle cx="14.6002" cy="52.0000" r="0.5000" /> 
</g>
<g style="fill:#FFFFFF; fill-opacity:1.0000; stroke:none;">
<circle cx="12.0602" cy="52.0000" r="0.5000" /> 
</g>
<g style="fill:#FFFFFF; fill-opacity:1.0000; stroke:none;">
<circle cx="9.5202" cy="52.0000" r="0.5000" /> 
</g>
<g style="fill:#FFFFFF; fill-opacity:1.0000; stroke:none;">
<circle cx="6.9802" cy="52.0000" r="0.5000" /> 
</g>
<g style="fill:#FFFFFF; fill-opacity:1.0000; stroke:none;">
<circle cx="151.3602" cy="52.0000" r="0.5000" /> 
</g>
<g style="fill:#FFFFFF; fill-opacity:1.0000; stroke:none;">
<circle cx="148.8202" cy="52.0000" r="0.5000" /> 
</g>
<g style="fill:#FFFFFF; fill-opacity:1.0000; stroke:none;">
<circle cx="146.2802" cy="52.0000" r="0.5000" /> 
</g>
<g style="fill:#FFFFFF; fill-opacity:1.0000; stroke:none;">
<circle cx="143.7402" cy="52.0000" r="0.5000" /> 
</g>
<g style="fill:#FFFFFF; fill-opacity:1.0000; stroke:none;">
<circle cx="161.5202" cy="25.4300" r="0.4000" /> 
</g>
<g style="fill:#FFFFFF; fill-opacity:1.0000; stroke:none;">
<circle cx="158.9802" cy="25.4300" r="0.4000" /> 
</g>
<g style="fill:#FFFFFF; fill-opacity:1.0000; stroke:none;">
<circle cx="156.4402" cy="25.4300" r="0.4000" /> 
</g>
<g style="fill:#FFFFFF; fill-opacity:1.0000; stroke:none;">
<circle cx="153.9002" cy="25.4300" r="0.4000" /> 
</g>
<g style="fill:#FFFFFF; fill-opacity:1.0000; stroke:none;">
<circle cx="151.3602" cy="25.4300" r="0.4000" /> 
</g>
<g style="fill:#FFFFFF; fill-opacity:1.0000; stroke:none;">
<circle cx="148.8202" cy="25.4300" r="0.4000" /> 
</g>
<g style="fill:#FFFFFF; fill-opacity:1.0000; stroke:none;">
<circle cx="146.2802" cy="25.4300" r="0.4000" /> 
</g>
<g style="fill:#FFFFFF; fill-opacity:1.0000; stroke:none;">
<circle cx="143.7402" cy="25.4300" r="0.4000" /> 
</g>
<g style="fill:#FFFFFF; fill-opacity:1.0000; stroke:none;">
<circle cx="143.7402" cy="33.0500" r="0.4000" /> 
</g>
<g style="fill:#FFFFFF; fill-opacity:1.0000; stroke:none;">
<circle cx="146.2802" cy="33.0500" r="0.4000" /> 
</g>
<g style="fill:#FFFFFF; fill-opacity:1.0000; stroke:none;">
<circle cx="148.8202" cy="33.0500" r="0.4000" /> 
</g>
<g style="fill:#FFFFFF; fill-opacity:1.0000; stroke:none;">
<circle cx="151.3602" cy="33.0500" r="0.4000" /> 
</g>
<g style="fill:#FFFFFF; fill-opacity:1.0000; stroke:none;">
<circle cx="153.9002" cy="33.0500" r="0.4000" /> 
</g>
<g style="fill:#FFFFFF; fill-opacity:1.0000; stroke:none;">
<circle cx="156.4402" cy="33.0500" r="0.4000" /> 
</g>
<g style="fill:#FFFFFF; fill-opacity:1.0000; stroke:none;">
<circle cx="158.9802" cy="33.0500" r="0.4000" /> 
</g>
<g style="fill:#FFFFFF; fill-opacity:1.0000; stroke:none;">
<circle cx="161.5202" cy="33.0500" r="0.4000" /> 
</g>
<g style="fill:#FFFFFF; fill-opacity:1.0000; stroke:none;">
<circle cx="105.7735" cy="52.0000" r="0.5000" /> 
</g>
<g style="fill:#FFFFFF; fill-opacity:1.0000; stroke:none;">
<circle cx="103.2335" cy="52.0000" r="0.5000" /> 
</g>
<g style="fill:#FFFFFF; fill-opacity:1.0000; stroke:none;">
<circle cx="100.6935" cy="52.0000" r="0.5000" /> 
</g>
<g style="fill:#FFFFFF; fill-opacity:1.0000; stroke:none;">
<circle cx="98.1535" cy="52.0000" r="0.5000" /> 
</g>
<g style="fill:#FFFFFF; fill-opacity:1.0000; stroke:none;">
<circle cx="179.4802" cy="28.0000" r="0.5000" /> 
</g>
<g style="fill:#FFFFFF; fill-opacity:1.0000; stroke:none;">
<circle cx="179.4802" cy="30.5400" r="0.5000" /> 
</g>
<g style="fill:#FFFFFF; fill-opacity:1.0000; stroke:none;">
<circle cx="70.3469" cy="25.3800" r="0.4000" /> 
</g>
<g style="fill:#FFFFFF; fill-opacity:1.0000; stroke:none;">
<circle cx="67.8069" cy="25.3800" r="0.4000" /> 
</g>
<g style="fill:#FFFFFF; fill-opacity:1.0000; stroke:none;">
<circle cx="65.2669" cy="25.3800" r="0.4000" /> 
</g>
<g style="fill:#FFFFFF; fill-opacity:1.0000; stroke:none;">
<circle cx="62.7269" cy="25.3800" r="0.4000" /> 
</g>
<g style="fill:#FFFFFF; fill-opacity:1.0000; stroke:none;">
<circle cx="60.1869" cy="25.3800" r="0.4000" /> 
</g>
<g style="fill:#FFFFFF; fill-opacity:1.0000; stroke:none;">
<circle cx="57.6469" cy="25.3800" r="0.4000" /> 
</g>
<g style="fill:#FFFFFF; fill-opacity:1.0000; stroke:none;">
<circle cx="55.1069" cy="25.3800" r="0.4000" /> 
</g>
<g style="fill:#FFFFFF; fill-opacity:1.0000; stroke:none;">
<circle cx="52.5669" cy="25.3800" r="0.4000" /> 
</g>
<g style="fill:#FFFFFF; fill-opacity:1.0000; stroke:none;">
<circle cx="52.5669" cy="33.0000" r="0.4000" /> 
</g>
<g style="fill:#FFFFFF; fill-opacity:1.0000; stroke:none;">
<circle cx="55.1069" cy="33.0000" r="0.4000" /> 
</g>
<g style="fill:#FFFFFF; fill-opacity:1.0000; stroke:none;">
<circle cx="57.6469" cy="33.0000" r="0.4000" /> 
</g>
<g style="fill:#FFFFFF; fill-opacity:1.0000; stroke:none;">
<circle cx="60.1869" cy="33.0000" r="0.4000" /> 
</g>
<g style="fill:#FFFFFF; fill-opacity:1.0000; stroke:none;">
<circle cx="62.7269" cy="33.0000" r="0.4000" /> 
</g>
<g style="fill:#FFFFFF; fill-opacity:1.0000; stroke:none;">
<circle cx="65.2669" cy="33.0000" r="0.4000" /> 
</g>
<g style="fill:#FFFFFF; fill-opacity:1.0000; stroke:none;">
<circle cx="67.8069" cy="33.0000" r="0.4000" /> 
</g>
<g style="fill:#FFFFFF; fill-opacity:1.0000; stroke:none;">
<circle cx="70.3469" cy="33.0000" r="0.4000" /> 
</g>
<g style="fill:#FFFFFF; fill-opacity:1.0000; stroke:none;">
<circle cx="115.9335" cy="25.3800" r="0.4000" /> 
</g>
<g style="fill:#FFFFFF; fill-opacity:1.0000; stroke:none;">
<circle cx="113.3935" cy="25.3800" r="0.4000" /> 
</g>
<g style="fill:#FFFFFF; fill-opacity:1.0000; stroke:none;">
<circle cx="110.8535" cy="25.3800" r="0.4000" /> 
</g>
<g style="fill:#FFFFFF; fill-opacity:1.0000; stroke:none;">
<circle cx="108.3135" cy="25.3800" r="0.4000" /> 
</g>
<g style="fill:#FFFFFF; fill-opacity:1.0000; stroke:none;">
<circle cx="105.7735" cy="25.3800" r="0.4000" /> 
</g>
<g style="fill:#FFFFFF; fill-opacity:1.0000; stroke:none;">
<circle cx="103.2335" cy="25.3800" r="0.4000" /> 
</g>
<g style="fill:#FFFFFF; fill-opacity:1.0000; stroke:none;">
<circle cx="100.6935" cy="25.3800" r="0.4000" /> 
</g>
<g style="fill:#FFFFFF; fill-opacity:1.0000; stroke:none;">
<circle cx="98.1535" cy="25.3800" r="0.4000" /> 
</g>
<g style="fill:#FFFFFF; fill-opacity:1.0000; stroke:none;">
<circle cx="98.1535" cy="33.0000" r="0.4000" /> 
</g>
<g style="fill:#FFFFFF; fill-opacity:1.0000; stroke:none;">
<circle cx="100.6935" cy="33.0000" r="0.4000" /> 
</g>
<g style="fill:#FFFFFF; fill-opacity:1.0000; stroke:none;">
<circle cx="103.2335" cy="33.0000" r="0.4000" /> 
</g>
<g style="fill:#FFFFFF; fill-opacity:1.0000; stroke:none;">
<circle cx="105.7735" cy="33.0000" r="0.4000" /> 
</g>
<g style="fill:#FFFFFF; fill-opacity:1.0000; stroke:none;">
<circle cx="108.3135" cy="33.0000" r="0.4000" /> 
</g>
<g style="fill:#FFFFFF; fill-opacity:1.0000; stroke:none;">
<circle cx="110.8535" cy="33.0000" r="0.4000" /> 
</g>
<g style="fill:#FFFFFF; fill-opacity:1.0000; stroke:none;">
<circle cx="113.3935" cy="33.0000" r="0.4000" /> 
</g>
<g style="fill:#FFFFFF; fill-opacity:1.0000; stroke:none;">
<circle cx="115.9335" cy="33.0000" r="0.4000" /> 
</g>
<g style="fill:#FFFFFF; fill-opacity:1.0000; stroke:none;">
<circle cx="6.9802" cy="6.5000" r="0.5000" /> 
</g>
<g style="fill:#FFFFFF; fill-opacity:1.0000; stroke:none;">
<circle cx="9.5202" cy="6.5000" r="0.5000" /> 
</g>
<g style="fill:#FFFFFF; fill-opacity:1.0000; stroke:none;">
<circle cx="12.0602" cy="6.5000" r="0.5000" /> 
</g>
<g style="fill:#FFFFFF; fill-opacity:1.0000; stroke:none;">
<circle cx="14.6002" cy="6.5000" r="0.5000" /> 
</g>
<g style="fill:#FFFFFF; fill-opacity:1.0000; stroke:none;">
<circle cx="17.1402" cy="6.5000" r="0.5000" /> 
</g>
<g style="fill:#FFFFFF; fill-opacity:1.0000; stroke:none;">
<circle cx="19.6802" cy="6.5000" r="0.5000" /> 
</g>
<g style="fill:#FFFFFF; fill-opacity:1.0000; stroke:none;">
<circle cx="22.2202" cy="6.5000" r="0.5000" /> 
</g>
<g style="fill:#FFFFFF; fill-opacity:1.0000; stroke:none;">
<circle cx="67.8069" cy="6.5000" r="0.5000" /> 
</g>
<g style="fill:#FFFFFF; fill-opacity:1.0000; stroke:none;">
<circle cx="65.2669" cy="6.5000" r="0.5000" /> 
</g>
<g style="fill:#FFFFFF; fill-opacity:1.0000; stroke:none;">
<circle cx="62.7269" cy="6.5000" r="0.5000" /> 
</g>
<g style="fill:#FFFFFF; fill-opacity:1.0000; stroke:none;">
<circle cx="60.1869" cy="6.5000" r="0.5000" /> 
</g>
<g style="fill:#FFFFFF; fill-opacity:1.0000; stroke:none;">
<circle cx="57.6469" cy="6.5000" r="0.5000" /> 
</g>
<g style="fill:#FFFFFF; fill-opacity:1.0000; stroke:none;">
<circle cx="55.1069" cy="6.5000" r="0.5000" /> 
</g>
<g style="fill:#FFFFFF; fill-opacity:1.0000; stroke:none;">
<circle cx="52.5669" cy="6.5000" r="0.5000" /> 
</g>
<g style="fill:#FFFFFF; fill-opacity:1.0000; stroke:none;">
<circle cx="113.3935" cy="6.5000" r="0.5000" /> 
</g>
<g style="fill:#FFFFFF; fill-opacity:1.0000; stroke:none;">
<circle cx="110.8535" cy="6.5000" r="0.5000" /> 
</g>
<g style="fill:#FFFFFF; fill-opacity:1.0000; stroke:none;">
<circle cx="108.3135" cy="6.5000" r="0.5000" /> 
</g>
<g style="fill:#FFFFFF; fill-opacity:1.0000; stroke:none;">
<circle cx="105.7735" cy="6.5000" r="0.5000" /> 
</g>
<g style="fill:#FFFFFF; fill-opacity:1.0000; stroke:none;">
<circle cx="103.2335" cy="6.5000" r="0.5000" /> 
</g>
<g style="fill:#FFFFFF; fill-opacity:1.0000; stroke:none;">
<circle cx="100.6935" cy="6.5000" r="0.5000" /> 
</g>
<g style="fill:#FFFFFF; fill-opacity:1.0000; stroke:none;">
<circle cx="98.1535" cy="6.5000" r="0.5000" /> 
</g> 
</svg>
