<?xml version="1.0" standalone="no"?>
 <!DOCTYPE svg PUBLIC "-//W3C//DTD SVG 1.1//EN" 
 "http://www.w3.org/Graphics/SVG/1.1/DTD/svg11.dtd"> 
<svg
  xmlns:svg="http://www.w3.org/2000/svg"
  xmlns="http://www.w3.org/2000/svg"
  xmlns:xlink="http://www.w3.org/1999/xlink"
  version="1.1"
  width="36.1696mm" height="101.1428mm" viewBox="0.0000 0.0000 36.1696 101.1428">
<title>SVG Image created as flavor_tracker_daq-B_Mask.svg date 2023/07/22 16:30:05 </title>
  <desc>Image generated by PCBNEW </desc>
<g style="fill:#000000; fill-opacity:1.0000;stroke:#000000; stroke-opacity:1.0000;
stroke-linecap:round; stroke-linejoin:round;"
 transform="translate(0 0) scale(1 1)">
</g>
<g style="fill:#000000; fill-opacity:0.0; 
stroke:#000000; stroke-width:0.0000; stroke-opacity:1; 
stroke-linecap:round; stroke-linejoin:round;">
<g >
</g>
<g style="fill:#000000; fill-opacity:0.0; 
stroke:#000000; stroke-width:0.0000; stroke-opacity:1; 
stroke-linecap:round; stroke-linejoin:round;">
</g>
<g style="fill:#000000; fill-opacity:1.0000; 
stroke:#000000; stroke-width:0.0000; stroke-opacity:1; 
stroke-linecap:round; stroke-linejoin:round;">
<path style="fill:#000000; fill-opacity:1.0000; 
stroke:#000000; stroke-width:0.0000; stroke-opacity:1; 
stroke-linecap:round; stroke-linejoin:round;fill-rule:evenodd;"
d="M 7.0050,83.2050
5.3050,83.2050
5.3050,81.5050
7.0050,81.5050
Z" /> 
<circle cx="8.6950" cy="82.3550" r="0.8500" /> 
<circle cx="11.2350" cy="82.3550" r="0.8500" /> 
<circle cx="13.7750" cy="82.3550" r="0.8500" /> 
<circle cx="16.3150" cy="82.3550" r="0.8500" /> 
<circle cx="18.8550" cy="82.3550" r="0.8500" /> 
<circle cx="21.3950" cy="82.3550" r="0.8500" /> 
<circle cx="23.9350" cy="82.3550" r="0.8500" /> 
<circle cx="26.4750" cy="82.3550" r="0.8500" /> 
<circle cx="29.0150" cy="82.3550" r="0.8500" /> 
</g>
<g >
</g>
<g style="fill:#000000; fill-opacity:1.0000; 
stroke:#000000; stroke-width:0.0000; stroke-opacity:1; 
stroke-linecap:round; stroke-linejoin:round;">
<path style="fill:#000000; fill-opacity:1.0000; 
stroke:#000000; stroke-width:0.0000; stroke-opacity:1; 
stroke-linecap:round; stroke-linejoin:round;fill-rule:evenodd;"
d="M 14.9850,5.5300
15.0040,5.4343
15.0582,5.3532
15.1393,5.2990
15.2350,5.2800
15.9350,5.2800
16.0307,5.2990
16.1118,5.3532
16.1660,5.4343
16.1850,5.5300
16.1850,6.7800
16.1660,6.8757
16.1118,6.9568
16.0307,7.0110
15.9350,7.0300
15.2350,7.0300
15.1393,7.0110
15.0582,6.9568
15.0040,6.8757
14.9850,6.7800
Z" /> 
</g>
<g style="fill:#000000; fill-opacity:1.0000; 
stroke:#000000; stroke-width:1.2000; stroke-opacity:1; 
stroke-linecap:round; stroke-linejoin:round;">
</g>
<g style="fill:#000000; fill-opacity:0.0; 
stroke:#000000; stroke-width:1.2000; stroke-opacity:1; 
stroke-linecap:round; stroke-linejoin:round;">
<path d="M17.5850 5.8800
L17.5850 6.4300
" />
</g>
<g >
</g>
<g style="fill:#000000; fill-opacity:0.0; 
stroke:#000000; stroke-width:1.2000; stroke-opacity:1; 
stroke-linecap:round; stroke-linejoin:round;">
</g>
<g style="fill:#000000; fill-opacity:0.0; 
stroke:#000000; stroke-width:0.0000; stroke-opacity:1; 
stroke-linecap:round; stroke-linejoin:round;">
</g>
<g style="fill:#000000; fill-opacity:1.0000; 
stroke:#000000; stroke-width:0.0000; stroke-opacity:1; 
stroke-linecap:round; stroke-linejoin:round;">
<path style="fill:#000000; fill-opacity:1.0000; 
stroke:#000000; stroke-width:0.0000; stroke-opacity:1; 
stroke-linecap:round; stroke-linejoin:round;fill-rule:evenodd;"
d="M 30.7050,55.2650
30.7050,53.5650
32.4050,53.5650
32.4050,55.2650
Z" /> 
<circle cx="31.5550" cy="56.9550" r="0.8500" /> 
<circle cx="31.5550" cy="59.4950" r="0.8500" /> 
<circle cx="31.5550" cy="62.0350" r="0.8500" /> 
</g>
<g >
</g>
<g style="fill:#000000; fill-opacity:1.0000; 
stroke:#000000; stroke-width:0.0000; stroke-opacity:1; 
stroke-linecap:round; stroke-linejoin:round;">
<path style="fill:#000000; fill-opacity:1.0000; 
stroke:#000000; stroke-width:0.0000; stroke-opacity:1; 
stroke-linecap:round; stroke-linejoin:round;fill-rule:evenodd;"
d="M 14.5850,90.8250
12.8850,90.8250
12.8850,89.1250
14.5850,89.1250
Z" /> 
<circle cx="16.2750" cy="89.9750" r="0.8500" /> 
<circle cx="18.8150" cy="89.9750" r="0.8500" /> 
<circle cx="21.3550" cy="89.9750" r="0.8500" /> 
</g>
<g >
</g>
<g style="fill:#000000; fill-opacity:1.0000; 
stroke:#000000; stroke-width:0.0000; stroke-opacity:1; 
stroke-linecap:round; stroke-linejoin:round;">
<circle cx="13.5900" cy="13.9050" r="0.9000" /> 
<circle cx="13.8900" cy="16.9350" r="0.7500" /> 
<circle cx="18.7400" cy="16.9350" r="0.7500" /> 
<circle cx="19.0400" cy="13.9050" r="0.9000" /> 
<circle cx="7.4250" cy="13.7750" r="0.8500" /> 
<circle cx="7.4250" cy="16.3150" r="0.8500" /> 
<path style="fill:#000000; fill-opacity:1.0000; 
stroke:#000000; stroke-width:0.0000; stroke-opacity:1; 
stroke-linecap:round; stroke-linejoin:round;fill-rule:evenodd;"
d="M 6.5750,19.7050
6.5750,18.0050
8.2750,18.0050
8.2750,19.7050
Z" /> 
<circle cx="7.4250" cy="21.3950" r="0.8500" /> 
<circle cx="7.4250" cy="23.9350" r="0.8500" /> 
<circle cx="7.4250" cy="26.4750" r="0.8500" /> 
<circle cx="7.4250" cy="29.0150" r="0.8500" /> 
<path style="fill:#000000; fill-opacity:1.0000; 
stroke:#000000; stroke-width:0.0000; stroke-opacity:1; 
stroke-linecap:round; stroke-linejoin:round;fill-rule:evenodd;"
d="M 6.5750,32.4050
6.5750,30.7050
8.2750,30.7050
8.2750,32.4050
Z" /> 
<circle cx="7.4250" cy="34.0950" r="0.8500" /> 
<circle cx="7.4250" cy="36.6350" r="0.8500" /> 
<circle cx="7.4250" cy="39.1750" r="0.8500" /> 
<circle cx="7.4250" cy="41.7150" r="0.8500" /> 
<path style="fill:#000000; fill-opacity:1.0000; 
stroke:#000000; stroke-width:0.0000; stroke-opacity:1; 
stroke-linecap:round; stroke-linejoin:round;fill-rule:evenodd;"
d="M 6.5750,45.1050
6.5750,43.4050
8.2750,43.4050
8.2750,45.1050
Z" /> 
<circle cx="7.4250" cy="46.7950" r="0.8500" /> 
<circle cx="7.4250" cy="49.3350" r="0.8500" /> 
<circle cx="7.4250" cy="51.8750" r="0.8500" /> 
<circle cx="7.4250" cy="54.4150" r="0.8500" /> 
<path style="fill:#000000; fill-opacity:1.0000; 
stroke:#000000; stroke-width:0.0000; stroke-opacity:1; 
stroke-linecap:round; stroke-linejoin:round;fill-rule:evenodd;"
d="M 6.5750,57.8050
6.5750,56.1050
8.2750,56.1050
8.2750,57.8050
Z" /> 
<circle cx="7.4250" cy="59.4950" r="0.8500" /> 
<circle cx="7.4250" cy="62.0350" r="0.8500" /> 
<circle cx="25.2050" cy="62.0350" r="0.8500" /> 
<circle cx="25.2050" cy="59.4950" r="0.8500" /> 
<path style="fill:#000000; fill-opacity:1.0000; 
stroke:#000000; stroke-width:0.0000; stroke-opacity:1; 
stroke-linecap:round; stroke-linejoin:round;fill-rule:evenodd;"
d="M 24.3550,57.8050
24.3550,56.1050
26.0550,56.1050
26.0550,57.8050
Z" /> 
<circle cx="25.2050" cy="54.4150" r="0.8500" /> 
<circle cx="25.2050" cy="51.8750" r="0.8500" /> 
<circle cx="25.2050" cy="49.3350" r="0.8500" /> 
<circle cx="25.2050" cy="46.7950" r="0.8500" /> 
<path style="fill:#000000; fill-opacity:1.0000; 
stroke:#000000; stroke-width:0.0000; stroke-opacity:1; 
stroke-linecap:round; stroke-linejoin:round;fill-rule:evenodd;"
d="M 24.3550,45.1050
24.3550,43.4050
26.0550,43.4050
26.0550,45.1050
Z" /> 
<circle cx="25.2050" cy="41.7150" r="0.8500" /> 
<circle cx="25.2050" cy="39.1750" r="0.8500" /> 
<circle cx="25.2050" cy="36.6350" r="0.8500" /> 
<circle cx="25.2050" cy="34.0950" r="0.8500" /> 
<path style="fill:#000000; fill-opacity:1.0000; 
stroke:#000000; stroke-width:0.0000; stroke-opacity:1; 
stroke-linecap:round; stroke-linejoin:round;fill-rule:evenodd;"
d="M 24.3550,32.4050
24.3550,30.7050
26.0550,30.7050
26.0550,32.4050
Z" /> 
<circle cx="25.2050" cy="29.0150" r="0.8500" /> 
<circle cx="25.2050" cy="26.4750" r="0.8500" /> 
<circle cx="25.2050" cy="23.9350" r="0.8500" /> 
<circle cx="25.2050" cy="21.3950" r="0.8500" /> 
<path style="fill:#000000; fill-opacity:1.0000; 
stroke:#000000; stroke-width:0.0000; stroke-opacity:1; 
stroke-linecap:round; stroke-linejoin:round;fill-rule:evenodd;"
d="M 24.3550,19.7050
24.3550,18.0050
26.0550,18.0050
26.0550,19.7050
Z" /> 
<circle cx="25.2050" cy="16.3150" r="0.8500" /> 
<circle cx="25.2050" cy="13.7750" r="0.8500" /> 
<path style="fill:#000000; fill-opacity:1.0000; 
stroke:#000000; stroke-width:0.0000; stroke-opacity:1; 
stroke-linecap:round; stroke-linejoin:round;fill-rule:evenodd;"
d="M 16.0491,44.4550
16.0491,42.7550
17.7491,42.7550
17.7491,44.4550
Z" /> 
<circle cx="19.4391" cy="43.6050" r="0.8500" /> 
<circle cx="21.9791" cy="43.6050" r="0.8500" /> 
</g>
<g >
</g>
<g >
</g>
<g >
</g>
</g> 
</svg>
