<?xml version="1.0" standalone="no"?>
 <!DOCTYPE svg PUBLIC "-//W3C//DTD SVG 1.1//EN" 
 "http://www.w3.org/Graphics/SVG/1.1/DTD/svg11.dtd"> 
<svg
  xmlns:svg="http://www.w3.org/2000/svg"
  xmlns="http://www.w3.org/2000/svg"
  xmlns:xlink="http://www.w3.org/1999/xlink"
  version="1.1"
  width="36.1696mm" height="101.1428mm" viewBox="0.0000 0.0000 36.1696 101.1428">
<title>SVG Image created as flavor_tracker_daq-B_Cu.svg date 2023/07/22 16:30:05 </title>
  <desc>Image generated by PCBNEW </desc>
<g style="fill:#000000; fill-opacity:1.0000;stroke:#000000; stroke-opacity:1.0000;
stroke-linecap:round; stroke-linejoin:round;"
 transform="translate(0 0) scale(1 1)">
</g>
<g style="fill:#000000; fill-opacity:0.0; 
stroke:#000000; stroke-width:0.0000; stroke-opacity:1; 
stroke-linecap:round; stroke-linejoin:round;">
<g >
</g>
<g style="fill:#000000; fill-opacity:0.0; 
stroke:#000000; stroke-width:0.0000; stroke-opacity:1; 
stroke-linecap:round; stroke-linejoin:round;">
</g>
<g style="fill:#000000; fill-opacity:1.0000; 
stroke:#000000; stroke-width:0.0000; stroke-opacity:1; 
stroke-linecap:round; stroke-linejoin:round;">
<path style="fill:#000000; fill-opacity:1.0000; 
stroke:#000000; stroke-width:0.0000; stroke-opacity:1; 
stroke-linecap:round; stroke-linejoin:round;fill-rule:evenodd;"
d="M 7.0050,83.2050
5.3050,83.2050
5.3050,81.5050
7.0050,81.5050
Z" /> 
<circle cx="8.6950" cy="82.3550" r="0.8500" /> 
<circle cx="11.2350" cy="82.3550" r="0.8500" /> 
<circle cx="13.7750" cy="82.3550" r="0.8500" /> 
<circle cx="16.3150" cy="82.3550" r="0.8500" /> 
<circle cx="18.8550" cy="82.3550" r="0.8500" /> 
<circle cx="21.3950" cy="82.3550" r="0.8500" /> 
<circle cx="23.9350" cy="82.3550" r="0.8500" /> 
<circle cx="26.4750" cy="82.3550" r="0.8500" /> 
<circle cx="29.0150" cy="82.3550" r="0.8500" /> 
</g>
<g >
</g>
<g style="fill:#000000; fill-opacity:1.0000; 
stroke:#000000; stroke-width:0.0000; stroke-opacity:1; 
stroke-linecap:round; stroke-linejoin:round;">
<path style="fill:#000000; fill-opacity:1.0000; 
stroke:#000000; stroke-width:0.0000; stroke-opacity:1; 
stroke-linecap:round; stroke-linejoin:round;fill-rule:evenodd;"
d="M 14.9850,5.5300
15.0040,5.4343
15.0582,5.3532
15.1393,5.2990
15.2350,5.2800
15.9350,5.2800
16.0307,5.2990
16.1118,5.3532
16.1660,5.4343
16.1850,5.5300
16.1850,6.7800
16.1660,6.8757
16.1118,6.9568
16.0307,7.0110
15.9350,7.0300
15.2350,7.0300
15.1393,7.0110
15.0582,6.9568
15.0040,6.8757
14.9850,6.7800
Z" /> 
</g>
<g style="fill:#000000; fill-opacity:1.0000; 
stroke:#000000; stroke-width:1.2000; stroke-opacity:1; 
stroke-linecap:round; stroke-linejoin:round;">
</g>
<g style="fill:#000000; fill-opacity:0.0; 
stroke:#000000; stroke-width:1.2000; stroke-opacity:1; 
stroke-linecap:round; stroke-linejoin:round;">
<path d="M17.5850 5.8800
L17.5850 6.4300
" />
</g>
<g >
</g>
<g style="fill:#000000; fill-opacity:0.0; 
stroke:#000000; stroke-width:1.2000; stroke-opacity:1; 
stroke-linecap:round; stroke-linejoin:round;">
</g>
<g style="fill:#000000; fill-opacity:0.0; 
stroke:#000000; stroke-width:0.0000; stroke-opacity:1; 
stroke-linecap:round; stroke-linejoin:round;">
</g>
<g style="fill:#000000; fill-opacity:1.0000; 
stroke:#000000; stroke-width:0.0000; stroke-opacity:1; 
stroke-linecap:round; stroke-linejoin:round;">
<path style="fill:#000000; fill-opacity:1.0000; 
stroke:#000000; stroke-width:0.0000; stroke-opacity:1; 
stroke-linecap:round; stroke-linejoin:round;fill-rule:evenodd;"
d="M 30.7050,55.2650
30.7050,53.5650
32.4050,53.5650
32.4050,55.2650
Z" /> 
<circle cx="31.5550" cy="56.9550" r="0.8500" /> 
<circle cx="31.5550" cy="59.4950" r="0.8500" /> 
<circle cx="31.5550" cy="62.0350" r="0.8500" /> 
</g>
<g >
</g>
<g style="fill:#000000; fill-opacity:1.0000; 
stroke:#000000; stroke-width:0.0000; stroke-opacity:1; 
stroke-linecap:round; stroke-linejoin:round;">
<path style="fill:#000000; fill-opacity:1.0000; 
stroke:#000000; stroke-width:0.0000; stroke-opacity:1; 
stroke-linecap:round; stroke-linejoin:round;fill-rule:evenodd;"
d="M 14.5850,90.8250
12.8850,90.8250
12.8850,89.1250
14.5850,89.1250
Z" /> 
<circle cx="16.2750" cy="89.9750" r="0.8500" /> 
<circle cx="18.8150" cy="89.9750" r="0.8500" /> 
<circle cx="21.3550" cy="89.9750" r="0.8500" /> 
</g>
<g >
</g>
<g style="fill:#000000; fill-opacity:1.0000; 
stroke:#000000; stroke-width:0.0000; stroke-opacity:1; 
stroke-linecap:round; stroke-linejoin:round;">
<circle cx="7.4250" cy="13.7750" r="0.8500" /> 
<circle cx="7.4250" cy="16.3150" r="0.8500" /> 
<path style="fill:#000000; fill-opacity:1.0000; 
stroke:#000000; stroke-width:0.0000; stroke-opacity:1; 
stroke-linecap:round; stroke-linejoin:round;fill-rule:evenodd;"
d="M 6.5750,19.7050
6.5750,18.0050
8.2750,18.0050
8.2750,19.7050
Z" /> 
<circle cx="7.4250" cy="21.3950" r="0.8500" /> 
<circle cx="7.4250" cy="23.9350" r="0.8500" /> 
<circle cx="7.4250" cy="26.4750" r="0.8500" /> 
<circle cx="7.4250" cy="29.0150" r="0.8500" /> 
<path style="fill:#000000; fill-opacity:1.0000; 
stroke:#000000; stroke-width:0.0000; stroke-opacity:1; 
stroke-linecap:round; stroke-linejoin:round;fill-rule:evenodd;"
d="M 6.5750,32.4050
6.5750,30.7050
8.2750,30.7050
8.2750,32.4050
Z" /> 
<circle cx="7.4250" cy="34.0950" r="0.8500" /> 
<circle cx="7.4250" cy="36.6350" r="0.8500" /> 
<circle cx="7.4250" cy="39.1750" r="0.8500" /> 
<circle cx="7.4250" cy="41.7150" r="0.8500" /> 
<path style="fill:#000000; fill-opacity:1.0000; 
stroke:#000000; stroke-width:0.0000; stroke-opacity:1; 
stroke-linecap:round; stroke-linejoin:round;fill-rule:evenodd;"
d="M 6.5750,45.1050
6.5750,43.4050
8.2750,43.4050
8.2750,45.1050
Z" /> 
<circle cx="7.4250" cy="46.7950" r="0.8500" /> 
<circle cx="7.4250" cy="49.3350" r="0.8500" /> 
<circle cx="7.4250" cy="51.8750" r="0.8500" /> 
<circle cx="7.4250" cy="54.4150" r="0.8500" /> 
<path style="fill:#000000; fill-opacity:1.0000; 
stroke:#000000; stroke-width:0.0000; stroke-opacity:1; 
stroke-linecap:round; stroke-linejoin:round;fill-rule:evenodd;"
d="M 6.5750,57.8050
6.5750,56.1050
8.2750,56.1050
8.2750,57.8050
Z" /> 
<circle cx="7.4250" cy="59.4950" r="0.8500" /> 
<circle cx="7.4250" cy="62.0350" r="0.8500" /> 
<circle cx="25.2050" cy="62.0350" r="0.8500" /> 
<circle cx="25.2050" cy="59.4950" r="0.8500" /> 
<path style="fill:#000000; fill-opacity:1.0000; 
stroke:#000000; stroke-width:0.0000; stroke-opacity:1; 
stroke-linecap:round; stroke-linejoin:round;fill-rule:evenodd;"
d="M 24.3550,57.8050
24.3550,56.1050
26.0550,56.1050
26.0550,57.8050
Z" /> 
<circle cx="25.2050" cy="54.4150" r="0.8500" /> 
<circle cx="25.2050" cy="51.8750" r="0.8500" /> 
<circle cx="25.2050" cy="49.3350" r="0.8500" /> 
<circle cx="25.2050" cy="46.7950" r="0.8500" /> 
<path style="fill:#000000; fill-opacity:1.0000; 
stroke:#000000; stroke-width:0.0000; stroke-opacity:1; 
stroke-linecap:round; stroke-linejoin:round;fill-rule:evenodd;"
d="M 24.3550,45.1050
24.3550,43.4050
26.0550,43.4050
26.0550,45.1050
Z" /> 
<circle cx="25.2050" cy="41.7150" r="0.8500" /> 
<circle cx="25.2050" cy="39.1750" r="0.8500" /> 
<circle cx="25.2050" cy="36.6350" r="0.8500" /> 
<circle cx="25.2050" cy="34.0950" r="0.8500" /> 
<path style="fill:#000000; fill-opacity:1.0000; 
stroke:#000000; stroke-width:0.0000; stroke-opacity:1; 
stroke-linecap:round; stroke-linejoin:round;fill-rule:evenodd;"
d="M 24.3550,32.4050
24.3550,30.7050
26.0550,30.7050
26.0550,32.4050
Z" /> 
<circle cx="25.2050" cy="29.0150" r="0.8500" /> 
<circle cx="25.2050" cy="26.4750" r="0.8500" /> 
<circle cx="25.2050" cy="23.9350" r="0.8500" /> 
<circle cx="25.2050" cy="21.3950" r="0.8500" /> 
<path style="fill:#000000; fill-opacity:1.0000; 
stroke:#000000; stroke-width:0.0000; stroke-opacity:1; 
stroke-linecap:round; stroke-linejoin:round;fill-rule:evenodd;"
d="M 24.3550,19.7050
24.3550,18.0050
26.0550,18.0050
26.0550,19.7050
Z" /> 
<circle cx="25.2050" cy="16.3150" r="0.8500" /> 
<circle cx="25.2050" cy="13.7750" r="0.8500" /> 
<path style="fill:#000000; fill-opacity:1.0000; 
stroke:#000000; stroke-width:0.0000; stroke-opacity:1; 
stroke-linecap:round; stroke-linejoin:round;fill-rule:evenodd;"
d="M 16.0491,44.4550
16.0491,42.7550
17.7491,42.7550
17.7491,44.4550
Z" /> 
<circle cx="19.4391" cy="43.6050" r="0.8500" /> 
<circle cx="21.9791" cy="43.6050" r="0.8500" /> 
</g>
<g >
</g>
<g >
</g>
<g style="fill:#000000; fill-opacity:1.0000; 
stroke:#000000; stroke-width:0.0000; stroke-opacity:1; 
stroke-linecap:round; stroke-linejoin:round;">
</g>
<g style="fill:#000000; fill-opacity:1.0000; 
stroke:#000000; stroke-width:0.5000; stroke-opacity:1; 
stroke-linecap:round; stroke-linejoin:round;">
</g>
<g style="fill:#000000; fill-opacity:0.0; 
stroke:#000000; stroke-width:0.5000; stroke-opacity:1; 
stroke-linecap:round; stroke-linejoin:round;">
<path d="M29.0750 54.4750
L29.0750 20.1850
" />
<path d="M31.5550 56.9550
L29.0750 54.4750
" />
<path d="M29.0750 20.1850
L25.2050 16.3150
" />
<path d="M11.2350 30.2850
L25.2050 16.3150
" />
<path d="M15.5850 6.1550
L15.5850 6.6950
" />
<path d="M15.5850 6.6950
L25.2050 16.3150
" />
<path d="M11.2350 77.2750
L11.2350 30.2850
" />
<path d="M6.1550 82.3550
L11.2350 77.2750
" />
<path d="M13.7750 89.9750
L21.3950 82.3550
" />
<path d="M13.7350 89.9750
L13.7750 89.9750
" />
<path d="M16.2750 89.9750
L23.8950 82.3550
" />
<path d="M23.8950 82.3550
L23.9350 82.3550
" />
<path d="M26.4350 82.3550
L26.4750 82.3550
" />
<path d="M18.8150 89.9750
L26.4350 82.3550
" />
<path d="M21.3550 89.9750
L28.9750 82.3550
" />
<path d="M28.9750 82.3550
L29.0150 82.3550
" />
<path d="M25.2050 59.4950
L31.5550 59.4950
" />
<path d="M16.3150 77.2750
L16.3150 68.3850
" />
<path d="M16.3150 68.3850
L25.2050 59.4950
" />
<path d="M11.2350 82.3550
L16.3150 77.2750
" />
<path d="M25.2050 62.0350
L18.8550 68.3850
" />
<path d="M18.8550 68.3850
L18.8550 77.2750
" />
<path d="M18.8550 77.2750
L13.7750 82.3550
" />
<path d="M25.2050 62.0350
L31.5550 62.0350
" />
</g>
<g >
</g>
<g style="fill:#000000; fill-opacity:0.0; 
stroke:#000000; stroke-width:0.5000; stroke-opacity:1; 
stroke-linecap:round; stroke-linejoin:round;">
<g >
</g>
<g style="fill:#000000; fill-opacity:1.0000; 
stroke:#000000; stroke-width:0.0000; stroke-opacity:1; 
stroke-linecap:round; stroke-linejoin:round;">
<path style="fill:#000000; fill-opacity:1.0000; 
stroke:#000000; stroke-width:0.0000; stroke-opacity:1; 
stroke-linecap:round; stroke-linejoin:round;fill-rule:evenodd;"
d="M 33.0380,2.0947
33.0838,2.1475
33.0950,2.1990
33.0844,53.2695
33.0648,53.3365
33.0119,53.3823
32.9428,53.3922
32.8792,53.3632
32.8516,53.3289
32.8484,53.3229
32.7622,53.2078
32.7622,53.2078
32.6471,53.1216
32.6471,53.1216
32.5124,53.0714
32.5124,53.0714
32.4528,53.0650
31.8050,53.0650
31.8050,53.9795
31.6973,53.9303
31.5908,53.9150
31.5192,53.9150
31.4127,53.9303
31.3050,53.9795
31.3050,53.0650
30.6572,53.0650
30.5976,53.0714
30.5976,53.0714
30.4928,53.1105
30.4231,53.1155
30.3618,53.0820
30.3283,53.0207
30.3255,52.9943
30.3255,20.2587
30.3259,20.2518
30.3302,20.2132
30.3256,20.1450
30.3255,20.1408
30.3255,20.1288
30.3255,20.1288
30.3218,20.0875
30.3217,20.0861
30.3151,19.9886
30.3140,19.9843
30.3108,19.9652
30.3107,19.9647
30.3104,19.9608
30.2843,19.8665
30.2840,19.8652
30.2601,19.7703
30.2583,19.7663
30.2517,19.7480
30.2505,19.7438
30.2080,19.6557
30.2075,19.6545
30.1670,19.5654
30.1645,19.5618
30.1547,19.5450
30.1528,19.5410
30.0953,19.4619
30.0945,19.4607
30.0388,19.3803
30.0357,19.3773
30.0231,19.3625
30.0205,19.3589
30.0205,19.3589
29.9498,19.2913
29.9488,19.2903
27.0945,16.4360
27.0610,16.3747
27.0585,16.3395
27.0602,16.3150
27.0501,16.1734
27.0413,16.0510
26.9956,15.8405
26.9851,15.7923
26.9844,15.7906
26.8926,15.5443
26.8897,15.5390
26.7657,15.3120
26.7657,15.3120
26.6215,15.1193
26.5971,15.0538
26.6119,14.9856
26.6215,14.9707
26.6833,14.8882
26.7657,14.7780
26.8926,14.5457
26.9851,14.2977
27.0413,14.0390
27.0602,13.7750
27.0413,13.5110
26.9851,13.2523
26.8926,13.0043
26.8318,12.8930
26.7657,12.7720
26.7657,12.7720
26.6071,12.5601
26.6071,12.5601
26.4199,12.3729
26.4199,12.3729
26.2080,12.2143
26.2080,12.2143
25.9757,12.0874
25.9757,12.0874
25.7277,11.9949
25.4690,11.9387
25.4690,11.9387
25.2050,11.9198
25.2050,11.9198
24.9410,11.9387
24.9410,11.9387
24.6823,11.9949
24.4343,12.0874
24.4343,12.0874
24.2020,12.2143
24.2020,12.2143
23.9901,12.3729
23.9901,12.3729
23.8029,12.5601
23.8029,12.5601
23.6443,12.7720
23.6438,12.7727
23.6436,12.7729
23.6416,12.7755
23.6411,12.7751
23.5910,12.8185
23.5218,12.8284
23.4583,12.7994
23.4518,12.7934
18.1874,7.5289
18.1539,7.4676
18.1589,7.3979
18.2008,7.3420
18.2031,7.3402
18.3086,7.2651
18.4536,7.1131
18.5672,6.9363
18.6452,6.7413
18.6850,6.5350
18.6850,6.4050
17.8646,6.4050
17.9033,6.3629
17.9536,6.2483
17.9639,6.1236
17.9332,6.0023
17.8696,5.9050
18.6850,5.9050
18.6850,5.8276
18.6700,5.6709
18.6700,5.6709
18.6108,5.4693
18.5146,5.2826
18.3847,5.1175
18.3847,5.1175
18.2260,4.9799
18.2260,4.9799
18.0440,4.8749
18.0440,4.8749
17.8455,4.8061
17.8350,4.8046
17.8350,5.8744
17.7659,5.8206
17.6476,5.7800
17.5539,5.7800
17.4616,5.7954
17.3515,5.8550
17.3350,5.8729
17.3350,4.8087
17.3350,4.8087
17.2236,4.8358
17.2236,4.8358
17.1294,4.8788
17.0602,4.8887
16.9966,4.8597
16.9759,4.8366
16.8988,4.7254
16.8988,4.7253
16.8988,4.7253
16.7397,4.5662
16.7396,4.5662
16.7396,4.5662
16.5546,4.4380
16.5546,4.4380
16.5546,4.4380
16.3497,4.3449
16.3497,4.3449
16.3497,4.3449
16.1314,4.2899
16.1314,4.2899
16.0873,4.2864
15.9992,4.2795
15.9992,4.2795
15.1708,4.2795
15.1708,4.2795
15.0386,4.2899
15.0386,4.2899
14.8203,4.3449
14.8203,4.3449
14.6154,4.4380
14.6154,4.4380
14.4304,4.5662
14.4303,4.5662
14.2712,4.7253
14.2712,4.7254
14.1430,4.9104
14.1430,4.9104
14.0499,5.1153
14.0499,5.1153
13.9949,5.3336
13.9949,5.3336
13.9845,5.4658
13.9845,6.8442
13.9845,6.8442
13.9949,6.9764
13.9949,6.9764
14.0499,7.1947
14.0499,7.1947
14.1430,7.3996
14.1430,7.3996
14.2712,7.5846
14.2712,7.5846
14.2712,7.5847
14.4303,7.7438
14.4303,7.7438
14.4304,7.7438
14.5696,7.8403
14.6154,7.8720
14.8203,7.9651
14.8203,7.9651
15.0386,8.0201
15.0386,8.0201
15.0386,8.0201
15.1048,8.0253
15.1701,8.0502
15.1828,8.0612
18.9238,11.8022
18.9572,11.8636
18.9523,11.9332
18.9104,11.9892
18.8449,12.0136
18.7688,12.0190
18.7678,12.0192
18.7635,12.0196
18.7629,12.0197
18.7625,12.0197
18.7625,12.0197
18.6963,12.0345
18.6314,12.0489
18.5667,12.0630
18.5032,12.0768
18.5031,12.0769
18.5026,12.0770
18.4945,12.0794
18.4910,12.0802
18.4910,12.0802
18.3685,12.1271
18.2485,12.1718
18.2485,12.1718
18.2452,12.1736
18.2376,12.1771
18.2312,12.1796
18.1195,12.2423
18.0099,12.3021
18.0043,12.3063
17.9974,12.3108
17.9886,12.3157
17.8897,12.3921
17.7923,12.4650
17.7850,12.4723
17.7790,12.4775
17.7684,12.4858
17.7684,12.4858
17.6839,12.5734
17.6000,12.6573
17.6000,12.6573
17.6000,12.6573
17.6000,12.6573
17.5919,12.6681
17.5869,12.6740
17.5753,12.6860
17.5067,12.7819
17.5059,12.7830
17.4371,12.8749
17.4290,12.8897
17.4250,12.8960
17.4134,12.9123
17.3610,13.0143
17.3603,13.0156
17.3504,13.0337
17.3068,13.1135
17.2998,13.1323
17.2968,13.1390
17.2862,13.1597
17.2502,13.2651
17.2497,13.2668
17.2118,13.3682
17.2118,13.3682
17.2069,13.3910
17.2050,13.3979
17.1964,13.4230
17.1964,13.4230
17.1767,13.5293
17.1764,13.5312
17.1540,13.6338
17.1521,13.6604
17.1513,13.6673
17.1458,13.6966
17.1445,13.7332
17.1430,13.7750
17.1420,13.8014
17.1419,13.8035
17.1346,13.9050
17.1346,13.9050
17.1368,13.9348
17.1369,13.9415
17.1357,13.9746
17.1468,14.0756
17.1470,14.0780
17.1540,14.1762
17.1540,14.1762
17.1611,14.2086
17.1621,14.2150
17.1643,14.2343
17.1661,14.2511
17.1661,14.2511
17.1661,14.2511
17.1910,14.3463
17.1916,14.3488
17.2118,14.4418
17.2246,14.4760
17.2265,14.4819
17.2365,14.5203
17.2737,14.6078
17.2747,14.6104
17.3068,14.6965
17.3068,14.6965
17.3259,14.7314
17.3285,14.7368
17.3429,14.7708
17.3453,14.7763
17.3453,14.7763
17.3453,14.7763
17.3931,14.8547
17.3946,14.8573
17.4371,14.9351
17.4371,14.9351
17.4629,14.9695
17.4662,14.9744
17.4902,15.0138
17.4902,15.0138
17.5469,15.0819
17.5489,15.0844
17.5785,15.1239
17.6000,15.1527
17.6327,15.1854
17.6365,15.1896
17.6682,15.2276
17.7317,15.2846
17.7342,15.2869
17.7536,15.3063
17.7536,15.3063
17.7871,15.3676
17.7821,15.4373
17.7432,15.4909
17.7016,15.5241
17.6979,15.5269
17.6455,15.5626
17.6455,15.5626
17.5991,15.6057
17.5956,15.6087
17.5460,15.6482
17.5029,15.6946
17.4996,15.6979
17.4532,15.7410
17.4137,15.7906
17.4107,15.7941
17.3676,15.8405
17.3676,15.8405
17.3319,15.8929
17.3291,15.8966
17.2896,15.9461
17.2579,16.0010
17.2555,16.0049
17.2198,16.0573
17.2198,16.0573
17.1923,16.1144
17.1901,16.1185
17.1584,16.1734
17.1353,16.2323
17.1334,16.2366
17.1059,16.2937
17.1059,16.2937
17.0873,16.3542
17.0857,16.3586
17.0626,16.4176
17.0626,16.4176
17.0485,16.4794
17.0473,16.4838
17.0286,16.5444
17.0286,16.5444
17.0286,16.5444
17.0253,16.5665
17.0192,16.6070
17.0183,16.6116
17.0042,16.6734
17.0042,16.6734
16.9995,16.7366
16.9989,16.7412
16.9895,16.8038
16.9895,16.8672
16.9893,16.8718
16.9846,16.9350
16.9893,16.9982
16.9895,17.0028
16.9895,17.0662
16.9989,17.1288
16.9995,17.1334
17.0042,17.1966
17.0042,17.1966
17.0183,17.2584
17.0192,17.2630
17.0286,17.3256
17.0473,17.3862
17.0485,17.3906
17.0626,17.4524
17.0626,17.4524
17.0857,17.5114
17.0873,17.5158
17.0916,17.5299
17.1059,17.5763
17.1059,17.5763
17.1334,17.6334
17.1353,17.6377
17.1584,17.6966
17.1901,17.7515
17.1923,17.7556
17.2198,17.8127
17.2198,17.8127
17.2555,17.8651
17.2579,17.8690
17.2896,17.9239
17.2896,17.9239
17.3291,17.9734
17.3319,17.9771
17.3676,18.0295
17.3676,18.0295
17.3676,18.0295
17.4107,18.0759
17.4137,18.0794
17.4532,18.1290
17.4532,18.1290
17.4996,18.1721
17.5029,18.1753
17.5460,18.2218
17.5460,18.2218
17.5956,18.2613
17.5991,18.2643
17.6455,18.3074
17.6833,18.3332
17.6979,18.3431
17.7016,18.3459
17.7511,18.3854
17.7511,18.3854
17.8060,18.4171
17.8099,18.4195
17.8388,18.4392
17.8623,18.4552
17.9194,18.4827
17.9235,18.4849
17.9543,18.5027
17.9784,18.5166
18.0373,18.5397
18.0416,18.5416
18.0987,18.5691
18.1592,18.5877
18.1636,18.5893
18.2226,18.6124
18.2843,18.6265
18.2843,18.6265
18.2888,18.6277
18.2888,18.6277
18.3494,18.6464
18.4120,18.6558
18.4166,18.6567
18.4784,18.6708
18.5416,18.6755
18.5461,18.6761
18.6088,18.6855
18.6088,18.6855
18.8712,18.6855
18.8712,18.6855
18.9339,18.6760
18.9384,18.6755
19.0016,18.6708
19.0634,18.6567
19.0679,18.6558
19.1306,18.6464
19.1912,18.6277
19.1956,18.6265
19.1956,18.6265
19.2574,18.6124
19.3164,18.5893
19.3208,18.5877
19.3813,18.5691
19.4110,18.5548
19.4384,18.5416
19.4427,18.5397
19.4626,18.5319
19.5016,18.5166
19.5016,18.5166
19.5016,18.5166
19.5329,18.4985
19.5565,18.4849
19.5606,18.4827
19.5606,18.4827
19.6177,18.4552
19.6177,18.4552
19.6177,18.4552
19.6701,18.4195
19.6740,18.4171
19.7289,18.3854
19.7289,18.3854
19.7784,18.3459
19.7821,18.3431
19.8345,18.3074
19.8809,18.2643
19.8844,18.2613
19.9340,18.2218
19.9771,18.1753
19.9803,18.1721
20.0268,18.1290
20.0663,18.0794
20.0693,18.0759
20.1124,18.0295
20.1481,17.9771
20.1509,17.9734
20.1904,17.9239
20.1904,17.9239
20.1904,17.9239
20.2221,17.8690
20.2245,17.8651
20.2602,17.8127
20.2602,17.8127
20.2602,17.8127
20.2877,17.7556
20.2899,17.7515
20.3216,17.6966
20.3447,17.6377
20.3466,17.6334
20.3598,17.6060
20.3741,17.5763
20.3927,17.5158
20.3943,17.5114
20.4174,17.4524
20.4174,17.4524
20.4174,17.4524
20.4315,17.3906
20.4327,17.3862
20.4368,17.3729
20.4514,17.3256
20.4608,17.2629
20.4617,17.2584
20.4758,17.1966
20.4805,17.1334
20.4810,17.1289
20.4905,17.0662
20.4905,17.0028
20.4907,16.9982
20.4954,16.9350
20.4907,16.8718
20.4905,16.8672
20.4905,16.8038
20.4905,16.8038
20.4810,16.7411
20.4805,16.7366
20.4758,16.6734
20.4617,16.6116
20.4608,16.6070
20.4514,16.5444
20.4401,16.5078
20.4327,16.4838
20.4315,16.4794
20.4216,16.4360
20.4174,16.4176
20.3943,16.3586
20.3927,16.3542
20.3741,16.2937
20.3466,16.2366
20.3447,16.2323
20.3216,16.1734
20.3077,16.1493
20.2899,16.1185
20.2877,16.1144
20.2602,16.0573
20.2245,16.0049
20.2245,16.0049
20.2221,16.0010
20.1904,15.9461
20.1509,15.8966
20.1481,15.8929
20.1382,15.8783
20.1124,15.8405
20.0693,15.7941
20.0663,15.7906
20.0268,15.7410
20.0268,15.7410
20.0110,15.7263
19.9752,15.6663
19.9776,15.5965
20.0173,15.5390
20.0359,15.5266
20.0701,15.5079
20.0757,15.5037
20.0825,15.4992
20.0914,15.4943
20.1903,15.4179
20.2877,15.3450
20.2950,15.3377
20.3010,15.3325
20.3116,15.3242
20.3961,15.2366
20.4800,15.1527
20.4881,15.1419
20.4931,15.1360
20.5047,15.1240
20.5734,15.0280
20.5741,15.0270
20.6429,14.9351
20.6510,14.9203
20.6549,14.9140
20.6666,14.8977
20.7190,14.7957
20.7197,14.7944
20.7732,14.6965
20.7802,14.6777
20.7831,14.6710
20.7938,14.6503
20.8298,14.5448
20.8303,14.5432
20.8682,14.4418
20.8731,14.4189
20.8750,14.4121
20.8836,14.3870
20.9033,14.2806
20.9036,14.2788
20.9260,14.1762
20.9279,14.1496
20.9287,14.1427
20.9342,14.1134
20.9344,14.1076
20.9565,14.0413
21.0109,13.9975
21.0804,13.9901
21.1428,14.0214
21.1460,14.0244
23.3155,16.1940
23.3490,16.2553
23.3515,16.2905
23.3498,16.3150
23.3498,16.3150
23.3515,16.3395
23.3367,16.4078
23.3155,16.4360
10.4029,29.3486
10.3977,29.3533
10.3673,29.3775
10.3673,29.3775
10.3224,29.4290
10.3195,29.4320
10.3111,29.4405
10.3111,29.4405
10.2845,29.4723
10.2836,29.4734
10.2192,29.5470
10.2192,29.5470
10.2170,29.5508
10.2057,29.5666
10.2029,29.5700
10.1546,29.6551
10.1540,29.6563
10.1247,29.7052
10.1038,29.7402
10.1022,29.7443
10.0940,29.7619
10.0918,29.7657
10.0918,29.7658
10.0595,29.8581
10.0591,29.8594
10.0247,29.9510
10.0247,29.9510
10.0239,29.9553
10.0190,29.9741
10.0175,29.9782
10.0175,29.9782
10.0022,30.0749
10.0020,30.0762
9.9845,30.1724
9.9845,30.1768
9.9830,30.1962
9.9823,30.2005
9.9845,30.2983
9.9845,30.2997
9.9845,76.7057
9.9648,76.7727
9.9482,76.7933
6.2733,80.4682
6.2120,80.5017
6.1857,80.5045
5.2470,80.5045
5.2470,80.5045
5.2470,80.5045
5.2353,80.5055
5.1276,80.5151
4.9320,80.5711
4.8418,80.6182
4.7516,80.6653
4.7516,80.6653
4.7516,80.6653
4.5939,80.7939
4.4653,80.9516
4.4653,80.9516
4.4461,80.9884
4.3711,81.1320
4.3569,81.1814
4.3160,81.3244
4.3151,81.3276
4.3151,81.3276
4.3045,81.4470
4.3045,83.2630
4.3045,83.2630
4.3151,83.3824
4.3711,83.5780
4.3711,83.5780
4.3711,83.5780
4.4653,83.7584
4.4653,83.7584
4.5939,83.9161
4.6860,83.9912
4.7516,84.0447
4.9320,84.1389
5.1276,84.1949
5.2470,84.2055
7.0630,84.2055
7.1824,84.1949
7.3780,84.1389
7.5584,84.0447
7.7161,83.9161
7.8447,83.7584
7.9202,83.6139
7.9687,83.5636
8.0366,83.5475
8.0825,83.5589
8.2315,83.6284
8.2315,83.6284
8.4450,83.6856
8.4450,82.7905
8.5527,82.8397
8.6592,82.8550
8.7308,82.8550
8.8373,82.8397
8.9450,82.7905
8.9450,83.6856
9.1585,83.6284
9.1585,83.6284
9.3726,83.5286
9.5559,83.4002
9.6221,83.3779
9.6899,83.3949
9.7263,83.4275
9.8329,83.5699
9.8329,83.5699
10.0201,83.7571
10.0201,83.7571
10.2320,83.9157
10.2320,83.9157
10.4643,84.0426
10.4643,84.0426
10.4643,84.0426
10.7123,84.1351
10.7123,84.1351
10.7123,84.1351
10.7299,84.1389
10.9710,84.1913
11.2147,84.2088
11.2350,84.2102
11.2350,84.2102
11.2350,84.2102
11.2539,84.2089
11.4990,84.1913
11.7577,84.1351
12.0057,84.0426
12.2380,83.9157
12.3482,83.8333
12.4307,83.7715
12.4962,83.7471
12.5644,83.7619
12.5793,83.7715
12.7720,83.9157
12.7720,83.9157
13.0043,84.0426
13.0043,84.0426
13.0043,84.0426
13.2523,84.1351
13.2523,84.1351
13.2523,84.1351
13.2699,84.1389
13.5110,84.1913
13.7547,84.2088
13.7750,84.2102
13.7750,84.2102
13.7750,84.2102
13.7939,84.2089
14.0390,84.1913
14.2977,84.1351
14.5457,84.0426
14.7780,83.9157
14.9899,83.7571
15.1771,83.5699
15.2837,83.4275
15.3396,83.3856
15.4093,83.3806
15.4541,83.4002
15.6374,83.5286
15.8515,83.6284
15.8515,83.6284
16.0650,83.6856
16.0650,82.7905
16.1727,82.8397
16.2792,82.8550
16.3508,82.8550
16.4573,82.8397
16.5650,82.7905
16.5650,83.6856
16.7785,83.6284
16.7785,83.6284
16.9926,83.5286
17.1759,83.4002
17.2421,83.3779
17.3099,83.3949
17.3463,83.4275
17.4529,83.5699
17.4529,83.5699
17.6401,83.7571
17.6401,83.7571
17.8504,83.9145
17.8520,83.9157
17.8520,83.9157
17.8527,83.9162
17.8529,83.9164
17.8555,83.9184
17.8551,83.9189
17.8985,83.9690
17.9084,84.0381
17.8794,84.1017
17.8733,84.1082
13.8933,88.0882
13.8320,88.1217
13.8057,88.1245
12.8270,88.1245
12.8270,88.1245
12.8270,88.1245
12.8153,88.1255
12.7076,88.1351
12.5120,88.1911
12.4218,88.2382
12.3316,88.2853
12.3316,88.2853
12.3316,88.2853
12.1739,88.4139
12.0453,88.5716
11.9511,88.7520
11.8951,88.9476
11.8951,88.9476
11.8845,89.0670
11.8845,90.8830
11.8845,90.8830
11.8951,91.0024
11.9511,91.1980
11.9511,91.1980
11.9511,91.1980
12.0453,91.3784
12.0453,91.3784
12.1739,91.5361
12.2479,91.5964
12.3316,91.6647
12.5120,91.7589
12.7076,91.8149
12.8270,91.8255
14.6430,91.8255
14.7624,91.8149
14.9580,91.7589
15.1384,91.6647
15.2221,91.5964
15.2865,91.5693
15.3553,91.5813
15.3599,91.5837
15.5043,91.6626
15.5043,91.6626
15.5043,91.6626
15.7523,91.7551
15.7523,91.7551
15.7523,91.7551
15.7699,91.7589
16.0110,91.8113
16.2547,91.8288
16.2750,91.8302
16.2750,91.8302
16.2750,91.8302
16.2939,91.8289
16.5390,91.8113
16.7977,91.7551
17.0457,91.6626
17.2780,91.5357
17.3882,91.4533
17.4707,91.3915
17.5362,91.3671
17.6044,91.3819
17.6193,91.3915
17.8120,91.5357
17.8120,91.5357
18.0443,91.6626
18.0443,91.6626
18.0443,91.6626
18.2923,91.7551
18.2923,91.7551
18.2923,91.7551
18.3099,91.7589
18.5510,91.8113
18.7947,91.8288
18.8150,91.8302
18.8150,91.8302
18.8150,91.8302
18.8339,91.8289
19.0790,91.8113
19.3377,91.7551
19.5857,91.6626
19.8180,91.5357
19.9282,91.4533
20.0107,91.3915
20.0762,91.3671
20.1444,91.3819
20.1593,91.3915
20.3520,91.5357
20.3520,91.5357
20.5843,91.6626
20.5843,91.6626
20.5843,91.6626
20.8323,91.7551
20.8323,91.7551
20.8323,91.7551
20.8499,91.7589
21.0910,91.8113
21.3347,91.8288
21.3550,91.8302
21.3550,91.8302
21.3550,91.8302
21.3739,91.8289
21.6190,91.8113
21.8777,91.7551
22.1257,91.6626
22.3580,91.5357
22.5699,91.3771
22.7571,91.1899
22.9157,90.9780
23.0426,90.7457
23.1351,90.4977
23.1913,90.2390
23.2102,89.9750
23.2085,89.9505
23.2233,89.8822
23.2445,89.8540
28.8567,84.2418
28.9180,84.2083
28.9532,84.2058
29.0150,84.2102
29.0150,84.2102
29.0339,84.2089
29.2790,84.1913
29.5377,84.1351
29.7857,84.0426
30.0180,83.9157
30.2299,83.7571
30.4171,83.5699
30.5757,83.3580
30.7026,83.1257
30.7951,82.8777
30.8513,82.6190
30.8702,82.3550
30.8513,82.0910
30.7951,81.8323
30.7026,81.5843
30.5757,81.3520
30.5574,81.3276
30.4171,81.1401
30.4171,81.1401
30.2299,80.9529
30.2299,80.9529
30.0180,80.7943
30.0180,80.7943
29.7857,80.6674
29.7857,80.6674
29.5377,80.5749
29.2790,80.5187
29.2790,80.5187
29.0150,80.4998
29.0150,80.4998
28.7510,80.5187
28.7510,80.5187
28.4923,80.5749
28.2443,80.6674
28.2443,80.6674
28.0120,80.7943
28.0120,80.7943
27.8193,80.9385
27.7538,80.9629
27.6856,80.9481
27.6707,80.9385
27.4780,80.7943
27.4780,80.7943
27.2457,80.6674
27.2457,80.6674
26.9977,80.5749
26.7390,80.5187
26.7390,80.5187
26.4750,80.4998
26.4750,80.4998
26.2110,80.5187
26.2110,80.5187
25.9523,80.5749
25.7043,80.6674
25.7043,80.6674
25.4720,80.7943
25.4720,80.7943
25.2793,80.9385
25.2138,80.9629
25.1456,80.9481
25.1307,80.9385
24.9380,80.7943
24.9380,80.7943
24.7057,80.6674
24.7057,80.6674
24.4577,80.5749
24.1990,80.5187
24.1990,80.5187
23.9350,80.4998
23.9350,80.4998
23.6710,80.5187
23.6710,80.5187
23.4123,80.5749
23.1643,80.6674
23.1643,80.6674
22.9320,80.7943
22.9320,80.7943
22.7393,80.9385
22.6738,80.9629
22.6056,80.9481
22.5907,80.9385
22.3980,80.7943
22.3980,80.7943
22.1657,80.6674
22.1657,80.6674
21.9177,80.5749
21.6590,80.5187
21.6590,80.5187
21.3950,80.4998
21.3950,80.4998
21.1310,80.5187
21.1310,80.5187
20.8723,80.5749
20.6243,80.6674
20.6243,80.6674
20.3920,80.7943
20.3920,80.7943
20.1993,80.9385
20.1338,80.9629
20.0656,80.9481
20.0507,80.9385
19.8580,80.7943
19.8580,80.7943
19.6257,80.6674
19.6257,80.6674
19.3777,80.5749
19.1190,80.5187
19.1190,80.5187
18.8550,80.4998
18.8550,80.4998
18.5910,80.5187
18.5910,80.5187
18.3323,80.5749
18.0843,80.6674
18.0843,80.6674
17.8520,80.7943
17.8520,80.7943
17.6401,80.9529
17.6401,80.9529
17.4529,81.1401
17.4529,81.1401
17.3463,81.2825
17.2904,81.3244
17.2207,81.3294
17.1759,81.3098
16.9926,81.1814
16.9652,81.1686
16.9127,81.1225
16.8936,81.0553
16.9138,80.9884
16.9299,80.9686
19.6871,78.2113
19.6923,78.2067
19.7227,78.1825
19.7676,78.1310
19.7705,78.1280
19.7789,78.1195
19.8056,78.0877
19.8064,78.0867
19.8708,78.0130
19.8730,78.0092
19.8843,77.9934
19.8871,77.9900
19.9353,77.9049
19.9360,77.9038
19.9862,77.8198
19.9877,77.8157
19.9960,77.7980
19.9982,77.7942
20.0305,77.7019
20.0309,77.7007
20.0653,77.6090
20.0661,77.6047
20.0711,77.5859
20.0725,77.5818
20.0878,77.4851
20.0880,77.4838
20.1055,77.3875
20.1055,77.3832
20.1070,77.3638
20.1077,77.3595
20.1064,77.3026
20.1055,77.2617
20.1055,77.2603
20.1055,68.9543
20.1252,68.8873
20.1418,68.8667
25.0840,63.9245
25.1453,63.8910
25.1805,63.8885
25.2050,63.8902
25.2050,63.8902
25.2239,63.8889
25.4690,63.8713
25.7277,63.8151
25.9757,63.7226
26.2080,63.5957
26.4199,63.4371
26.5352,63.3218
26.5965,63.2883
26.6229,63.2855
30.1371,63.2855
30.2042,63.3052
30.2248,63.3218
30.3182,63.4152
30.3401,63.4371
30.3401,63.4371
30.5520,63.5957
30.5520,63.5957
30.7843,63.7226
30.7843,63.7226
30.7843,63.7226
31.0323,63.8151
31.0323,63.8151
31.0323,63.8151
31.2276,63.8575
31.2910,63.8713
31.5347,63.8888
31.5550,63.8902
31.5550,63.8902
31.5550,63.8902
31.5739,63.8889
31.8190,63.8713
32.0777,63.8151
32.3257,63.7226
32.5580,63.5957
32.7699,63.4371
32.8707,63.3363
32.9320,63.3028
33.0017,63.3078
33.0576,63.3497
33.0820,63.4152
33.0824,63.4240
33.0769,89.9750
33.0766,91.5813
33.0750,99.0110
33.0553,99.0781
33.0025,99.1238
32.9510,99.1350
2.1990,99.1350
2.1320,99.1153
2.0862,99.0625
2.0750,99.0110
2.0750,62.0350
5.5698,62.0350
5.5887,62.2990
5.5887,62.2990
5.6449,62.5577
5.7374,62.8057
5.7374,62.8057
5.8643,63.0380
5.8643,63.0380
6.0229,63.2499
6.0229,63.2499
6.2101,63.4371
6.2101,63.4371
6.4220,63.5957
6.4220,63.5957
6.6543,63.7226
6.6543,63.7226
6.6543,63.7226
6.9023,63.8151
6.9023,63.8151
6.9023,63.8151
7.0976,63.8575
7.1610,63.8713
7.4047,63.8888
7.4250,63.8902
7.4250,63.8902
7.4250,63.8902
7.4439,63.8889
7.6890,63.8713
7.9477,63.8151
8.1957,63.7226
8.4280,63.5957
8.6399,63.4371
8.8271,63.2499
8.9857,63.0380
9.1126,62.8057
9.2051,62.5577
9.2613,62.2990
9.2802,62.0350
9.2613,61.7710
9.2051,61.5123
9.1126,61.2643
8.9857,61.0320
8.9857,61.0320
8.8415,60.8393
8.8171,60.7738
8.8319,60.7056
8.8415,60.6907
8.9857,60.4980
9.1126,60.2657
9.2051,60.0177
9.2613,59.7590
9.2802,59.4950
9.2613,59.2310
9.2051,58.9723
9.1126,58.7243
8.9857,58.4920
8.9857,58.4920
8.8271,58.2801
8.8271,58.2801
8.7915,58.2445
8.7401,58.1931
8.7066,58.1318
8.7116,58.0621
8.7179,58.0483
8.7686,57.9124
8.7686,57.9124
8.7750,57.8528
8.7750,57.8528
8.7750,57.2050
7.8706,57.2050
7.8937,57.1690
7.9350,57.0283
7.9350,56.8817
7.8937,56.7410
7.8706,56.7050
8.7750,56.7050
8.7750,56.0572
8.7750,56.0572
8.7686,55.9976
8.7686,55.9976
8.7153,55.8546
8.7168,55.8540
8.7041,55.7957
8.7285,55.7303
8.7401,55.7169
8.8271,55.6299
8.9857,55.4180
9.1126,55.1857
9.2051,54.9377
9.2613,54.6790
9.2802,54.4150
9.2613,54.1510
9.2263,53.9900
9.2051,53.8923
9.1126,53.6443
9.1126,53.6443
8.9857,53.4120
8.9857,53.4120
8.8415,53.2193
8.8171,53.1538
8.8319,53.0856
8.8415,53.0707
8.9033,52.9882
8.9857,52.8780
9.1126,52.6457
9.2051,52.3977
9.2613,52.1390
9.2802,51.8750
9.2613,51.6110
9.2051,51.3523
9.1126,51.1043
8.9857,50.8720
8.8415,50.6793
8.8171,50.6138
8.8319,50.5456
8.8415,50.5307
8.9033,50.4482
8.9857,50.3380
9.1126,50.1057
9.2051,49.8577
9.2613,49.5990
9.2802,49.3350
9.2613,49.0710
9.2051,48.8123
9.1126,48.5643
8.9857,48.3320
8.8415,48.1393
8.8171,48.0738
8.8319,48.0056
8.8415,47.9907
8.9033,47.9082
8.9857,47.7980
9.1126,47.5657
9.2051,47.3177
9.2613,47.0590
9.2802,46.7950
9.2613,46.5310
9.2051,46.2723
9.1126,46.0243
8.9857,45.7920
8.9857,45.7920
8.8271,45.5801
8.8271,45.5801
8.8271,45.5801
8.7401,45.4931
8.7066,45.4318
8.7116,45.3621
8.7179,45.3483
8.7686,45.2124
8.7686,45.2124
8.7750,45.1528
8.7750,45.1528
8.7750,44.5050
7.8706,44.5050
7.8937,44.4690
7.9350,44.3283
7.9350,44.1817
7.8937,44.0410
7.8706,44.0050
8.7750,44.0050
8.7750,43.3572
8.7750,43.3572
8.7686,43.2976
8.7686,43.2976
8.7153,43.1546
8.7168,43.1540
8.7041,43.0957
8.7285,43.0303
8.7401,43.0169
8.8271,42.9299
8.9857,42.7180
9.1126,42.4857
9.2051,42.2377
9.2613,41.9790
9.2802,41.7150
9.2613,41.4510
9.2051,41.1923
9.1126,40.9443
8.9857,40.7120
8.8415,40.5193
8.8171,40.4538
8.8319,40.3856
8.8415,40.3707
8.9033,40.2882
8.9857,40.1780
9.1126,39.9457
9.2051,39.6977
9.2613,39.4390
9.2802,39.1750
9.2613,38.9110
9.2051,38.6523
9.1126,38.4043
8.9857,38.1720
8.9857,38.1720
8.8415,37.9793
8.8171,37.9138
8.8319,37.8456
8.8415,37.8307
8.9857,37.6380
9.1126,37.4057
9.2051,37.1577
9.2613,36.8990
9.2802,36.6350
9.2613,36.3710
9.2051,36.1123
9.1126,35.8643
8.9857,35.6320
8.8415,35.4393
8.8171,35.3738
8.8319,35.3056
8.8415,35.2907
8.9033,35.2082
8.9857,35.0980
9.1126,34.8657
9.2051,34.6177
9.2613,34.3590
9.2802,34.0950
9.2613,33.8310
9.2051,33.5723
9.1126,33.3243
8.9857,33.0920
8.9857,33.0920
8.8271,32.8801
8.8271,32.8801
8.8271,32.8801
8.7401,32.7931
8.7066,32.7318
8.7116,32.6621
8.7179,32.6483
8.7686,32.5124
8.7686,32.5124
8.7750,32.4528
8.7750,32.4528
8.7750,31.8050
7.8706,31.8050
7.8937,31.7690
7.9350,31.6283
7.9350,31.4817
7.8937,31.3410
7.8706,31.3050
8.7750,31.3050
8.7750,30.6572
8.7750,30.6572
8.7686,30.5976
8.7686,30.5976
8.7153,30.4546
8.7168,30.4540
8.7041,30.3957
8.7285,30.3303
8.7401,30.3169
8.8271,30.2299
8.9857,30.0180
9.1126,29.7857
9.2051,29.5377
9.2613,29.2790
9.2802,29.0150
9.2613,28.7510
9.2051,28.4923
9.1126,28.2443
8.9857,28.0120
8.8415,27.8193
8.8171,27.7538
8.8319,27.6856
8.8415,27.6707
8.9033,27.5882
8.9857,27.4780
9.1126,27.2457
9.2051,26.9977
9.2613,26.7390
9.2802,26.4750
9.2613,26.2110
9.2051,25.9523
9.1126,25.7043
8.9857,25.4720
8.8415,25.2793
8.8171,25.2138
8.8319,25.1456
8.8415,25.1307
8.9033,25.0482
8.9857,24.9380
9.1126,24.7057
9.2051,24.4577
9.2613,24.1990
9.2802,23.9350
9.2613,23.6710
9.2051,23.4123
9.1126,23.1643
8.9857,22.9320
8.8415,22.7393
8.8171,22.6738
8.8319,22.6056
8.8415,22.5907
8.9033,22.5082
8.9857,22.3980
9.1126,22.1657
9.2051,21.9177
9.2613,21.6590
9.2802,21.3950
9.2613,21.1310
9.2051,20.8723
9.1126,20.6243
8.9857,20.3920
8.9857,20.3920
8.8271,20.1801
8.8271,20.1801
8.7878,20.1408
8.7401,20.0931
8.7066,20.0318
8.7116,19.9621
8.7179,19.9483
8.7686,19.8124
8.7686,19.8124
8.7750,19.7528
8.7750,19.7528
8.7750,19.1050
7.8706,19.1050
7.8937,19.0690
7.9350,18.9283
7.9350,18.7817
7.8937,18.6410
7.8706,18.6050
8.7750,18.6050
8.7750,17.9572
8.7750,17.9572
8.7686,17.8976
8.7686,17.8976
8.7153,17.7546
8.7168,17.7540
8.7041,17.6957
8.7285,17.6303
8.7401,17.6169
8.8271,17.5299
8.9857,17.3180
9.1126,17.0857
9.2051,16.8377
9.2613,16.5790
9.2802,16.3150
9.2613,16.0510
9.2156,15.8405
9.2051,15.7923
9.2044,15.7906
9.1126,15.5443
9.1097,15.5390
8.9857,15.3120
8.9857,15.3120
8.8415,15.1193
8.8171,15.0538
8.8319,14.9856
8.8415,14.9707
8.9033,14.8882
8.9857,14.7780
9.1126,14.5457
9.2051,14.2977
9.2613,14.0390
9.2709,13.9050
11.6846,13.9050
11.6868,13.9348
11.6869,13.9415
11.6857,13.9746
11.6968,14.0756
11.6970,14.0780
11.7040,14.1762
11.7040,14.1762
11.7111,14.2086
11.7121,14.2150
11.7143,14.2343
11.7161,14.2511
11.7161,14.2511
11.7161,14.2511
11.7410,14.3463
11.7416,14.3488
11.7618,14.4418
11.7746,14.4760
11.7765,14.4819
11.7865,14.5203
11.8237,14.6078
11.8247,14.6104
11.8568,14.6965
11.8568,14.6965
11.8759,14.7314
11.8785,14.7368
11.8929,14.7708
11.8953,14.7763
11.8953,14.7763
11.8953,14.7763
11.9431,14.8547
11.9446,14.8573
11.9871,14.9351
11.9871,14.9351
12.0129,14.9695
12.0162,14.9744
12.0402,15.0138
12.0402,15.0138
12.0969,15.0819
12.0989,15.0844
12.1285,15.1239
12.1500,15.1527
12.1827,15.1854
12.1865,15.1896
12.2182,15.2276
12.2817,15.2846
12.2842,15.2869
12.3423,15.3450
12.3423,15.3450
12.3423,15.3450
12.3819,15.3746
12.3861,15.3781
12.4254,15.4133
12.4564,15.4338
12.4938,15.4585
12.4967,15.4606
12.5599,15.5079
12.5941,15.5266
12.6435,15.5760
12.6584,15.6443
12.6340,15.7097
12.6190,15.7263
12.6032,15.7410
12.5637,15.7906
12.5607,15.7941
12.5176,15.8405
12.5176,15.8405
12.4819,15.8929
12.4791,15.8966
12.4396,15.9461
12.4079,16.0010
12.4055,16.0049
12.3698,16.0573
12.3698,16.0573
12.3423,16.1144
12.3401,16.1185
12.3084,16.1734
12.2853,16.2323
12.2834,16.2366
12.2559,16.2937
12.2559,16.2937
12.2373,16.3542
12.2357,16.3586
12.2126,16.4176
12.2126,16.4176
12.1985,16.4794
12.1973,16.4838
12.1786,16.5444
12.1786,16.5444
12.1786,16.5444
12.1753,16.5665
12.1692,16.6070
12.1683,16.6116
12.1542,16.6734
12.1542,16.6734
12.1495,16.7366
12.1489,16.7412
12.1395,16.8038
12.1395,16.8672
12.1393,16.8718
12.1346,16.9350
12.1393,16.9982
12.1395,17.0028
12.1395,17.0662
12.1489,17.1288
12.1495,17.1334
12.1542,17.1966
12.1542,17.1966
12.1683,17.2584
12.1692,17.2630
12.1786,17.3256
12.1973,17.3862
12.1985,17.3906
12.2126,17.4524
12.2126,17.4524
12.2357,17.5114
12.2373,17.5158
12.2416,17.5299
12.2559,17.5763
12.2559,17.5763
12.2834,17.6334
12.2853,17.6377
12.3084,17.6966
12.3401,17.7515
12.3423,17.7556
12.3698,17.8127
12.3698,17.8127
12.4055,17.8651
12.4079,17.8690
12.4396,17.9239
12.4396,17.9239
12.4791,17.9734
12.4819,17.9771
12.5176,18.0295
12.5176,18.0295
12.5176,18.0295
12.5607,18.0759
12.5637,18.0794
12.6032,18.1290
12.6032,18.1290
12.6496,18.1721
12.6529,18.1753
12.6960,18.2218
12.6960,18.2218
12.7456,18.2613
12.7491,18.2643
12.7955,18.3074
12.8333,18.3332
12.8479,18.3431
12.8516,18.3459
12.9011,18.3854
12.9011,18.3854
12.9560,18.4171
12.9599,18.4195
12.9888,18.4392
13.0123,18.4552
13.0694,18.4827
13.0735,18.4849
13.1043,18.5027
13.1284,18.5166
13.1873,18.5397
13.1916,18.5416
13.2487,18.5691
13.3092,18.5877
13.3136,18.5893
13.3726,18.6124
13.4343,18.6265
13.4344,18.6265
13.4388,18.6277
13.4388,18.6277
13.4994,18.6464
13.5620,18.6558
13.5666,18.6567
13.6284,18.6708
13.6916,18.6755
13.6961,18.6761
13.7588,18.6855
13.7588,18.6855
14.0212,18.6855
14.0212,18.6855
14.0839,18.6760
14.0884,18.6755
14.1516,18.6708
14.2134,18.6567
14.2179,18.6558
14.2806,18.6464
14.3412,18.6277
14.3456,18.6265
14.3456,18.6265
14.4074,18.6124
14.4664,18.5893
14.4708,18.5877
14.5313,18.5691
14.5610,18.5548
14.5884,18.5416
14.5927,18.5397
14.6126,18.5319
14.6516,18.5166
14.6516,18.5166
14.6516,18.5166
14.6829,18.4985
14.7065,18.4849
14.7106,18.4827
14.7106,18.4827
14.7677,18.4552
14.7677,18.4552
14.7677,18.4552
14.8201,18.4195
14.8240,18.4171
14.8789,18.3854
14.8789,18.3854
14.9284,18.3459
14.9321,18.3431
14.9845,18.3074
15.0309,18.2643
15.0344,18.2613
15.0840,18.2218
15.1271,18.1753
15.1303,18.1721
15.1768,18.1290
15.2163,18.0794
15.2193,18.0759
15.2624,18.0295
15.2981,17.9771
15.3009,17.9734
15.3404,17.9239
15.3404,17.9239
15.3404,17.9239
15.3721,17.8690
15.3745,17.8651
15.4102,17.8127
15.4102,17.8127
15.4102,17.8127
15.4377,17.7556
15.4399,17.7515
15.4716,17.6966
15.4947,17.6377
15.4966,17.6334
15.5098,17.6060
15.5241,17.5763
15.5427,17.5158
15.5443,17.5114
15.5674,17.4524
15.5674,17.4524
15.5674,17.4524
15.5815,17.3906
15.5827,17.3862
15.5868,17.3729
15.6014,17.3256
15.6108,17.2629
15.6117,17.2584
15.6258,17.1966
15.6305,17.1334
15.6310,17.1289
15.6405,17.0662
15.6405,17.0028
15.6407,16.9982
15.6454,16.9350
15.6407,16.8718
15.6405,16.8672
15.6405,16.8038
15.6405,16.8038
15.6311,16.7411
15.6305,16.7366
15.6258,16.6734
15.6117,16.6116
15.6108,16.6070
15.6014,16.5444
15.5901,16.5078
15.5827,16.4838
15.5815,16.4794
15.5716,16.4360
15.5674,16.4176
15.5443,16.3586
15.5427,16.3542
15.5241,16.2937
15.4966,16.2366
15.4947,16.2323
15.4716,16.1734
15.4577,16.1493
15.4399,16.1185
15.4377,16.1144
15.4102,16.0573
15.3745,16.0049
15.3745,16.0049
15.3721,16.0010
15.3404,15.9461
15.3009,15.8966
15.2981,15.8929
15.2882,15.8783
15.2624,15.8405
15.2193,15.7941
15.2163,15.7906
15.1768,15.7410
15.1768,15.7410
15.1303,15.6979
15.1271,15.6946
15.0840,15.6482
15.0840,15.6482
15.0344,15.6087
15.0309,15.6057
14.9845,15.5626
14.9845,15.5626
14.9845,15.5626
14.9432,15.5344
14.9321,15.5269
14.9284,15.5241
14.8882,15.4921
14.8481,15.4349
14.8452,15.3651
14.8762,15.3091
14.9461,15.2366
15.0300,15.1527
15.0381,15.1419
15.0431,15.1360
15.0547,15.1240
15.1234,15.0280
15.1241,15.0270
15.1929,14.9351
15.2010,14.9203
15.2049,14.9140
15.2166,14.8977
15.2690,14.7957
15.2697,14.7944
15.3232,14.6965
15.3302,14.6777
15.3331,14.6710
15.3438,14.6503
15.3798,14.5448
15.3803,14.5432
15.4182,14.4418
15.4231,14.4189
15.4250,14.4121
15.4336,14.3870
15.4533,14.2806
15.4536,14.2788
15.4760,14.1762
15.4779,14.1496
15.4787,14.1427
15.4842,14.1134
15.4880,14.0085
15.4881,14.0065
15.4954,13.9050
15.4932,13.8752
15.4931,13.8685
15.4943,13.8354
15.4832,13.7343
15.4830,13.7321
15.4760,13.6338
15.4689,13.6014
15.4679,13.5950
15.4639,13.5589
15.4390,13.4637
15.4384,13.4612
15.4182,13.3682
15.4054,13.3340
15.4035,13.3281
15.3935,13.2897
15.3776,13.2523
15.3563,13.2022
15.3553,13.1996
15.3404,13.1597
15.3232,13.1135
15.3041,13.0786
15.3015,13.0732
15.2847,13.0337
15.2369,12.9553
15.2354,12.9527
15.1929,12.8749
15.1929,12.8749
15.1671,12.8405
15.1638,12.8356
15.1398,12.7962
15.0831,12.7281
15.0811,12.7256
15.0300,12.6573
14.9973,12.6246
14.9935,12.6204
14.9618,12.5824
14.8983,12.5254
14.8958,12.5231
14.8377,12.4650
14.8377,12.4650
14.7981,12.4354
14.7939,12.4319
14.7546,12.3967
14.6862,12.3515
14.6833,12.3494
14.6593,12.3315
14.6201,12.3021
14.5738,12.2768
14.5693,12.2741
14.5226,12.2432
14.5226,12.2432
14.4513,12.2098
14.4479,12.2081
14.3885,12.1756
14.3815,12.1718
14.3815,12.1718
14.3555,12.1621
14.3290,12.1522
14.3244,12.1503
14.2707,12.1252
14.2707,12.1251
14.1984,12.1034
14.1946,12.1021
14.1268,12.0768
14.1268,12.0768
14.0689,12.0642
14.0642,12.0630
14.0043,12.0450
14.0043,12.0450
13.9328,12.0345
13.9287,12.0337
13.8612,12.0190
13.8612,12.0190
13.7987,12.0146
13.7941,12.0141
13.7291,12.0045
13.7291,12.0045
13.6601,12.0045
13.6557,12.0043
13.6246,12.0021
13.5900,11.9996
13.5900,11.9996
13.5249,12.0043
13.5227,12.0044
13.5205,12.0045
13.4733,12.0080
13.4527,12.0095
13.3883,12.0141
13.3188,12.0190
13.3178,12.0192
13.3135,12.0196
13.3129,12.0197
13.3125,12.0197
13.3125,12.0197
13.2463,12.0345
13.1814,12.0489
13.1167,12.0630
13.0532,12.0768
13.0531,12.0769
13.0526,12.0770
13.0445,12.0794
13.0410,12.0802
13.0410,12.0802
12.9185,12.1271
12.7985,12.1718
12.7985,12.1718
12.7952,12.1736
12.7876,12.1771
12.7812,12.1796
12.6695,12.2423
12.5599,12.3021
12.5543,12.3063
12.5474,12.3108
12.5386,12.3157
12.4397,12.3921
12.3423,12.4650
12.3350,12.4723
12.3290,12.4775
12.3184,12.4858
12.3184,12.4858
12.2339,12.5734
12.1500,12.6573
12.1500,12.6573
12.1500,12.6573
12.1500,12.6573
12.1419,12.6681
12.1369,12.6740
12.1253,12.6860
12.0567,12.7819
12.0559,12.7830
11.9871,12.8749
11.9790,12.8897
11.9750,12.8960
11.9634,12.9123
11.9110,13.0143
11.9103,13.0156
11.9004,13.0337
11.8568,13.1135
11.8498,13.1323
11.8468,13.1390
11.8362,13.1597
11.8002,13.2651
11.7997,13.2668
11.7618,13.3682
11.7618,13.3682
11.7569,13.3910
11.7549,13.3979
11.7464,13.4230
11.7464,13.4230
11.7267,13.5293
11.7264,13.5312
11.7040,13.6338
11.7021,13.6604
11.7013,13.6673
11.6958,13.6966
11.6945,13.7332
11.6930,13.7750
11.6920,13.8014
11.6919,13.8035
11.6846,13.9050
11.6846,13.9050
9.2709,13.9050
9.2802,13.7750
9.2613,13.5110
9.2051,13.2523
9.1126,13.0043
9.0518,12.8930
8.9857,12.7720
8.9857,12.7720
8.8271,12.5601
8.8271,12.5601
8.6399,12.3729
8.6399,12.3729
8.4280,12.2143
8.4280,12.2143
8.1957,12.0874
8.1957,12.0874
7.9477,11.9949
7.6890,11.9387
7.6890,11.9387
7.4250,11.9198
7.4250,11.9198
7.1610,11.9387
7.1610,11.9387
6.9023,11.9949
6.6543,12.0874
6.6543,12.0874
6.4220,12.2143
6.4220,12.2143
6.2101,12.3729
6.2101,12.3729
6.0229,12.5601
6.0229,12.5601
5.8643,12.7720
5.8643,12.7720
5.7374,13.0043
5.7374,13.0043
5.6449,13.2523
5.5887,13.5110
5.5887,13.5110
5.5698,13.7750
5.5698,13.7750
5.5887,14.0390
5.5887,14.0390
5.6449,14.2977
5.7374,14.5457
5.7374,14.5457
5.8643,14.7780
5.8643,14.7780
6.0085,14.9707
6.0329,15.0362
6.0181,15.1044
6.0085,15.1193
5.8643,15.3120
5.8643,15.3120
5.7374,15.5443
5.7374,15.5443
5.6449,15.7923
5.5887,16.0510
5.5887,16.0510
5.5698,16.3150
5.5698,16.3150
5.5887,16.5790
5.5887,16.5790
5.6449,16.8377
5.7374,17.0857
5.7374,17.0857
5.8643,17.3180
5.8643,17.3180
6.0229,17.5299
6.0229,17.5299
6.1099,17.6169
6.1434,17.6782
6.1384,17.7479
6.1321,17.7617
6.0814,17.8976
6.0814,17.8976
6.0750,17.9572
6.0750,18.6050
6.9794,18.6050
6.9563,18.6410
6.9150,18.7817
6.9150,18.9283
6.9563,19.0690
6.9794,19.1050
6.0750,19.1050
6.0750,19.7528
6.0814,19.8124
6.0814,19.8124
6.1347,19.9554
6.1332,19.9560
6.1459,20.0143
6.1215,20.0797
6.1099,20.0931
6.0229,20.1801
6.0229,20.1801
5.8643,20.3920
5.8643,20.3920
5.7374,20.6243
5.7374,20.6243
5.6449,20.8723
5.5887,21.1310
5.5887,21.1310
5.5698,21.3950
5.5698,21.3950
5.5887,21.6590
5.5887,21.6590
5.6449,21.9177
5.7374,22.1657
5.7374,22.1657
5.8643,22.3980
5.8643,22.3980
6.0085,22.5907
6.0329,22.6562
6.0181,22.7244
6.0085,22.7393
5.8643,22.9320
5.8643,22.9320
5.7374,23.1643
5.7374,23.1643
5.6449,23.4123
5.5887,23.6710
5.5887,23.6710
5.5698,23.9350
5.5698,23.9350
5.5887,24.1990
5.5887,24.1990
5.6449,24.4577
5.7374,24.7057
5.7374,24.7057
5.8643,24.9380
5.8643,24.9380
6.0085,25.1307
6.0329,25.1962
6.0181,25.2644
6.0085,25.2793
5.8643,25.4720
5.8643,25.4720
5.7374,25.7043
5.7374,25.7043
5.6449,25.9523
5.5887,26.2110
5.5887,26.2110
5.5698,26.4750
5.5698,26.4750
5.5887,26.7390
5.5887,26.7390
5.6449,26.9977
5.7374,27.2457
5.7374,27.2457
5.8643,27.4780
5.8643,27.4780
6.0085,27.6707
6.0329,27.7362
6.0181,27.8044
6.0085,27.8193
5.8643,28.0120
5.8643,28.0120
5.7374,28.2443
5.7374,28.2443
5.6449,28.4923
5.5887,28.7510
5.5887,28.7510
5.5698,29.0150
5.5698,29.0150
5.5887,29.2790
5.5887,29.2790
5.6449,29.5377
5.7374,29.7857
5.7374,29.7857
5.8643,30.0180
5.8643,30.0180
6.0229,30.2299
6.0229,30.2299
6.1099,30.3169
6.1434,30.3782
6.1384,30.4479
6.1321,30.4617
6.0814,30.5976
6.0814,30.5976
6.0750,30.6572
6.0750,31.3050
6.9794,31.3050
6.9563,31.3410
6.9150,31.4817
6.9150,31.6283
6.9563,31.7690
6.9794,31.8050
6.0750,31.8050
6.0750,32.4528
6.0814,32.5124
6.0814,32.5124
6.1347,32.6554
6.1332,32.6560
6.1459,32.7143
6.1215,32.7797
6.1099,32.7931
6.0229,32.8801
6.0229,32.8801
5.8643,33.0920
5.8643,33.0920
5.7374,33.3243
5.7374,33.3243
5.6449,33.5723
5.5887,33.8310
5.5887,33.8310
5.5698,34.0950
5.5698,34.0950
5.5887,34.3590
5.5887,34.3590
5.6449,34.6177
5.7374,34.8657
5.7374,34.8657
5.8643,35.0980
5.8643,35.0980
6.0085,35.2907
6.0329,35.3562
6.0181,35.4244
6.0085,35.4393
5.8643,35.6320
5.7374,35.8643
5.7374,35.8643
5.6449,36.1123
5.5887,36.3710
5.5887,36.3710
5.5698,36.6350
5.5698,36.6350
5.5887,36.8990
5.5887,36.8990
5.6449,37.1577
5.7374,37.4057
5.7374,37.4057
5.8643,37.6380
5.8643,37.6380
6.0085,37.8307
6.0329,37.8962
6.0181,37.9644
6.0085,37.9793
5.8643,38.1720
5.8643,38.1720
5.7374,38.4043
5.7374,38.4043
5.6449,38.6523
5.5887,38.9110
5.5887,38.9110
5.5698,39.1750
5.5698,39.1750
5.5887,39.4390
5.5887,39.4390
5.6449,39.6977
5.7374,39.9457
5.7374,39.9457
5.8643,40.1780
5.8643,40.1780
6.0085,40.3707
6.0329,40.4362
6.0181,40.5044
6.0085,40.5193
5.8643,40.7120
5.7374,40.9443
5.7374,40.9443
5.6449,41.1923
5.5887,41.4510
5.5887,41.4510
5.5698,41.7150
5.5698,41.7150
5.5887,41.9790
5.5887,41.9790
5.6449,42.2377
5.7374,42.4857
5.7374,42.4857
5.8643,42.7180
5.8643,42.7180
6.0229,42.9299
6.0229,42.9299
6.1099,43.0169
6.1434,43.0782
6.1384,43.1479
6.1321,43.1617
6.0814,43.2976
6.0814,43.2976
6.0750,43.3572
6.0750,44.0050
6.9794,44.0050
6.9563,44.0410
6.9150,44.1817
6.9150,44.3283
6.9563,44.4690
6.9794,44.5050
6.0750,44.5050
6.0750,45.1528
6.0814,45.2124
6.0814,45.2124
6.1347,45.3554
6.1332,45.3560
6.1459,45.4143
6.1215,45.4797
6.1099,45.4931
6.0229,45.5801
6.0229,45.5801
5.8643,45.7920
5.8643,45.7920
5.7374,46.0243
5.7374,46.0243
5.6449,46.2723
5.5887,46.5310
5.5887,46.5310
5.5698,46.7950
5.5698,46.7950
5.5887,47.0590
5.5887,47.0590
5.6449,47.3177
5.7374,47.5657
5.7374,47.5657
5.8643,47.7980
5.8643,47.7980
6.0085,47.9907
6.0329,48.0562
6.0181,48.1244
6.0085,48.1393
5.8643,48.3320
5.8643,48.3320
5.7374,48.5643
5.7374,48.5643
5.6449,48.8123
5.5887,49.0710
5.5887,49.0710
5.5698,49.3350
5.5698,49.3350
5.5887,49.5990
5.5887,49.5990
5.6449,49.8577
5.7374,50.1057
5.7374,50.1057
5.8643,50.3380
5.8643,50.3380
6.0085,50.5307
6.0329,50.5962
6.0181,50.6644
6.0085,50.6793
5.8643,50.8720
5.8643,50.8720
5.7374,51.1043
5.7374,51.1043
5.6449,51.3523
5.5887,51.6110
5.5887,51.6110
5.5698,51.8750
5.5698,51.8750
5.5887,52.1390
5.5887,52.1390
5.6449,52.3977
5.7374,52.6457
5.7374,52.6457
5.8643,52.8780
5.8643,52.8780
6.0085,53.0707
6.0329,53.1362
6.0181,53.2044
6.0085,53.2193
5.8643,53.4120
5.8643,53.4120
5.7374,53.6443
5.7374,53.6443
5.6449,53.8923
5.5887,54.1510
5.5887,54.1510
5.5698,54.4150
5.5698,54.4150
5.5887,54.6790
5.5887,54.6790
5.6449,54.9377
5.7374,55.1857
5.7374,55.1857
5.8643,55.4180
5.8643,55.4180
6.0229,55.6299
6.0229,55.6299
6.1099,55.7169
6.1434,55.7782
6.1384,55.8479
6.1321,55.8617
6.0814,55.9976
6.0814,55.9976
6.0750,56.0572
6.0750,56.7050
6.9794,56.7050
6.9563,56.7410
6.9150,56.8817
6.9150,57.0283
6.9563,57.1690
6.9794,57.2050
6.0750,57.2050
6.0750,57.8528
6.0814,57.9124
6.0814,57.9124
6.1347,58.0554
6.1332,58.0560
6.1459,58.1143
6.1215,58.1797
6.1099,58.1931
6.0229,58.2801
6.0229,58.2801
5.8643,58.4920
5.8643,58.4920
5.7374,58.7243
5.7374,58.7243
5.6449,58.9723
5.5887,59.2310
5.5887,59.2310
5.5698,59.4950
5.5698,59.4950
5.5887,59.7590
5.5887,59.7590
5.6449,60.0177
5.7374,60.2657
5.7374,60.2657
5.8643,60.4980
5.8643,60.4980
6.0085,60.6907
6.0329,60.7562
6.0181,60.8244
6.0085,60.8393
5.8643,61.0320
5.8643,61.0320
5.7374,61.2643
5.7374,61.2643
5.6449,61.5123
5.5887,61.7710
5.5887,61.7710
5.5698,62.0350
5.5698,62.0350
2.0750,62.0350
2.0750,2.1990
2.0947,2.1320
2.1475,2.0862
2.1990,2.0750
32.9710,2.0750
Z" /> 
<path style="fill:#000000; fill-opacity:1.0000; 
stroke:#000000; stroke-width:0.0000; stroke-opacity:1; 
stroke-linecap:round; stroke-linejoin:round;fill-rule:evenodd;"
d="M 23.7743,19.6167
23.8303,19.6585
23.8547,19.7240
23.8550,19.7328
23.8550,19.7528
23.8614,19.8124
23.8614,19.8124
23.9147,19.9554
23.9132,19.9560
23.9259,20.0143
23.9015,20.0797
23.8899,20.0931
23.8029,20.1801
23.8029,20.1801
23.6443,20.3920
23.6443,20.3920
23.5174,20.6243
23.5174,20.6243
23.4249,20.8723
23.3687,21.1310
23.3687,21.1310
23.3498,21.3950
23.3498,21.3950
23.3687,21.6590
23.3687,21.6590
23.4249,21.9177
23.5174,22.1657
23.5174,22.1657
23.6443,22.3980
23.6443,22.3980
23.7885,22.5907
23.8129,22.6562
23.7981,22.7244
23.7885,22.7393
23.6443,22.9320
23.5174,23.1643
23.5174,23.1643
23.4249,23.4123
23.3687,23.6710
23.3687,23.6710
23.3498,23.9350
23.3498,23.9350
23.3687,24.1990
23.3687,24.1990
23.4249,24.4577
23.5174,24.7057
23.5174,24.7057
23.6443,24.9380
23.6443,24.9380
23.7885,25.1307
23.8129,25.1962
23.7981,25.2644
23.7885,25.2793
23.6443,25.4720
23.6443,25.4720
23.5174,25.7043
23.5174,25.7043
23.4249,25.9523
23.3687,26.2110
23.3687,26.2110
23.3498,26.4750
23.3498,26.4750
23.3687,26.7390
23.3687,26.7390
23.4249,26.9977
23.5174,27.2457
23.5174,27.2457
23.6443,27.4780
23.6443,27.4780
23.7885,27.6707
23.8129,27.7362
23.7981,27.8044
23.7885,27.8193
23.6443,28.0120
23.5174,28.2443
23.5174,28.2443
23.4249,28.4923
23.3687,28.7510
23.3687,28.7510
23.3498,29.0150
23.3498,29.0150
23.3687,29.2790
23.3687,29.2790
23.4249,29.5377
23.5174,29.7857
23.5174,29.7857
23.6443,30.0180
23.6443,30.0180
23.8029,30.2299
23.8029,30.2299
23.8899,30.3169
23.9234,30.3782
23.9184,30.4479
23.9121,30.4617
23.8614,30.5976
23.8614,30.5976
23.8550,30.6572
23.8550,31.3050
24.7594,31.3050
24.7363,31.3410
24.6950,31.4817
24.6950,31.6283
24.7363,31.7690
24.7594,31.8050
23.8550,31.8050
23.8550,32.4528
23.8614,32.5124
23.8614,32.5124
23.9147,32.6554
23.9132,32.6560
23.9259,32.7143
23.9015,32.7797
23.8899,32.7931
23.8029,32.8801
23.8029,32.8801
23.6443,33.0920
23.6443,33.0920
23.5174,33.3243
23.5174,33.3243
23.4249,33.5723
23.3687,33.8310
23.3687,33.8310
23.3498,34.0950
23.3498,34.0950
23.3687,34.3590
23.3687,34.3590
23.4249,34.6177
23.5174,34.8657
23.5174,34.8657
23.6443,35.0980
23.6443,35.0980
23.7885,35.2907
23.8129,35.3562
23.7981,35.4244
23.7885,35.4393
23.6443,35.6320
23.6443,35.6320
23.5174,35.8643
23.5174,35.8643
23.4249,36.1123
23.3687,36.3710
23.3687,36.3710
23.3498,36.6350
23.3498,36.6350
23.3687,36.8990
23.3687,36.8990
23.4249,37.1577
23.5174,37.4057
23.5174,37.4057
23.6443,37.6380
23.6443,37.6380
23.7885,37.8307
23.8129,37.8962
23.7981,37.9644
23.7885,37.9793
23.6443,38.1720
23.5174,38.4043
23.5174,38.4043
23.4249,38.6523
23.3687,38.9110
23.3687,38.9110
23.3498,39.1750
23.3498,39.1750
23.3687,39.4390
23.3687,39.4390
23.4249,39.6977
23.5174,39.9457
23.5174,39.9457
23.6443,40.1780
23.6443,40.1780
23.7885,40.3707
23.8129,40.4362
23.7981,40.5044
23.7885,40.5193
23.6443,40.7120
23.6443,40.7120
23.5174,40.9443
23.5174,40.9443
23.4249,41.1923
23.3687,41.4510
23.3687,41.4510
23.3498,41.7150
23.3498,41.7150
23.3687,41.9790
23.3687,41.9790
23.3901,42.0778
23.3852,42.1475
23.3433,42.2034
23.2778,42.2278
23.2095,42.2130
23.1947,42.2034
22.9821,42.0443
22.9821,42.0443
22.7498,41.9174
22.7498,41.9174
22.5018,41.8249
22.2431,41.7687
22.2431,41.7687
21.9791,41.7498
21.9791,41.7498
21.7151,41.7687
21.7151,41.7687
21.4564,41.8249
21.2084,41.9174
21.2084,41.9174
20.9761,42.0443
20.9761,42.0443
20.7834,42.1885
20.7179,42.2129
20.6497,42.1981
20.6348,42.1885
20.4421,42.0443
20.4421,42.0443
20.2098,41.9174
20.2098,41.9174
19.9618,41.8249
19.7031,41.7687
19.7031,41.7687
19.4391,41.7498
19.4391,41.7498
19.1751,41.7687
19.1751,41.7687
18.9164,41.8249
18.6684,41.9174
18.5240,41.9963
18.4557,42.0111
18.3903,41.9867
18.3862,41.9836
18.3051,41.9174
18.3025,41.9153
18.1221,41.8211
18.1221,41.8211
18.1221,41.8211
18.0049,41.7875
17.9265,41.7651
17.9265,41.7651
17.9265,41.7651
17.8602,41.7592
17.8071,41.7545
17.8071,41.7545
15.9911,41.7545
15.9911,41.7545
15.9911,41.7545
15.9794,41.7555
15.8717,41.7651
15.6761,41.8211
15.5859,41.8682
15.4957,41.9153
15.4957,41.9153
15.4957,41.9153
15.3380,42.0439
15.2123,42.1981
15.2094,42.2016
15.1906,42.2377
15.1152,42.3820
15.0592,42.5776
15.0592,42.5776
15.0486,42.6970
15.0486,44.5130
15.0486,44.5130
15.0592,44.6324
15.1152,44.8280
15.1152,44.8280
15.1152,44.8280
15.2094,45.0084
15.2094,45.0084
15.3380,45.1661
15.4120,45.2264
15.4957,45.2947
15.6761,45.3889
15.8717,45.4449
15.9911,45.4555
17.8071,45.4555
17.9265,45.4449
18.1221,45.3889
18.3025,45.2947
18.3862,45.2264
18.4506,45.1993
18.5194,45.2113
18.5240,45.2137
18.6684,45.2926
18.6684,45.2926
18.6684,45.2926
18.9164,45.3851
18.9164,45.3851
18.9164,45.3851
19.0506,45.4143
19.1751,45.4413
19.4188,45.4588
19.4391,45.4602
19.4391,45.4602
19.4391,45.4602
19.4580,45.4589
19.7031,45.4413
19.9618,45.3851
20.2098,45.2926
20.4421,45.1657
20.5523,45.0833
20.6348,45.0215
20.7003,44.9971
20.7685,45.0119
20.7834,45.0215
20.9761,45.1657
20.9761,45.1657
21.2084,45.2926
21.2084,45.2926
21.2084,45.2926
21.4564,45.3851
21.4564,45.3851
21.4564,45.3851
21.5906,45.4143
21.7151,45.4413
21.9588,45.4588
21.9791,45.4602
21.9791,45.4602
21.9791,45.4602
21.9980,45.4589
22.2431,45.4413
22.5018,45.3851
22.7498,45.2926
22.9821,45.1657
23.1940,45.0071
23.3812,44.8199
23.5398,44.6080
23.5961,44.5050
23.6222,44.4572
23.6716,44.4078
23.7398,44.3929
23.8053,44.4174
23.8472,44.4733
23.8550,44.5166
23.8550,45.1528
23.8614,45.2124
23.8614,45.2124
23.9147,45.3554
23.9132,45.3560
23.9259,45.4143
23.9015,45.4797
23.8899,45.4931
23.8029,45.5801
23.8029,45.5801
23.6443,45.7920
23.6443,45.7920
23.5174,46.0243
23.5174,46.0243
23.4249,46.2723
23.3687,46.5310
23.3687,46.5310
23.3498,46.7950
23.3498,46.7950
23.3687,47.0590
23.3687,47.0590
23.4249,47.3177
23.5174,47.5657
23.5174,47.5657
23.6443,47.7980
23.6443,47.7980
23.7885,47.9907
23.8129,48.0562
23.7981,48.1244
23.7885,48.1393
23.6443,48.3320
23.6443,48.3320
23.5174,48.5643
23.5174,48.5643
23.4249,48.8123
23.3687,49.0710
23.3687,49.0710
23.3498,49.3350
23.3498,49.3350
23.3687,49.5990
23.3687,49.5990
23.4249,49.8577
23.5174,50.1057
23.5174,50.1057
23.6443,50.3380
23.6443,50.3380
23.7885,50.5307
23.8129,50.5962
23.7981,50.6644
23.7885,50.6793
23.6443,50.8720
23.5174,51.1043
23.5174,51.1043
23.4249,51.3523
23.3687,51.6110
23.3687,51.6110
23.3498,51.8750
23.3498,51.8750
23.3687,52.1390
23.3687,52.1390
23.4249,52.3977
23.5174,52.6457
23.5174,52.6457
23.6443,52.8780
23.6443,52.8780
23.7885,53.0707
23.8129,53.1362
23.7981,53.2044
23.7885,53.2193
23.6443,53.4120
23.6443,53.4120
23.5174,53.6443
23.5174,53.6443
23.4249,53.8923
23.3687,54.1510
23.3687,54.1510
23.3498,54.4150
23.3498,54.4150
23.3687,54.6790
23.3687,54.6790
23.4249,54.9377
23.5174,55.1857
23.5174,55.1857
23.6443,55.4180
23.6443,55.4180
23.8029,55.6299
23.8029,55.6299
23.8899,55.7169
23.9234,55.7782
23.9184,55.8479
23.9121,55.8617
23.8614,55.9976
23.8614,55.9976
23.8550,56.0572
23.8550,56.7050
24.7594,56.7050
24.7363,56.7410
24.6950,56.8817
24.6950,57.0283
24.7363,57.1690
24.7594,57.2050
23.8550,57.2050
23.8550,57.8528
23.8614,57.9124
23.8614,57.9124
23.9147,58.0554
23.9132,58.0560
23.9259,58.1143
23.9015,58.1797
23.8899,58.1931
23.8029,58.2801
23.8029,58.2801
23.6443,58.4920
23.6443,58.4920
23.5174,58.7243
23.5174,58.7243
23.4249,58.9723
23.3687,59.2310
23.3687,59.2310
23.3498,59.4950
23.3498,59.4950
23.3515,59.5195
23.3367,59.5878
23.3155,59.6160
15.4829,67.4486
15.4777,67.4533
15.4473,67.4775
15.4473,67.4775
15.4024,67.5290
15.3995,67.5320
15.3911,67.5405
15.3911,67.5405
15.3645,67.5723
15.3636,67.5734
15.2992,67.6470
15.2992,67.6470
15.2970,67.6508
15.2857,67.6666
15.2829,67.6700
15.2346,67.7551
15.2340,67.7563
15.2047,67.8052
15.1838,67.8402
15.1822,67.8443
15.1740,67.8619
15.1718,67.8657
15.1718,67.8658
15.1395,67.9581
15.1391,67.9594
15.1047,68.0510
15.1047,68.0510
15.1039,68.0553
15.0990,68.0741
15.0975,68.0782
15.0975,68.0782
15.0822,68.1749
15.0820,68.1762
15.0645,68.2724
15.0645,68.2768
15.0630,68.2962
15.0623,68.3005
15.0645,68.3983
15.0645,68.3997
15.0645,76.7057
15.0448,76.7727
15.0282,76.7933
11.3560,80.4655
11.2947,80.4990
11.2595,80.5015
11.2350,80.4998
11.2350,80.4998
10.9710,80.5187
10.9710,80.5187
10.7123,80.5749
10.4643,80.6674
10.4643,80.6674
10.2320,80.7943
10.2320,80.7943
10.0201,80.9529
10.0201,80.9529
9.8329,81.1401
9.8329,81.1401
9.7263,81.2825
9.6704,81.3244
9.6007,81.3294
9.5559,81.3098
9.3726,81.1814
9.3452,81.1686
9.2927,81.1225
9.2736,81.0553
9.2938,80.9884
9.3099,80.9686
12.0671,78.2113
12.0723,78.2067
12.1027,78.1825
12.1476,78.1310
12.1505,78.1280
12.1589,78.1195
12.1856,78.0877
12.1864,78.0867
12.2508,78.0130
12.2530,78.0092
12.2643,77.9934
12.2671,77.9900
12.3153,77.9049
12.3160,77.9038
12.3662,77.8198
12.3677,77.8157
12.3760,77.7980
12.3782,77.7942
12.4105,77.7019
12.4109,77.7007
12.4453,77.6090
12.4461,77.6047
12.4511,77.5859
12.4525,77.5818
12.4678,77.4851
12.4680,77.4838
12.4855,77.3875
12.4855,77.3832
12.4870,77.3638
12.4877,77.3595
12.4864,77.3026
12.4855,77.2617
12.4855,77.2603
12.4855,30.8543
12.5052,30.7873
12.5218,30.7667
23.6433,19.6452
23.7046,19.6117
Z" /> 
<path style="fill:#000000; fill-opacity:1.0000; 
stroke:#000000; stroke-width:0.0000; stroke-opacity:1; 
stroke-linecap:round; stroke-linejoin:round;fill-rule:evenodd;"
d="M 26.7602,19.6391
26.7667,19.6452
27.7882,20.6667
27.8217,20.7280
27.8245,20.7543
27.8245,54.4013
27.8241,54.4082
27.8233,54.4150
27.8198,54.4468
27.8198,54.4468
27.8244,54.5150
27.8245,54.5192
27.8245,54.5312
27.8282,54.5724
27.8283,54.5738
27.8349,54.6714
27.8349,54.6714
27.8360,54.6757
27.8392,54.6948
27.8396,54.6992
27.8656,54.7935
27.8660,54.7948
27.8774,54.8400
27.8899,54.8897
27.8917,54.8937
27.8983,54.9119
27.8995,54.9162
27.8995,54.9162
27.8995,54.9162
27.9420,55.0043
27.9425,55.0056
27.9830,55.0946
27.9830,55.0946
27.9855,55.0982
27.9953,55.1150
27.9972,55.1190
27.9972,55.1190
28.0547,55.1982
28.0554,55.1992
28.0930,55.2534
28.1112,55.2797
28.1143,55.2827
28.1269,55.2975
28.1295,55.3011
28.1295,55.3011
28.2002,55.3687
28.2012,55.3697
29.6655,56.8340
29.6990,56.8953
29.7015,56.9305
29.6998,56.9550
29.6998,56.9550
29.7187,57.2190
29.7187,57.2190
29.7749,57.4777
29.8674,57.7257
29.8674,57.7257
29.9943,57.9580
29.9943,57.9580
30.0603,58.0462
30.0847,58.1117
30.0699,58.1799
30.0205,58.2293
29.9610,58.2445
26.6229,58.2445
26.5558,58.2248
26.5352,58.2082
26.5201,58.1931
26.4866,58.1318
26.4916,58.0621
26.4979,58.0483
26.5486,57.9124
26.5486,57.9124
26.5550,57.8528
26.5550,57.8528
26.5550,57.2050
25.6506,57.2050
25.6737,57.1690
25.7150,57.0283
25.7150,56.8817
25.6737,56.7410
25.6506,56.7050
26.5550,56.7050
26.5550,56.0572
26.5550,56.0572
26.5486,55.9976
26.5486,55.9976
26.4953,55.8546
26.4968,55.8540
26.4841,55.7957
26.5085,55.7303
26.5201,55.7169
26.6071,55.6299
26.7657,55.4180
26.8926,55.1857
26.9851,54.9377
27.0413,54.6790
27.0602,54.4150
27.0413,54.1510
27.0063,53.9900
26.9851,53.8923
26.8926,53.6443
26.8926,53.6443
26.7657,53.4120
26.7657,53.4120
26.6215,53.2193
26.5971,53.1538
26.6119,53.0856
26.6215,53.0707
26.7657,52.8780
26.8926,52.6457
26.9851,52.3977
27.0413,52.1390
27.0602,51.8750
27.0413,51.6110
26.9851,51.3523
26.8926,51.1043
26.7657,50.8720
26.6215,50.6793
26.5971,50.6138
26.6119,50.5456
26.6215,50.5307
26.6833,50.4482
26.7657,50.3380
26.8926,50.1057
26.9851,49.8577
27.0413,49.5990
27.0602,49.3350
27.0413,49.0710
26.9851,48.8123
26.8926,48.5643
26.7657,48.3320
26.6215,48.1393
26.5971,48.0738
26.6119,48.0056
26.6215,47.9907
26.6833,47.9082
26.7657,47.7980
26.8926,47.5657
26.9851,47.3177
27.0413,47.0590
27.0602,46.7950
27.0413,46.5310
26.9851,46.2723
26.8926,46.0243
26.7657,45.7920
26.7657,45.7920
26.6071,45.5801
26.6071,45.5801
26.6071,45.5801
26.5201,45.4931
26.4866,45.4318
26.4916,45.3621
26.4979,45.3483
26.5486,45.2124
26.5486,45.2124
26.5550,45.1528
26.5550,45.1528
26.5550,44.5050
25.6506,44.5050
25.6737,44.4690
25.7150,44.3283
25.7150,44.1817
25.6737,44.0410
25.6506,44.0050
26.5550,44.0050
26.5550,43.3572
26.5550,43.3572
26.5486,43.2976
26.5486,43.2976
26.4953,43.1546
26.4968,43.1540
26.4841,43.0957
26.5085,43.0303
26.5201,43.0169
26.6071,42.9299
26.7657,42.7180
26.8926,42.4857
26.9851,42.2377
27.0413,41.9790
27.0602,41.7150
27.0413,41.4510
26.9851,41.1923
26.8926,40.9443
26.7657,40.7120
26.7657,40.7120
26.6215,40.5193
26.5971,40.4538
26.6119,40.3856
26.6215,40.3707
26.7657,40.1780
26.8926,39.9457
26.9851,39.6977
27.0413,39.4390
27.0602,39.1750
27.0413,38.9110
26.9851,38.6523
26.8926,38.4043
26.7657,38.1720
26.6215,37.9793
26.5971,37.9138
26.6119,37.8456
26.6215,37.8307
26.6833,37.7482
26.7657,37.6380
26.8926,37.4057
26.9851,37.1577
27.0413,36.8990
27.0602,36.6350
27.0413,36.3710
26.9851,36.1123
26.8926,35.8643
26.7657,35.6320
26.6215,35.4393
26.5971,35.3738
26.6119,35.3056
26.6215,35.2907
26.6833,35.2082
26.7657,35.0980
26.8926,34.8657
26.9851,34.6177
27.0413,34.3590
27.0602,34.0950
27.0413,33.8310
26.9851,33.5723
26.8926,33.3243
26.7657,33.0920
26.7657,33.0920
26.6071,32.8801
26.6071,32.8801
26.6071,32.8801
26.5201,32.7931
26.4866,32.7318
26.4916,32.6621
26.4979,32.6483
26.5486,32.5124
26.5486,32.5124
26.5550,32.4528
26.5550,32.4528
26.5550,31.8050
25.6506,31.8050
25.6737,31.7690
25.7150,31.6283
25.7150,31.4817
25.6737,31.3410
25.6506,31.3050
26.5550,31.3050
26.5550,30.6572
26.5550,30.6572
26.5486,30.5976
26.5486,30.5976
26.4953,30.4546
26.4968,30.4540
26.4841,30.3957
26.5085,30.3303
26.5201,30.3169
26.6071,30.2299
26.7657,30.0180
26.8926,29.7857
26.9851,29.5377
27.0413,29.2790
27.0602,29.0150
27.0413,28.7510
26.9851,28.4923
26.8926,28.2443
26.7657,28.0120
26.6215,27.8193
26.5971,27.7538
26.6119,27.6856
26.6215,27.6707
26.6833,27.5882
26.7657,27.4780
26.8926,27.2457
26.9851,26.9977
27.0413,26.7390
27.0602,26.4750
27.0413,26.2110
26.9851,25.9523
26.8926,25.7043
26.7657,25.4720
26.7657,25.4720
26.6215,25.2793
26.5971,25.2138
26.6119,25.1456
26.6215,25.1307
26.7657,24.9380
26.8926,24.7057
26.9851,24.4577
27.0413,24.1990
27.0602,23.9350
27.0413,23.6710
26.9851,23.4123
26.8926,23.1643
26.7657,22.9320
26.6215,22.7393
26.5971,22.6738
26.6119,22.6056
26.6215,22.5907
26.6833,22.5082
26.7657,22.3980
26.8926,22.1657
26.9851,21.9177
27.0413,21.6590
27.0602,21.3950
27.0413,21.1310
26.9851,20.8723
26.8926,20.6243
26.7657,20.3920
26.7657,20.3920
26.6071,20.1801
26.6071,20.1801
26.5678,20.1408
26.5201,20.0931
26.4866,20.0318
26.4916,19.9621
26.4979,19.9483
26.5486,19.8124
26.5486,19.8124
26.5550,19.7528
26.5550,19.7528
26.5550,19.7328
26.5747,19.6658
26.6275,19.6200
26.6966,19.6101
Z" /> 
</g>
</g>
</g>
<g style="fill:#FFFFFF; fill-opacity:1.0000; 
stroke:#FFFFFF; stroke-width:0.0000; stroke-opacity:1; 
stroke-linecap:round; stroke-linejoin:round;">
<circle cx="6.1550" cy="82.3550" r="0.5000" /> 
</g>
<g style="fill:#FFFFFF; fill-opacity:1.0000; 
stroke:#FFFFFF; stroke-width:0.0212; stroke-opacity:1; 
stroke-linecap:round; stroke-linejoin:round;">
</g>
<g style="fill:#FFFFFF; fill-opacity:1.0000; 
stroke:#FFFFFF; stroke-width:0.0000; stroke-opacity:1; 
stroke-linecap:round; stroke-linejoin:round;">
<circle cx="8.6950" cy="82.3550" r="0.5000" /> 
</g>
<g style="fill:#FFFFFF; fill-opacity:1.0000; 
stroke:#FFFFFF; stroke-width:0.0212; stroke-opacity:1; 
stroke-linecap:round; stroke-linejoin:round;">
</g>
<g style="fill:#FFFFFF; fill-opacity:1.0000; 
stroke:#FFFFFF; stroke-width:0.0000; stroke-opacity:1; 
stroke-linecap:round; stroke-linejoin:round;">
<circle cx="11.2350" cy="82.3550" r="0.5000" /> 
</g>
<g style="fill:#FFFFFF; fill-opacity:1.0000; 
stroke:#FFFFFF; stroke-width:0.0212; stroke-opacity:1; 
stroke-linecap:round; stroke-linejoin:round;">
</g>
<g style="fill:#FFFFFF; fill-opacity:1.0000; 
stroke:#FFFFFF; stroke-width:0.0000; stroke-opacity:1; 
stroke-linecap:round; stroke-linejoin:round;">
<circle cx="13.7750" cy="82.3550" r="0.5000" /> 
</g>
<g style="fill:#FFFFFF; fill-opacity:1.0000; 
stroke:#FFFFFF; stroke-width:0.0212; stroke-opacity:1; 
stroke-linecap:round; stroke-linejoin:round;">
</g>
<g style="fill:#FFFFFF; fill-opacity:1.0000; 
stroke:#FFFFFF; stroke-width:0.0000; stroke-opacity:1; 
stroke-linecap:round; stroke-linejoin:round;">
<circle cx="16.3150" cy="82.3550" r="0.5000" /> 
</g>
<g style="fill:#FFFFFF; fill-opacity:1.0000; 
stroke:#FFFFFF; stroke-width:0.0212; stroke-opacity:1; 
stroke-linecap:round; stroke-linejoin:round;">
</g>
<g style="fill:#FFFFFF; fill-opacity:1.0000; 
stroke:#FFFFFF; stroke-width:0.0000; stroke-opacity:1; 
stroke-linecap:round; stroke-linejoin:round;">
<circle cx="18.8550" cy="82.3550" r="0.5000" /> 
</g>
<g style="fill:#FFFFFF; fill-opacity:1.0000; 
stroke:#FFFFFF; stroke-width:0.0212; stroke-opacity:1; 
stroke-linecap:round; stroke-linejoin:round;">
</g>
<g style="fill:#FFFFFF; fill-opacity:1.0000; 
stroke:#FFFFFF; stroke-width:0.0000; stroke-opacity:1; 
stroke-linecap:round; stroke-linejoin:round;">
<circle cx="21.3950" cy="82.3550" r="0.5000" /> 
</g>
<g style="fill:#FFFFFF; fill-opacity:1.0000; 
stroke:#FFFFFF; stroke-width:0.0212; stroke-opacity:1; 
stroke-linecap:round; stroke-linejoin:round;">
</g>
<g style="fill:#FFFFFF; fill-opacity:1.0000; 
stroke:#FFFFFF; stroke-width:0.0000; stroke-opacity:1; 
stroke-linecap:round; stroke-linejoin:round;">
<circle cx="23.9350" cy="82.3550" r="0.5000" /> 
</g>
<g style="fill:#FFFFFF; fill-opacity:1.0000; 
stroke:#FFFFFF; stroke-width:0.0212; stroke-opacity:1; 
stroke-linecap:round; stroke-linejoin:round;">
</g>
<g style="fill:#FFFFFF; fill-opacity:1.0000; 
stroke:#FFFFFF; stroke-width:0.0000; stroke-opacity:1; 
stroke-linecap:round; stroke-linejoin:round;">
<circle cx="26.4750" cy="82.3550" r="0.5000" /> 
</g>
<g style="fill:#FFFFFF; fill-opacity:1.0000; 
stroke:#FFFFFF; stroke-width:0.0212; stroke-opacity:1; 
stroke-linecap:round; stroke-linejoin:round;">
</g>
<g style="fill:#FFFFFF; fill-opacity:1.0000; 
stroke:#FFFFFF; stroke-width:0.0000; stroke-opacity:1; 
stroke-linecap:round; stroke-linejoin:round;">
<circle cx="29.0150" cy="82.3550" r="0.5000" /> 
</g>
<g style="fill:#FFFFFF; fill-opacity:1.0000; 
stroke:#FFFFFF; stroke-width:0.0212; stroke-opacity:1; 
stroke-linecap:round; stroke-linejoin:round;">
</g>
<g style="fill:#FFFFFF; fill-opacity:1.0000; 
stroke:#FFFFFF; stroke-width:0.0000; stroke-opacity:1; 
stroke-linecap:round; stroke-linejoin:round;">
<circle cx="15.5850" cy="6.1550" r="0.3750" /> 
</g>
<g style="fill:#FFFFFF; fill-opacity:1.0000; 
stroke:#FFFFFF; stroke-width:0.0212; stroke-opacity:1; 
stroke-linecap:round; stroke-linejoin:round;">
</g>
<g style="fill:#FFFFFF; fill-opacity:1.0000; 
stroke:#FFFFFF; stroke-width:0.0000; stroke-opacity:1; 
stroke-linecap:round; stroke-linejoin:round;">
<circle cx="17.5850" cy="6.1550" r="0.3750" /> 
</g>
<g style="fill:#FFFFFF; fill-opacity:1.0000; 
stroke:#FFFFFF; stroke-width:0.0212; stroke-opacity:1; 
stroke-linecap:round; stroke-linejoin:round;">
</g>
<g style="fill:#FFFFFF; fill-opacity:1.0000; 
stroke:#FFFFFF; stroke-width:0.0000; stroke-opacity:1; 
stroke-linecap:round; stroke-linejoin:round;">
<circle cx="31.5550" cy="54.4150" r="0.5000" /> 
</g>
<g style="fill:#FFFFFF; fill-opacity:1.0000; 
stroke:#FFFFFF; stroke-width:0.0212; stroke-opacity:1; 
stroke-linecap:round; stroke-linejoin:round;">
</g>
<g style="fill:#FFFFFF; fill-opacity:1.0000; 
stroke:#FFFFFF; stroke-width:0.0000; stroke-opacity:1; 
stroke-linecap:round; stroke-linejoin:round;">
<circle cx="31.5550" cy="56.9550" r="0.5000" /> 
</g>
<g style="fill:#FFFFFF; fill-opacity:1.0000; 
stroke:#FFFFFF; stroke-width:0.0212; stroke-opacity:1; 
stroke-linecap:round; stroke-linejoin:round;">
</g>
<g style="fill:#FFFFFF; fill-opacity:1.0000; 
stroke:#FFFFFF; stroke-width:0.0000; stroke-opacity:1; 
stroke-linecap:round; stroke-linejoin:round;">
<circle cx="31.5550" cy="59.4950" r="0.5000" /> 
</g>
<g style="fill:#FFFFFF; fill-opacity:1.0000; 
stroke:#FFFFFF; stroke-width:0.0212; stroke-opacity:1; 
stroke-linecap:round; stroke-linejoin:round;">
</g>
<g style="fill:#FFFFFF; fill-opacity:1.0000; 
stroke:#FFFFFF; stroke-width:0.0000; stroke-opacity:1; 
stroke-linecap:round; stroke-linejoin:round;">
<circle cx="31.5550" cy="62.0350" r="0.5000" /> 
</g>
<g style="fill:#FFFFFF; fill-opacity:1.0000; 
stroke:#FFFFFF; stroke-width:0.0212; stroke-opacity:1; 
stroke-linecap:round; stroke-linejoin:round;">
</g>
<g style="fill:#FFFFFF; fill-opacity:1.0000; 
stroke:#FFFFFF; stroke-width:0.0000; stroke-opacity:1; 
stroke-linecap:round; stroke-linejoin:round;">
<circle cx="13.7350" cy="89.9750" r="0.5000" /> 
</g>
<g style="fill:#FFFFFF; fill-opacity:1.0000; 
stroke:#FFFFFF; stroke-width:0.0212; stroke-opacity:1; 
stroke-linecap:round; stroke-linejoin:round;">
</g>
<g style="fill:#FFFFFF; fill-opacity:1.0000; 
stroke:#FFFFFF; stroke-width:0.0000; stroke-opacity:1; 
stroke-linecap:round; stroke-linejoin:round;">
<circle cx="16.2750" cy="89.9750" r="0.5000" /> 
</g>
<g style="fill:#FFFFFF; fill-opacity:1.0000; 
stroke:#FFFFFF; stroke-width:0.0212; stroke-opacity:1; 
stroke-linecap:round; stroke-linejoin:round;">
</g>
<g style="fill:#FFFFFF; fill-opacity:1.0000; 
stroke:#FFFFFF; stroke-width:0.0000; stroke-opacity:1; 
stroke-linecap:round; stroke-linejoin:round;">
<circle cx="18.8150" cy="89.9750" r="0.5000" /> 
</g>
<g style="fill:#FFFFFF; fill-opacity:1.0000; 
stroke:#FFFFFF; stroke-width:0.0212; stroke-opacity:1; 
stroke-linecap:round; stroke-linejoin:round;">
</g>
<g style="fill:#FFFFFF; fill-opacity:1.0000; 
stroke:#FFFFFF; stroke-width:0.0000; stroke-opacity:1; 
stroke-linecap:round; stroke-linejoin:round;">
<circle cx="21.3550" cy="89.9750" r="0.5000" /> 
</g>
<g style="fill:#FFFFFF; fill-opacity:1.0000; 
stroke:#FFFFFF; stroke-width:0.0212; stroke-opacity:1; 
stroke-linecap:round; stroke-linejoin:round;">
</g>
<g style="fill:#FFFFFF; fill-opacity:1.0000; 
stroke:#FFFFFF; stroke-width:0.0000; stroke-opacity:1; 
stroke-linecap:round; stroke-linejoin:round;">
<circle cx="13.5900" cy="13.9050" r="0.9000" /> 
</g>
<g style="fill:#FFFFFF; fill-opacity:1.0000; 
stroke:#FFFFFF; stroke-width:0.0212; stroke-opacity:1; 
stroke-linecap:round; stroke-linejoin:round;">
</g>
<g style="fill:#FFFFFF; fill-opacity:1.0000; 
stroke:#FFFFFF; stroke-width:0.0000; stroke-opacity:1; 
stroke-linecap:round; stroke-linejoin:round;">
<circle cx="13.8900" cy="16.9350" r="0.7500" /> 
</g>
<g style="fill:#FFFFFF; fill-opacity:1.0000; 
stroke:#FFFFFF; stroke-width:0.0212; stroke-opacity:1; 
stroke-linecap:round; stroke-linejoin:round;">
</g>
<g style="fill:#FFFFFF; fill-opacity:1.0000; 
stroke:#FFFFFF; stroke-width:0.0000; stroke-opacity:1; 
stroke-linecap:round; stroke-linejoin:round;">
<circle cx="18.7400" cy="16.9350" r="0.7500" /> 
</g>
<g style="fill:#FFFFFF; fill-opacity:1.0000; 
stroke:#FFFFFF; stroke-width:0.0212; stroke-opacity:1; 
stroke-linecap:round; stroke-linejoin:round;">
</g>
<g style="fill:#FFFFFF; fill-opacity:1.0000; 
stroke:#FFFFFF; stroke-width:0.0000; stroke-opacity:1; 
stroke-linecap:round; stroke-linejoin:round;">
<circle cx="19.0400" cy="13.9050" r="0.9000" /> 
</g>
<g style="fill:#FFFFFF; fill-opacity:1.0000; 
stroke:#FFFFFF; stroke-width:0.0212; stroke-opacity:1; 
stroke-linecap:round; stroke-linejoin:round;">
</g>
<g style="fill:#FFFFFF; fill-opacity:1.0000; 
stroke:#FFFFFF; stroke-width:0.0000; stroke-opacity:1; 
stroke-linecap:round; stroke-linejoin:round;">
<circle cx="7.4250" cy="13.7750" r="0.5100" /> 
</g>
<g style="fill:#FFFFFF; fill-opacity:1.0000; 
stroke:#FFFFFF; stroke-width:0.0212; stroke-opacity:1; 
stroke-linecap:round; stroke-linejoin:round;">
</g>
<g style="fill:#FFFFFF; fill-opacity:1.0000; 
stroke:#FFFFFF; stroke-width:0.0000; stroke-opacity:1; 
stroke-linecap:round; stroke-linejoin:round;">
<circle cx="7.4250" cy="16.3150" r="0.5100" /> 
</g>
<g style="fill:#FFFFFF; fill-opacity:1.0000; 
stroke:#FFFFFF; stroke-width:0.0212; stroke-opacity:1; 
stroke-linecap:round; stroke-linejoin:round;">
</g>
<g style="fill:#FFFFFF; fill-opacity:1.0000; 
stroke:#FFFFFF; stroke-width:0.0000; stroke-opacity:1; 
stroke-linecap:round; stroke-linejoin:round;">
<circle cx="7.4250" cy="18.8550" r="0.5100" /> 
</g>
<g style="fill:#FFFFFF; fill-opacity:1.0000; 
stroke:#FFFFFF; stroke-width:0.0212; stroke-opacity:1; 
stroke-linecap:round; stroke-linejoin:round;">
</g>
<g style="fill:#FFFFFF; fill-opacity:1.0000; 
stroke:#FFFFFF; stroke-width:0.0000; stroke-opacity:1; 
stroke-linecap:round; stroke-linejoin:round;">
<circle cx="7.4250" cy="21.3950" r="0.5100" /> 
</g>
<g style="fill:#FFFFFF; fill-opacity:1.0000; 
stroke:#FFFFFF; stroke-width:0.0212; stroke-opacity:1; 
stroke-linecap:round; stroke-linejoin:round;">
</g>
<g style="fill:#FFFFFF; fill-opacity:1.0000; 
stroke:#FFFFFF; stroke-width:0.0000; stroke-opacity:1; 
stroke-linecap:round; stroke-linejoin:round;">
<circle cx="7.4250" cy="23.9350" r="0.5100" /> 
</g>
<g style="fill:#FFFFFF; fill-opacity:1.0000; 
stroke:#FFFFFF; stroke-width:0.0212; stroke-opacity:1; 
stroke-linecap:round; stroke-linejoin:round;">
</g>
<g style="fill:#FFFFFF; fill-opacity:1.0000; 
stroke:#FFFFFF; stroke-width:0.0000; stroke-opacity:1; 
stroke-linecap:round; stroke-linejoin:round;">
<circle cx="7.4250" cy="26.4750" r="0.5100" /> 
</g>
<g style="fill:#FFFFFF; fill-opacity:1.0000; 
stroke:#FFFFFF; stroke-width:0.0212; stroke-opacity:1; 
stroke-linecap:round; stroke-linejoin:round;">
</g>
<g style="fill:#FFFFFF; fill-opacity:1.0000; 
stroke:#FFFFFF; stroke-width:0.0000; stroke-opacity:1; 
stroke-linecap:round; stroke-linejoin:round;">
<circle cx="7.4250" cy="29.0150" r="0.5100" /> 
</g>
<g style="fill:#FFFFFF; fill-opacity:1.0000; 
stroke:#FFFFFF; stroke-width:0.0212; stroke-opacity:1; 
stroke-linecap:round; stroke-linejoin:round;">
</g>
<g style="fill:#FFFFFF; fill-opacity:1.0000; 
stroke:#FFFFFF; stroke-width:0.0000; stroke-opacity:1; 
stroke-linecap:round; stroke-linejoin:round;">
<circle cx="7.4250" cy="31.5550" r="0.5100" /> 
</g>
<g style="fill:#FFFFFF; fill-opacity:1.0000; 
stroke:#FFFFFF; stroke-width:0.0212; stroke-opacity:1; 
stroke-linecap:round; stroke-linejoin:round;">
</g>
<g style="fill:#FFFFFF; fill-opacity:1.0000; 
stroke:#FFFFFF; stroke-width:0.0000; stroke-opacity:1; 
stroke-linecap:round; stroke-linejoin:round;">
<circle cx="7.4250" cy="34.0950" r="0.5100" /> 
</g>
<g style="fill:#FFFFFF; fill-opacity:1.0000; 
stroke:#FFFFFF; stroke-width:0.0212; stroke-opacity:1; 
stroke-linecap:round; stroke-linejoin:round;">
</g>
<g style="fill:#FFFFFF; fill-opacity:1.0000; 
stroke:#FFFFFF; stroke-width:0.0000; stroke-opacity:1; 
stroke-linecap:round; stroke-linejoin:round;">
<circle cx="7.4250" cy="36.6350" r="0.5100" /> 
</g>
<g style="fill:#FFFFFF; fill-opacity:1.0000; 
stroke:#FFFFFF; stroke-width:0.0212; stroke-opacity:1; 
stroke-linecap:round; stroke-linejoin:round;">
</g>
<g style="fill:#FFFFFF; fill-opacity:1.0000; 
stroke:#FFFFFF; stroke-width:0.0000; stroke-opacity:1; 
stroke-linecap:round; stroke-linejoin:round;">
<circle cx="7.4250" cy="39.1750" r="0.5100" /> 
</g>
<g style="fill:#FFFFFF; fill-opacity:1.0000; 
stroke:#FFFFFF; stroke-width:0.0212; stroke-opacity:1; 
stroke-linecap:round; stroke-linejoin:round;">
</g>
<g style="fill:#FFFFFF; fill-opacity:1.0000; 
stroke:#FFFFFF; stroke-width:0.0000; stroke-opacity:1; 
stroke-linecap:round; stroke-linejoin:round;">
<circle cx="7.4250" cy="41.7150" r="0.5100" /> 
</g>
<g style="fill:#FFFFFF; fill-opacity:1.0000; 
stroke:#FFFFFF; stroke-width:0.0212; stroke-opacity:1; 
stroke-linecap:round; stroke-linejoin:round;">
</g>
<g style="fill:#FFFFFF; fill-opacity:1.0000; 
stroke:#FFFFFF; stroke-width:0.0000; stroke-opacity:1; 
stroke-linecap:round; stroke-linejoin:round;">
<circle cx="7.4250" cy="44.2550" r="0.5100" /> 
</g>
<g style="fill:#FFFFFF; fill-opacity:1.0000; 
stroke:#FFFFFF; stroke-width:0.0212; stroke-opacity:1; 
stroke-linecap:round; stroke-linejoin:round;">
</g>
<g style="fill:#FFFFFF; fill-opacity:1.0000; 
stroke:#FFFFFF; stroke-width:0.0000; stroke-opacity:1; 
stroke-linecap:round; stroke-linejoin:round;">
<circle cx="7.4250" cy="46.7950" r="0.5100" /> 
</g>
<g style="fill:#FFFFFF; fill-opacity:1.0000; 
stroke:#FFFFFF; stroke-width:0.0212; stroke-opacity:1; 
stroke-linecap:round; stroke-linejoin:round;">
</g>
<g style="fill:#FFFFFF; fill-opacity:1.0000; 
stroke:#FFFFFF; stroke-width:0.0000; stroke-opacity:1; 
stroke-linecap:round; stroke-linejoin:round;">
<circle cx="7.4250" cy="49.3350" r="0.5100" /> 
</g>
<g style="fill:#FFFFFF; fill-opacity:1.0000; 
stroke:#FFFFFF; stroke-width:0.0212; stroke-opacity:1; 
stroke-linecap:round; stroke-linejoin:round;">
</g>
<g style="fill:#FFFFFF; fill-opacity:1.0000; 
stroke:#FFFFFF; stroke-width:0.0000; stroke-opacity:1; 
stroke-linecap:round; stroke-linejoin:round;">
<circle cx="7.4250" cy="51.8750" r="0.5100" /> 
</g>
<g style="fill:#FFFFFF; fill-opacity:1.0000; 
stroke:#FFFFFF; stroke-width:0.0212; stroke-opacity:1; 
stroke-linecap:round; stroke-linejoin:round;">
</g>
<g style="fill:#FFFFFF; fill-opacity:1.0000; 
stroke:#FFFFFF; stroke-width:0.0000; stroke-opacity:1; 
stroke-linecap:round; stroke-linejoin:round;">
<circle cx="7.4250" cy="54.4150" r="0.5100" /> 
</g>
<g style="fill:#FFFFFF; fill-opacity:1.0000; 
stroke:#FFFFFF; stroke-width:0.0212; stroke-opacity:1; 
stroke-linecap:round; stroke-linejoin:round;">
</g>
<g style="fill:#FFFFFF; fill-opacity:1.0000; 
stroke:#FFFFFF; stroke-width:0.0000; stroke-opacity:1; 
stroke-linecap:round; stroke-linejoin:round;">
<circle cx="7.4250" cy="56.9550" r="0.5100" /> 
</g>
<g style="fill:#FFFFFF; fill-opacity:1.0000; 
stroke:#FFFFFF; stroke-width:0.0212; stroke-opacity:1; 
stroke-linecap:round; stroke-linejoin:round;">
</g>
<g style="fill:#FFFFFF; fill-opacity:1.0000; 
stroke:#FFFFFF; stroke-width:0.0000; stroke-opacity:1; 
stroke-linecap:round; stroke-linejoin:round;">
<circle cx="7.4250" cy="59.4950" r="0.5100" /> 
</g>
<g style="fill:#FFFFFF; fill-opacity:1.0000; 
stroke:#FFFFFF; stroke-width:0.0212; stroke-opacity:1; 
stroke-linecap:round; stroke-linejoin:round;">
</g>
<g style="fill:#FFFFFF; fill-opacity:1.0000; 
stroke:#FFFFFF; stroke-width:0.0000; stroke-opacity:1; 
stroke-linecap:round; stroke-linejoin:round;">
<circle cx="7.4250" cy="62.0350" r="0.5100" /> 
</g>
<g style="fill:#FFFFFF; fill-opacity:1.0000; 
stroke:#FFFFFF; stroke-width:0.0212; stroke-opacity:1; 
stroke-linecap:round; stroke-linejoin:round;">
</g>
<g style="fill:#FFFFFF; fill-opacity:1.0000; 
stroke:#FFFFFF; stroke-width:0.0000; stroke-opacity:1; 
stroke-linecap:round; stroke-linejoin:round;">
<circle cx="25.2050" cy="62.0350" r="0.5100" /> 
</g>
<g style="fill:#FFFFFF; fill-opacity:1.0000; 
stroke:#FFFFFF; stroke-width:0.0212; stroke-opacity:1; 
stroke-linecap:round; stroke-linejoin:round;">
</g>
<g style="fill:#FFFFFF; fill-opacity:1.0000; 
stroke:#FFFFFF; stroke-width:0.0000; stroke-opacity:1; 
stroke-linecap:round; stroke-linejoin:round;">
<circle cx="25.2050" cy="59.4950" r="0.5100" /> 
</g>
<g style="fill:#FFFFFF; fill-opacity:1.0000; 
stroke:#FFFFFF; stroke-width:0.0212; stroke-opacity:1; 
stroke-linecap:round; stroke-linejoin:round;">
</g>
<g style="fill:#FFFFFF; fill-opacity:1.0000; 
stroke:#FFFFFF; stroke-width:0.0000; stroke-opacity:1; 
stroke-linecap:round; stroke-linejoin:round;">
<circle cx="25.2050" cy="56.9550" r="0.5100" /> 
</g>
<g style="fill:#FFFFFF; fill-opacity:1.0000; 
stroke:#FFFFFF; stroke-width:0.0212; stroke-opacity:1; 
stroke-linecap:round; stroke-linejoin:round;">
</g>
<g style="fill:#FFFFFF; fill-opacity:1.0000; 
stroke:#FFFFFF; stroke-width:0.0000; stroke-opacity:1; 
stroke-linecap:round; stroke-linejoin:round;">
<circle cx="25.2050" cy="54.4150" r="0.5100" /> 
</g>
<g style="fill:#FFFFFF; fill-opacity:1.0000; 
stroke:#FFFFFF; stroke-width:0.0212; stroke-opacity:1; 
stroke-linecap:round; stroke-linejoin:round;">
</g>
<g style="fill:#FFFFFF; fill-opacity:1.0000; 
stroke:#FFFFFF; stroke-width:0.0000; stroke-opacity:1; 
stroke-linecap:round; stroke-linejoin:round;">
<circle cx="25.2050" cy="51.8750" r="0.5100" /> 
</g>
<g style="fill:#FFFFFF; fill-opacity:1.0000; 
stroke:#FFFFFF; stroke-width:0.0212; stroke-opacity:1; 
stroke-linecap:round; stroke-linejoin:round;">
</g>
<g style="fill:#FFFFFF; fill-opacity:1.0000; 
stroke:#FFFFFF; stroke-width:0.0000; stroke-opacity:1; 
stroke-linecap:round; stroke-linejoin:round;">
<circle cx="25.2050" cy="49.3350" r="0.5100" /> 
</g>
<g style="fill:#FFFFFF; fill-opacity:1.0000; 
stroke:#FFFFFF; stroke-width:0.0212; stroke-opacity:1; 
stroke-linecap:round; stroke-linejoin:round;">
</g>
<g style="fill:#FFFFFF; fill-opacity:1.0000; 
stroke:#FFFFFF; stroke-width:0.0000; stroke-opacity:1; 
stroke-linecap:round; stroke-linejoin:round;">
<circle cx="25.2050" cy="46.7950" r="0.5100" /> 
</g>
<g style="fill:#FFFFFF; fill-opacity:1.0000; 
stroke:#FFFFFF; stroke-width:0.0212; stroke-opacity:1; 
stroke-linecap:round; stroke-linejoin:round;">
</g>
<g style="fill:#FFFFFF; fill-opacity:1.0000; 
stroke:#FFFFFF; stroke-width:0.0000; stroke-opacity:1; 
stroke-linecap:round; stroke-linejoin:round;">
<circle cx="25.2050" cy="44.2550" r="0.5100" /> 
</g>
<g style="fill:#FFFFFF; fill-opacity:1.0000; 
stroke:#FFFFFF; stroke-width:0.0212; stroke-opacity:1; 
stroke-linecap:round; stroke-linejoin:round;">
</g>
<g style="fill:#FFFFFF; fill-opacity:1.0000; 
stroke:#FFFFFF; stroke-width:0.0000; stroke-opacity:1; 
stroke-linecap:round; stroke-linejoin:round;">
<circle cx="25.2050" cy="41.7150" r="0.5100" /> 
</g>
<g style="fill:#FFFFFF; fill-opacity:1.0000; 
stroke:#FFFFFF; stroke-width:0.0212; stroke-opacity:1; 
stroke-linecap:round; stroke-linejoin:round;">
</g>
<g style="fill:#FFFFFF; fill-opacity:1.0000; 
stroke:#FFFFFF; stroke-width:0.0000; stroke-opacity:1; 
stroke-linecap:round; stroke-linejoin:round;">
<circle cx="25.2050" cy="39.1750" r="0.5100" /> 
</g>
<g style="fill:#FFFFFF; fill-opacity:1.0000; 
stroke:#FFFFFF; stroke-width:0.0212; stroke-opacity:1; 
stroke-linecap:round; stroke-linejoin:round;">
</g>
<g style="fill:#FFFFFF; fill-opacity:1.0000; 
stroke:#FFFFFF; stroke-width:0.0000; stroke-opacity:1; 
stroke-linecap:round; stroke-linejoin:round;">
<circle cx="25.2050" cy="36.6350" r="0.5100" /> 
</g>
<g style="fill:#FFFFFF; fill-opacity:1.0000; 
stroke:#FFFFFF; stroke-width:0.0212; stroke-opacity:1; 
stroke-linecap:round; stroke-linejoin:round;">
</g>
<g style="fill:#FFFFFF; fill-opacity:1.0000; 
stroke:#FFFFFF; stroke-width:0.0000; stroke-opacity:1; 
stroke-linecap:round; stroke-linejoin:round;">
<circle cx="25.2050" cy="34.0950" r="0.5100" /> 
</g>
<g style="fill:#FFFFFF; fill-opacity:1.0000; 
stroke:#FFFFFF; stroke-width:0.0212; stroke-opacity:1; 
stroke-linecap:round; stroke-linejoin:round;">
</g>
<g style="fill:#FFFFFF; fill-opacity:1.0000; 
stroke:#FFFFFF; stroke-width:0.0000; stroke-opacity:1; 
stroke-linecap:round; stroke-linejoin:round;">
<circle cx="25.2050" cy="31.5550" r="0.5100" /> 
</g>
<g style="fill:#FFFFFF; fill-opacity:1.0000; 
stroke:#FFFFFF; stroke-width:0.0212; stroke-opacity:1; 
stroke-linecap:round; stroke-linejoin:round;">
</g>
<g style="fill:#FFFFFF; fill-opacity:1.0000; 
stroke:#FFFFFF; stroke-width:0.0000; stroke-opacity:1; 
stroke-linecap:round; stroke-linejoin:round;">
<circle cx="25.2050" cy="29.0150" r="0.5100" /> 
</g>
<g style="fill:#FFFFFF; fill-opacity:1.0000; 
stroke:#FFFFFF; stroke-width:0.0212; stroke-opacity:1; 
stroke-linecap:round; stroke-linejoin:round;">
</g>
<g style="fill:#FFFFFF; fill-opacity:1.0000; 
stroke:#FFFFFF; stroke-width:0.0000; stroke-opacity:1; 
stroke-linecap:round; stroke-linejoin:round;">
<circle cx="25.2050" cy="26.4750" r="0.5100" /> 
</g>
<g style="fill:#FFFFFF; fill-opacity:1.0000; 
stroke:#FFFFFF; stroke-width:0.0212; stroke-opacity:1; 
stroke-linecap:round; stroke-linejoin:round;">
</g>
<g style="fill:#FFFFFF; fill-opacity:1.0000; 
stroke:#FFFFFF; stroke-width:0.0000; stroke-opacity:1; 
stroke-linecap:round; stroke-linejoin:round;">
<circle cx="25.2050" cy="23.9350" r="0.5100" /> 
</g>
<g style="fill:#FFFFFF; fill-opacity:1.0000; 
stroke:#FFFFFF; stroke-width:0.0212; stroke-opacity:1; 
stroke-linecap:round; stroke-linejoin:round;">
</g>
<g style="fill:#FFFFFF; fill-opacity:1.0000; 
stroke:#FFFFFF; stroke-width:0.0000; stroke-opacity:1; 
stroke-linecap:round; stroke-linejoin:round;">
<circle cx="25.2050" cy="21.3950" r="0.5100" /> 
</g>
<g style="fill:#FFFFFF; fill-opacity:1.0000; 
stroke:#FFFFFF; stroke-width:0.0212; stroke-opacity:1; 
stroke-linecap:round; stroke-linejoin:round;">
</g>
<g style="fill:#FFFFFF; fill-opacity:1.0000; 
stroke:#FFFFFF; stroke-width:0.0000; stroke-opacity:1; 
stroke-linecap:round; stroke-linejoin:round;">
<circle cx="25.2050" cy="18.8550" r="0.5100" /> 
</g>
<g style="fill:#FFFFFF; fill-opacity:1.0000; 
stroke:#FFFFFF; stroke-width:0.0212; stroke-opacity:1; 
stroke-linecap:round; stroke-linejoin:round;">
</g>
<g style="fill:#FFFFFF; fill-opacity:1.0000; 
stroke:#FFFFFF; stroke-width:0.0000; stroke-opacity:1; 
stroke-linecap:round; stroke-linejoin:round;">
<circle cx="25.2050" cy="16.3150" r="0.5100" /> 
</g>
<g style="fill:#FFFFFF; fill-opacity:1.0000; 
stroke:#FFFFFF; stroke-width:0.0212; stroke-opacity:1; 
stroke-linecap:round; stroke-linejoin:round;">
</g>
<g style="fill:#FFFFFF; fill-opacity:1.0000; 
stroke:#FFFFFF; stroke-width:0.0000; stroke-opacity:1; 
stroke-linecap:round; stroke-linejoin:round;">
<circle cx="25.2050" cy="13.7750" r="0.5100" /> 
</g>
<g style="fill:#FFFFFF; fill-opacity:1.0000; 
stroke:#FFFFFF; stroke-width:0.0212; stroke-opacity:1; 
stroke-linecap:round; stroke-linejoin:round;">
</g>
<g style="fill:#FFFFFF; fill-opacity:1.0000; 
stroke:#FFFFFF; stroke-width:0.0000; stroke-opacity:1; 
stroke-linecap:round; stroke-linejoin:round;">
<circle cx="16.8991" cy="43.6050" r="0.5100" /> 
</g>
<g style="fill:#FFFFFF; fill-opacity:1.0000; 
stroke:#FFFFFF; stroke-width:0.0212; stroke-opacity:1; 
stroke-linecap:round; stroke-linejoin:round;">
</g>
<g style="fill:#FFFFFF; fill-opacity:1.0000; 
stroke:#FFFFFF; stroke-width:0.0000; stroke-opacity:1; 
stroke-linecap:round; stroke-linejoin:round;">
<circle cx="19.4391" cy="43.6050" r="0.5100" /> 
</g>
<g style="fill:#FFFFFF; fill-opacity:1.0000; 
stroke:#FFFFFF; stroke-width:0.0212; stroke-opacity:1; 
stroke-linecap:round; stroke-linejoin:round;">
</g>
<g style="fill:#FFFFFF; fill-opacity:1.0000; 
stroke:#FFFFFF; stroke-width:0.0000; stroke-opacity:1; 
stroke-linecap:round; stroke-linejoin:round;">
<circle cx="21.9791" cy="43.6050" r="0.5100" /> 
</g>
<g style="fill:#FFFFFF; fill-opacity:1.0000; 
stroke:#FFFFFF; stroke-width:0.0212; stroke-opacity:1; 
stroke-linecap:round; stroke-linejoin:round;">
</g>
<g style="fill:#000000; fill-opacity:1.0000; 
stroke:#000000; stroke-width:0.0212; stroke-opacity:1; 
stroke-linecap:round; stroke-linejoin:round;">
</g> 
</svg>
