<?xml version="1.0" standalone="no"?>
 <!DOCTYPE svg PUBLIC "-//W3C//DTD SVG 1.1//EN" 
 "http://www.w3.org/Graphics/SVG/1.1/DTD/svg11.dtd"> 
<svg
  xmlns:svg="http://www.w3.org/2000/svg"
  xmlns="http://www.w3.org/2000/svg"
  xmlns:xlink="http://www.w3.org/1999/xlink"
  version="1.1"
  width="21.9964mm" height="34.4424mm" viewBox="0.0000 0.0000 21.9964 34.4424">
<title>SVG Image created as flavor_tracker_sensor_array-Edge_Cuts.svg date 2023/07/20 09:28:51 </title>
  <desc>Image generated by PCBNEW </desc>
<g style="fill:#000000; fill-opacity:1.0000;stroke:#000000; stroke-opacity:1.0000;
stroke-linecap:round; stroke-linejoin:round;"
 transform="translate(0 0) scale(1 1)">
</g>
<g style="fill:#000000; fill-opacity:0.0; 
stroke:#000000; stroke-width:0.0000; stroke-opacity:1; 
stroke-linecap:round; stroke-linejoin:round;">
</g>
<g style="fill:#000000; fill-opacity:0.0; 
stroke:#000000; stroke-width:0.1000; stroke-opacity:1; 
stroke-linecap:round; stroke-linejoin:round;">
<path d="M6.8300 3.2000
L7.5700 3.2000
" />
<path d="M7.5700 3.2000
L7.5700 9.2000
" />
<path d="M15.1900 3.2000
L15.1900 9.2000
" />
<path d="M12.6500 3.2000
L12.6500 9.2000
" />
<path d="M4.2000 31.2500
L17.8200 31.2500
" />
<path d="M9.3700 3.2000
L9.3700 9.2000
" />
<path d="M6.8300 3.2000
L6.8300 9.2000
" />
<path d="M11.9100 3.2000
L12.6500 3.2000
" />
<path d="M14.4500 3.2000
L15.1900 3.2000
" />
<path d="M18.8200 9.2000
L15.1900 9.2000
" />
<path d="M14.4500 3.2000
L14.4500 9.2000
" />
<path d="M3.2000 9.2000
L3.2000 30.2500
" />
<path d="M11.9100 9.2000
L10.1100 9.2000
" />
<path d="M14.4500 9.2000
L12.6500 9.2000
" />
<path d="M18.8200 30.2500
L18.8200 9.2000
" />
<path d="M3.2000 30.2500 A1.0000 1.0000 0.0 0 0 4.2000 31.2500" />
<path d="M9.3700 3.2000
L10.1100 3.2000
" />
<path d="M10.1100 3.2000
L10.1100 9.2000
" />
<path d="M9.3700 9.2000
L7.5700 9.2000
" />
<path d="M17.8200 31.2500 A1.0000 1.0000 0.0 0 0 18.8200 30.2500" />
<path d="M11.9100 3.2000
L11.9100 9.2000
" />
<path d="M6.8300 9.2000
L3.2000 9.2000
" />
<g >
</g>
<g >
</g>
<g >
</g>
</g> 
</svg>
